<svg width="190" height="184" viewBox="0 0 190 184" fill="none" xmlns="http://www.w3.org/2000/svg">
<g clip-path="url(#clip0_523_1594)">
<path d="M189.778 3.60174H0.176758V0H189.778V3.60174Z" fill="#D5DDFF"/>
<path d="M189.778 8.13873H0.176758V3.60173H189.778V8.13873Z" fill="#D6DEFF"/>
<path d="M189.778 12.6766H0.176758V8.13873H189.778V12.6766Z" fill="#D7DEFF"/>
<path d="M189.778 17.2145H0.176758V12.6766H189.778V17.2145Z" fill="#D8DFFF"/>
<path d="M189.778 21.7524H0.176758V17.2145H189.778V21.7524Z" fill="#D9E0FF"/>
<path d="M189.778 26.2894H0.176758V21.7524H189.778V26.2894Z" fill="#DAE1FF"/>
<path d="M189.778 30.8273H0.176758V26.2894H189.778V30.8273Z" fill="#DBE2FF"/>
<path d="M189.778 35.3652H0.176758V30.8273H189.778V35.3652Z" fill="#DCE3FF"/>
<path d="M189.778 39.903H0.176758V35.3652H189.778V39.903Z" fill="#DDE3FF"/>
<path d="M189.778 44.4392H0.176758V39.903H189.778V44.4392Z" fill="#DEE4FF"/>
<path d="M189.778 48.977H0.176758V44.4392H189.778V48.977Z" fill="#DFE5FF"/>
<path d="M189.778 53.5149H0.176758V48.9771H189.778V53.5149Z" fill="#E0E6FF"/>
<path d="M189.778 58.0528H0.176758V53.5149H189.778V58.0528Z" fill="#E1E7FF"/>
<path d="M189.778 62.5898H0.176758V58.0528H189.778V62.5898Z" fill="#E2E7FF"/>
<path d="M189.778 67.1277H0.176758V62.5898H189.778V67.1277Z" fill="#E3E8FF"/>
<path d="M189.778 71.6656H0.176758V67.1277H189.778V71.6656Z" fill="#E5E9FF"/>
<path d="M189.778 76.2035H0.176758V71.6656H189.778V76.2035Z" fill="#E6EAFF"/>
<path d="M189.778 80.7405H0.176758V76.2035H189.778V80.7405Z" fill="#E7EBFF"/>
<path d="M189.778 85.2784H0.176758V80.7405H189.778V85.2784Z" fill="#E8EBFF"/>
<path d="M189.778 89.8154H0.176758V85.2784H189.778V89.8154Z" fill="#E9ECFF"/>
<path d="M189.778 94.3524H0.176758V89.8154H189.778V94.3524Z" fill="#EAEDFF"/>
<path d="M189.778 98.8902H0.176758V94.3524H189.778V98.8902Z" fill="#EBEEFF"/>
<path d="M189.778 103.428H0.176758V98.8902H189.778V103.428Z" fill="#ECEFFF"/>
<path d="M189.778 107.966H0.176758V103.428H189.778V107.966Z" fill="#EDF0FF"/>
<path d="M189.778 112.504H0.176758V107.966H189.778V112.504Z" fill="#EEF0FF"/>
<path d="M189.778 117.041H0.176758V112.504H189.778V117.041Z" fill="#EFF1FF"/>
<path d="M189.778 121.579H0.176758V117.041H189.778V121.579Z" fill="#F0F2FF"/>
<path d="M189.778 126.117H0.176758V121.579H189.778V126.117Z" fill="#F1F3FF"/>
<path d="M189.778 130.653H0.176758V126.117H189.778V130.653Z" fill="#F2F4FF"/>
<path d="M189.778 135.191H0.176758V130.653H189.778V135.191Z" fill="#F3F4FF"/>
<path d="M189.778 139.729H0.176758V135.191H189.778V139.729Z" fill="#F4F5FF"/>
<path d="M0.176758 139.729H189.778V141.754H0.176758V139.729Z" fill="#F5F6FF"/>
<path d="M162.127 149.112H104.416V11.6881H162.127V149.112Z" fill="white"/>
<path d="M99.748 149.112H75.1064V11.6881H99.748V149.112Z" fill="white"/>
<path d="M21.1384 63.0069H58.4127V11.9099H21.1384V63.0069ZM58.6418 63.4488H20.9102C20.7838 63.4488 20.6812 63.3503 20.6812 63.2278V11.6881C20.6812 11.5657 20.7838 11.4672 20.9102 11.4672H58.6418C58.7682 11.4672 58.8699 11.5657 58.8699 11.6881V63.2278C58.8699 63.3503 58.7682 63.4488 58.6418 63.4488Z" fill="white"/>
<path d="M24.4536 59.7965H55.0986V15.1204H24.4536V59.7965Z" fill="#FF7823"/>
<path d="M55.0986 38.9323L50.6464 34.9073L48.5885 37.4575L35.5534 21.0656L24.4536 36.5888V59.7964H55.0986V38.9323Z" fill="white"/>
<path d="M35.5534 21.0656L42.9533 43.1862L38.3609 41.3334L43.7193 59.7964H24.4536V36.5888L35.5534 21.0656Z" fill="#FFF9F2"/>
<path d="M50.6463 34.9073L48.5884 37.4575L53.5427 43.6885L50.6463 34.9073Z" fill="#FFF9F2"/>
<path d="M171.804 164.119C175.674 153.319 175.361 145.581 174.297 140.437C173.252 135.384 171.551 133.16 171.866 127.51C172.206 121.428 174.438 119.368 173.536 113.648C172.952 109.951 171.919 110.182 171.194 105.405C170.708 102.193 170.853 99.9621 169.212 97.4696C168.397 96.2291 167.323 94.5946 165.969 94.7162C163.708 94.9176 163.456 99.7589 159.027 107.077C156.199 111.751 155.15 111.679 154.174 114.719C153.105 118.044 153.941 119.435 154.098 125.393C154.292 132.784 153.052 132.447 153.512 137.572C154.021 143.242 155.44 142.563 156.722 150.314C157.685 156.136 151.704 157.689 153.271 161.663C154.177 163.959 156.245 168.203 156.245 168.203L161.595 168.042L171.804 164.119Z" fill="white"/>
<path d="M171.803 164.119H171.805H171.803ZM166.107 94.9309C166.068 94.9309 166.029 94.9335 165.99 94.9362C164.875 95.0356 164.251 96.5459 163.218 99.0464C162.368 101.101 161.205 103.916 159.225 107.189C157.979 109.246 157.09 110.372 156.375 111.278C155.473 112.422 154.929 113.112 154.391 114.784C153.702 116.926 153.819 118.227 154.028 120.59C154.137 121.813 154.271 123.335 154.325 125.386C154.425 129.161 154.157 130.901 153.919 132.435C153.693 133.9 153.516 135.058 153.739 137.554C153.99 140.348 154.451 141.548 155.035 143.069C155.627 144.615 156.3 146.368 156.948 150.279C157.463 153.392 156.058 155.306 154.82 156.995C153.722 158.492 152.775 159.784 153.485 161.584C154.288 163.62 156.033 167.242 156.388 167.977L161.547 167.822L171.622 163.951C174.69 155.348 175.513 147.453 174.072 140.479C173.728 138.812 173.315 137.472 172.918 136.176C172.116 133.565 171.425 131.31 171.638 127.498C171.781 124.935 172.265 123.045 172.694 121.377C173.302 119.011 173.827 116.966 173.309 113.68C173.042 111.987 172.678 111.13 172.294 110.223C171.835 109.139 171.361 108.019 170.969 105.437C170.857 104.699 170.779 104.021 170.703 103.367C170.453 101.189 170.256 99.4688 169.02 97.5885C168.278 96.4616 167.272 94.9309 166.107 94.9309ZM156.245 168.424C156.157 168.424 156.077 168.376 156.038 168.298C156.018 168.254 153.956 164.021 153.057 161.742C152.26 159.721 153.323 158.272 154.447 156.739C155.635 155.12 156.981 153.283 156.496 150.348C155.856 146.48 155.191 144.749 154.606 143.223C154.034 141.732 153.541 140.446 153.284 137.592C153.055 135.044 153.246 133.806 153.467 132.371C153.702 130.853 153.967 129.134 153.869 125.398C153.815 123.36 153.681 121.845 153.573 120.628C153.365 118.289 153.24 116.878 153.955 114.652C154.517 112.906 155.112 112.152 156.011 111.01C156.72 110.113 157.6 108.998 158.83 106.964C160.792 103.721 161.949 100.925 162.793 98.8822C163.891 96.2237 164.555 94.6194 165.947 94.4952C167.443 94.3612 168.576 96.0898 169.406 97.3498C170.699 99.3179 170.902 101.082 171.158 103.317C171.233 103.968 171.31 104.643 171.42 105.372C171.805 107.9 172.269 108.995 172.717 110.055C173.112 110.987 173.485 111.869 173.761 113.614C174.293 116.988 173.757 119.072 173.138 121.484C172.694 123.214 172.234 125.001 172.095 127.522C171.886 131.258 172.567 133.479 173.356 136.049C173.757 137.354 174.171 138.705 174.52 140.393C175.983 147.47 175.143 155.477 172.02 164.193C171.998 164.253 171.95 164.301 171.888 164.325L161.679 168.249C161.653 168.258 161.627 168.263 161.601 168.265L156.252 168.424H156.245Z" fill="#353131"/>
<path d="M161.102 156.081C160.978 156.081 160.876 155.985 160.874 155.864C160.227 127.797 161.312 122.109 162.814 114.233L162.913 113.718C164.456 105.609 165.216 99.6951 165.223 99.6356C165.239 99.514 165.353 99.4262 165.478 99.4422C165.602 99.4581 165.692 99.5682 165.676 99.6897C165.669 99.7492 164.908 105.677 163.362 113.798L163.264 114.314C161.767 122.163 160.686 127.834 161.331 155.855C161.334 155.977 161.234 156.079 161.108 156.081H161.102Z" fill="#353131"/>
<path d="M174.635 172.764C175.301 170.866 176.21 167.959 176.891 164.336C177.96 158.633 177.386 156.879 177.981 152.873C179.189 144.731 182.555 145.242 184.674 136.37C186.586 128.369 183.761 128.308 186.043 121.489C186.672 119.611 188.246 115.552 186.651 111.765C186.218 110.735 185.858 110.458 185.529 110.407C183.963 110.172 182.842 115.069 179.046 120.458C175.721 125.177 174.671 124.131 172.657 127.678C170.194 132.014 171.341 134.319 169.614 140.938C168.048 146.944 166.823 146.125 165.355 151.4C162.455 161.823 165.117 172.663 165.123 172.764H174.635Z" fill="#FF7823"/>
<path d="M167.123 162.523L167.105 162.521C166.981 162.512 166.886 162.406 166.893 162.284C167.807 150.005 174.228 133.072 178.074 127.26C181.818 121.605 184.713 112.815 184.743 112.727C184.78 112.61 184.908 112.546 185.028 112.583C185.149 112.62 185.215 112.743 185.179 112.861C185.149 112.949 182.235 121.794 178.459 127.5C174.638 133.273 168.259 150.105 167.351 162.316C167.342 162.433 167.242 162.523 167.123 162.523Z" fill="white"/>
<path d="M149.535 161.039C150.34 157.895 147.008 154.373 146.36 151.601C145.221 146.724 145.785 142.414 145.144 139.126C144.627 136.474 144.04 137.87 140.428 130.138C140.428 130.138 138.462 125.929 138.132 122.206C138.04 121.169 138.038 120.557 138.038 120.557C138.022 119.67 138.084 119.231 137.991 118.035C137.644 113.571 136.178 111.919 137.375 109.878C137.648 109.414 137.94 108.917 138.51 108.74C139.924 108.301 141.756 110.136 145.434 114.545C149.934 119.938 152.183 122.635 152.597 123.95C153.578 127.062 153.713 131.329 154.614 134.348C154.738 134.759 155.158 136.186 155.978 137.653C156.781 139.09 157.323 139.786 157.834 140.567C159.182 142.628 158.699 143.402 160.135 148.881C161.018 152.247 161.329 152.449 161.558 154.326C161.842 156.651 161.64 158.608 161.414 159.928C157.454 160.298 153.494 160.669 149.535 161.039Z" fill="#FF7823"/>
<path d="M156.852 150.797C156.743 150.797 156.646 150.722 156.627 150.615C153.301 133.036 140.687 113.854 140.561 113.662C140.492 113.559 140.523 113.422 140.63 113.356C140.735 113.289 140.878 113.319 140.946 113.422C141.072 113.616 153.733 132.869 157.076 150.536C157.1 150.657 157.017 150.772 156.893 150.794C156.878 150.796 156.864 150.797 156.852 150.797Z" fill="white"/>
<path d="M151.481 183.779H174.137L176.156 168.378H149.463L151.481 183.779Z" fill="white"/>
<path d="M151.682 183.558H173.935L175.896 168.599H149.722L151.682 183.558ZM174.137 184H151.481C151.365 184 151.269 183.917 151.254 183.807L149.235 168.407C149.228 168.343 149.248 168.28 149.291 168.232C149.334 168.184 149.396 168.156 149.463 168.156H176.156C176.221 168.156 176.283 168.184 176.327 168.232C176.371 168.28 176.39 168.343 176.382 168.407L174.364 183.807C174.349 183.917 174.252 184 174.137 184Z" fill="#353131"/>
<path d="M148.197 168.378H177.42L178.901 157.049H146.716L148.197 168.378Z" fill="white"/>
<path d="M148.398 168.156H177.22L178.642 157.27H146.975L148.398 168.156ZM177.421 168.599H148.198C148.082 168.599 147.984 168.517 147.969 168.407L146.49 157.077C146.481 157.013 146.501 156.95 146.545 156.901C146.588 156.854 146.651 156.828 146.716 156.828H178.901C178.968 156.828 179.03 156.854 179.073 156.901C179.117 156.95 179.137 157.013 179.128 157.077L177.647 168.407C177.632 168.517 177.536 168.599 177.421 168.599Z" fill="#353131"/>
<path d="M178.901 157.049L177.421 168.378H176.156L174.137 183.779L171.343 183.777L172.378 169.697L152.256 168.378H172.903L173.548 157.049H178.901Z" fill="#FF7823"/>
<path d="M136.406 152.02H35.6023C33.6149 152.02 32.2469 153.954 32.9671 155.75L38.583 169.758C39.5075 172.062 41.7982 173.581 44.3509 173.581H127.656C130.209 173.581 132.501 172.062 133.424 169.758L139.041 155.75C139.761 153.954 138.393 152.02 136.406 152.02Z" fill="#CACACA"/>
<path d="M35.6021 152.242C34.7307 152.242 33.95 152.64 33.458 153.337C32.966 154.033 32.8642 154.883 33.1794 155.669L38.7962 169.677C39.6933 171.914 41.8731 173.359 44.3507 173.359H127.656C130.135 173.359 132.315 171.914 133.212 169.677L138.828 155.669C139.143 154.883 139.042 154.033 138.55 153.337C138.059 152.64 137.276 152.242 136.406 152.242H35.6021ZM127.656 173.803H44.3507C41.6834 173.803 39.3359 172.246 38.3702 169.838L32.7534 155.829C32.3878 154.919 32.5106 153.893 33.0805 153.086C33.6504 152.279 34.5933 151.798 35.6021 151.798H136.406C137.415 151.798 138.357 152.279 138.926 153.086C139.497 153.893 139.619 154.918 139.255 155.829L133.638 169.838C132.672 172.246 130.324 173.803 127.656 173.803Z" fill="#353131"/>
<path d="M18.2532 130.938L13.3126 133.694C11.6615 134.615 10.9523 136.564 11.6413 138.284L23.3056 167.374C23.8819 168.81 25.3095 169.758 26.9011 169.758H32.9467C35.6589 169.758 37.5244 167.117 36.5431 164.668L23.7738 132.824C22.9189 130.689 20.3011 129.796 18.2532 130.938Z" fill="#353131"/>
<path d="M18.2534 130.939H18.2561H18.2534ZM20.1776 130.662C19.549 130.662 18.925 130.819 18.367 131.13L13.4264 133.885C11.8623 134.758 11.2017 136.574 11.855 138.204L23.5183 167.293C24.0644 168.656 25.3921 169.536 26.9012 169.536H32.9468C34.1628 169.536 35.255 168.978 35.9413 168.006C36.6285 167.034 36.7696 165.847 36.3298 164.748L23.5605 132.903C23.1775 131.947 22.384 131.202 21.3852 130.861C20.9921 130.726 20.5844 130.662 20.1776 130.662ZM32.9468 169.979H26.9012C25.2024 169.979 23.7071 168.988 23.0922 167.455L11.4289 138.364C10.6931 136.529 11.4372 134.484 13.1982 133.502L18.1398 130.747C19.1733 130.169 20.4121 130.059 21.5364 130.442C22.6616 130.828 23.555 131.665 23.9875 132.743L36.7558 164.588C37.2442 165.806 37.0811 167.178 36.3188 168.257C35.5564 169.335 34.2956 169.979 32.9468 169.979Z" fill="#353131"/>
<path d="M153.751 130.938L158.693 133.694C160.343 134.615 161.053 136.564 160.362 138.284L148.699 167.374C148.122 168.81 146.695 169.758 145.102 169.758H139.058C136.345 169.758 134.48 167.117 135.462 164.668L148.231 132.824C149.085 130.689 151.702 129.796 153.751 130.938Z" fill="#FFF9F2"/>
<path d="M151.827 130.662C151.42 130.662 151.012 130.726 150.62 130.861C149.621 131.202 148.827 131.947 148.443 132.903L135.675 164.748C135.235 165.847 135.376 167.034 136.063 168.006C136.75 168.978 137.842 169.536 139.058 169.536H145.102C146.612 169.536 147.94 168.656 148.486 167.293L160.149 138.204C160.804 136.574 160.142 134.758 158.578 133.885L153.637 131.13C153.079 130.819 152.455 130.662 151.827 130.662ZM145.102 169.979H139.058C137.709 169.979 136.447 169.335 135.685 168.257C134.923 167.178 134.76 165.806 135.249 164.588L148.017 132.743C148.449 131.665 149.342 130.828 150.467 130.442C151.592 130.059 152.831 130.169 153.865 130.747L158.806 133.502C160.566 134.484 161.312 136.529 160.576 138.364L148.912 167.455C148.296 168.988 146.802 169.979 145.102 169.979Z" fill="#353131"/>
<path d="M147.233 117.569H24.7743C22.424 117.569 20.8086 119.856 21.6589 121.977L28.2974 138.532C29.3896 141.256 32.0972 143.051 35.1145 143.051H136.893C139.911 143.051 142.618 141.256 143.71 138.532L150.348 121.977C151.199 119.856 149.583 117.569 147.233 117.569Z" fill="#FFF9F2"/>
<path d="M24.7745 117.79C23.7309 117.79 22.7944 118.269 22.2062 119.102C21.6161 119.935 21.4952 120.955 21.8727 121.896L28.5102 138.453C29.5767 141.111 32.1689 142.83 35.1148 142.83H136.893C139.838 142.83 142.431 141.111 143.498 138.453L150.135 121.896C150.513 120.954 150.392 119.935 149.802 119.102C149.214 118.269 148.277 117.79 147.234 117.79H24.7745ZM136.893 143.273H35.1148C31.9783 143.273 29.2194 141.444 28.085 138.612L21.4466 122.057C21.0196 120.993 21.1625 119.795 21.8278 118.852C22.4939 117.91 23.5953 117.348 24.7745 117.348H147.234C148.413 117.348 149.513 117.91 150.18 118.852C150.846 119.794 150.989 120.993 150.562 122.057L143.924 138.612C142.789 141.444 140.03 143.273 136.893 143.273Z" fill="#353131"/>
<path d="M45.9248 173.582L50.0142 183.779H53.2349L57.3243 173.582H45.9248Z" fill="#FFF9F2"/>
<path d="M50.1708 183.558H53.0791L56.9898 173.803H46.2592L50.1708 183.558ZM53.2348 184H50.0141C49.9197 184 49.8354 183.944 49.8015 183.86L45.7113 173.661C45.6847 173.593 45.6938 173.516 45.736 173.456C45.7791 173.395 45.8496 173.359 45.9247 173.359H57.3242C57.3993 173.359 57.4699 173.395 57.513 173.456C57.5551 173.516 57.5652 173.593 57.5377 173.661L53.4483 183.86C53.4144 183.944 53.3301 184 53.2348 184Z" fill="#353131"/>
<path d="M114.683 173.582L118.772 183.779H121.993L126.083 173.582H114.683Z" fill="#FFF9F2"/>
<path d="M118.928 183.558H121.837L125.748 173.803H115.017L118.928 183.558ZM121.993 184H118.772C118.677 184 118.593 183.944 118.559 183.86L114.47 173.661C114.443 173.593 114.452 173.516 114.494 173.456C114.538 173.395 114.608 173.359 114.682 173.359H126.083C126.158 173.359 126.228 173.395 126.271 173.456C126.314 173.516 126.323 173.593 126.295 173.661L122.207 183.86C122.172 183.944 122.087 184 121.993 184Z" fill="#353131"/>
<path d="M38.5826 169.758C38.6311 169.877 38.6852 169.994 38.7411 170.11L96.5841 162.8L102.646 166.73L105.39 164.052V159.984H34.6646L38.5826 169.758Z" fill="#353131"/>
<path d="M23.3055 167.374C23.8819 168.81 25.3094 169.758 26.901 169.758H32.9466C35.6588 169.758 37.5244 167.117 36.543 164.668L34.6647 159.984H20.3423L23.3055 167.374Z" fill="#353131"/>
<path d="M124.858 176.636L126.083 173.582H114.683L116 176.868L124.858 176.636Z" fill="#353131"/>
<path d="M55.1792 178.931L57.3243 173.582H45.9248L48.144 179.116L55.1792 178.931Z" fill="#353131"/>
<path d="M104.841 159.164L111.084 163.967L107.362 167.635L101.206 163.232L104.841 159.164Z" fill="#A3B4FF"/>
<path d="M104.656 165.878C104.656 165.878 104.192 166.945 104.218 167.176C104.244 167.406 106.758 171.652 106.758 171.652C106.758 171.652 106.58 172.105 106.598 172.231C106.617 172.356 107.723 173.546 107.723 173.546L127.077 162.676C127.077 162.676 126.7 161.621 126.239 161.744C126.239 161.744 125.019 160.879 124.771 160.747C124.524 160.614 119.941 162.153 119.034 162.28C118.13 162.41 111.012 161.404 110.32 161.561C109.628 161.717 106.927 166.307 106.927 166.307L104.656 165.878Z" fill="#465EBD"/>
<path d="M106.758 171.652C106.758 171.652 106.58 172.105 106.598 172.231C106.617 172.356 107.723 173.546 107.723 173.546L116.002 168.896L104.218 167.176C104.243 167.406 106.758 171.652 106.758 171.652Z" fill="#0E2E7D"/>
<path d="M114.449 151.806L122.384 151.893L122.129 156.538L114.921 156.223L114.449 151.806Z" fill="#A3B4FF"/>
<path d="M118.122 155.601C118.122 155.601 118.062 156.759 118.166 156.967C118.272 157.176 122.128 160.339 122.128 160.339C122.128 160.339 122.119 160.823 122.182 160.935C122.243 161.046 123.701 161.8 123.701 161.8L138.079 145.197C138.079 145.197 137.352 144.33 136.963 144.598C136.963 144.598 135.512 144.187 135.232 144.144C134.953 144.101 131.184 147.058 130.378 147.479C129.571 147.898 122.527 149.299 121.93 149.676C121.334 150.051 120.409 155.257 120.409 155.257L118.122 155.601Z" fill="#465EBD"/>
<path d="M122.129 160.339C122.129 160.339 122.119 160.823 122.183 160.935C122.243 161.046 123.701 161.8 123.701 161.8L129.851 154.698L118.167 156.967C118.272 157.176 122.129 160.339 122.129 160.339Z" fill="#0E2E7D"/>
<path d="M50.6465 136.477L88.3652 136.444C90.0035 142.457 90.5762 146.075 86.1808 148.378C86.1808 148.378 52.6971 148.586 50.6465 136.477Z" fill="#465EBD"/>
<path d="M32.0433 136.822C32.0433 136.822 25.4699 158.044 45.2918 158.044C65.1146 158.044 74.2326 158.044 74.2326 158.044H116.495C116.495 158.044 119.298 158.465 116.495 149.112L61.4697 140.368L50.6466 136.477L32.0433 136.822Z" fill="#465EBD"/>
<path d="M108.415 160.28C103.556 153.655 97.8195 145.432 93.4149 140.582C91.3111 138.264 90.382 136.444 88.3653 136.444L77.938 142.985L102.646 166.73C103.701 167.93 108.415 160.28 108.415 160.28Z" fill="#465EBD"/>
<path d="M32.043 136.822C32.043 136.822 31.4639 138.691 31.168 141.321L90.0326 136.956L90.0079 136.939L90.0051 136.937C89.5177 136.623 88.9945 136.444 88.365 136.444L50.6463 136.477L32.043 136.822Z" fill="#0E2E7D"/>
<path d="M90.5833 155.38C90.5237 155.38 90.4651 155.358 90.4211 155.316L77.8287 143.192L68.8216 141.761C68.697 141.741 68.6127 141.627 68.6329 141.506C68.653 141.385 68.7694 141.301 68.8958 141.324L77.9753 142.767C78.022 142.774 78.066 142.796 78.0999 142.828L90.7436 155.002C90.8325 155.088 90.8325 155.229 90.7446 155.315C90.7006 155.358 90.641 155.38 90.5833 155.38Z" fill="#353131"/>
<path d="M114.822 153.775H114.819L103.699 153.646C103.573 153.644 103.472 153.544 103.473 153.422C103.474 153.3 103.578 153.212 103.704 153.203L114.824 153.333C114.951 153.334 115.051 153.435 115.05 153.558C115.048 153.679 114.946 153.775 114.822 153.775Z" fill="#0E2E7D"/>
<path d="M88.5969 153.469H88.5942L46.3921 152.974C39.1828 153.146 38.7632 146.21 38.7595 146.139C38.754 146.017 38.8511 145.914 38.9776 145.908C39.1013 145.898 39.2103 145.997 39.2167 146.118C39.2296 146.384 39.6153 152.535 46.1356 152.535C46.2199 152.535 46.3032 152.534 46.3894 152.532L88.6006 153.025C88.7261 153.028 88.8278 153.128 88.8251 153.25C88.8242 153.371 88.7215 153.469 88.5969 153.469Z" fill="#353131"/>
<path d="M25.7413 99.7456C25.7413 99.7456 36.8329 99.042 41.2988 100.113C45.7657 101.183 51.7142 107.874 54.3787 111.664C57.0433 115.454 63.7935 125.094 63.7935 125.094L87.5802 129.543C87.5802 129.543 91.1051 134.119 88.3654 136.444H62.3229C62.3229 136.444 58.5753 136.358 57.1496 134.342C55.7238 132.326 53.7685 129.563 53.7685 129.563C53.7685 129.563 56.2782 134.17 56.5017 135.012C56.7244 135.853 55.7999 137.656 55.7999 137.656C55.7999 137.656 41.0606 147.834 30.998 143.817L29.8032 140.666C29.8032 140.666 27.485 139.824 25.7413 136.444C23.9976 133.065 25.7413 99.7456 25.7413 99.7456Z" fill="#FF7823"/>
<path d="M38.271 74.3773C39.1323 74.2575 39.957 74.5725 40.1971 76.0393C39.6839 75.2647 39.0169 74.7314 38.271 74.3773ZM37.9238 74.2282C35.1905 73.1581 31.6207 74.2557 30.7117 74.8103C30.3287 75.0446 29.6635 75.4341 28.8856 75.9177C28.6537 74.5459 28.147 72.2681 27.2757 71.7552C26.0084 71.009 23.7727 72.6213 23.5253 73.9798C23.2761 75.3392 24.1704 75.388 24.1704 75.388C24.1704 75.388 23.5455 76.9267 25.8472 77.9959C24.5177 79.0297 23.43 80.1247 23.3347 81.0173C23.2184 82.1088 23.6692 84.4771 24.1273 86.4931C22.8821 84.6856 22.2975 82.1744 23.4813 79.5745C23.4813 79.5745 21.2887 83.1425 23.2092 86.746L23.211 86.7514C23.3476 87.0069 23.5052 87.2625 23.6857 87.518C27.7759 94.3754 22.6768 93.481 22.6768 93.481C24.8274 93.8741 26.112 93.7135 26.8175 93.2325C26.9174 94.552 26.9485 97.0179 25.959 98.2664C25.959 98.2664 27.9959 96.6311 27.9216 93.095C27.8932 91.7817 27.721 91.3416 27.5166 91.3061C27.4727 90.9787 27.3819 90.6344 27.2619 90.2874L28.5502 90.5093L40.8879 86.1417C40.8879 86.1417 40.9933 84.761 41.0868 83.2313C41.0868 83.2313 42.5217 72.5804 37.9238 74.2282Z" fill="#353131"/>
<path d="M29.8313 91.3522L26.7251 91.8438L26.9267 93.2219L27.7458 99.6267C37.0763 103.294 36.1619 101.195 36.1619 101.195C36.1481 100.245 36.577 99.7652 37.2889 99.1636L29.8313 91.3522Z" fill="#F8A6B3"/>
<path d="M40.7634 84.6386L40.5664 83.4983C40.1971 80.9312 29.5197 83.3271 29.5197 83.3271L29.1092 85.4567L28.4944 85.9971L28.5503 90.5093L27.0659 89.9467L27.2464 90.2564C27.2464 90.2564 27.9547 94.6585 28.1031 96.0543C28.2525 97.4492 33.5184 99.4706 34.3632 99.5673C35.208 99.6631 37.6178 99.6817 38.3123 99.3259C39.7097 98.6098 39.0573 97.4554 39.2818 96.5352C39.455 95.8209 40.5352 91.9521 40.5847 91.2307C40.6351 90.5093 40.0267 88.2873 40.0267 88.2873C40.0267 88.2873 40.7918 87.0557 40.888 86.1417C40.9201 85.8356 40.8587 85.2633 40.7634 84.6386Z" fill="#FFC9D2"/>
<path d="M27.1779 89.5403C27.1779 89.5403 26.1105 87.6751 24.4731 88.2891C23.7914 88.5438 23.5953 90.1117 24.6756 91.7356C25.7568 93.3594 26.9782 94.2681 27.7085 93.2183C27.7085 93.2183 27.4427 90.283 27.1779 89.5403Z" fill="#FFC9D2"/>
<path d="M39.6171 95.2601C39.6171 95.2601 40.034 93.9371 39.5172 93.8412C39.0004 93.7445 36.1022 93.7685 35.4563 93.9131C35.1246 93.9868 34.8066 94.3399 34.5748 94.6656C34.3118 95.0356 33.8803 95.2601 33.4166 95.2601C33.008 95.2601 32.6204 95.088 32.3537 94.788L28.5503 90.5093C28.5503 90.5093 26.8368 88.668 27.1777 89.5403C27.5176 90.4134 27.7128 96.3542 28.159 96.86C28.6071 97.3649 31.0471 99.2958 34.0654 99.9098C37.0827 100.523 39.2249 99.6037 39.5236 99.0615C39.8214 98.5202 39.4485 96.7331 39.4485 96.4456C39.4485 96.1563 39.6171 95.2601 39.6171 95.2601Z" fill="#353131"/>
<path d="M35.4884 87.4168L35.4902 87.6387L33.8757 87.6484C33.2041 87.6529 32.6506 88.1933 32.6415 88.8543C32.6396 88.9883 32.6506 89.1268 32.6745 89.2616C32.8183 90.1002 33.4634 90.7719 34.2798 90.9334C34.8809 91.0505 35.4728 90.9103 35.9465 90.5359C36.4514 90.1357 36.7409 89.5323 36.7409 88.8819V88.8481C36.7308 88.1791 36.1737 87.6387 35.4984 87.6387H35.4902L35.4884 87.4168ZM34.6967 91.417C34.529 91.417 34.3595 91.401 34.1891 91.3664C33.1876 91.1694 32.3977 90.3531 32.2237 89.3353C32.1952 89.1738 32.1824 89.0096 32.1843 88.8481C32.1962 87.9475 32.953 87.2119 33.872 87.2057L35.4874 87.195H35.4984C36.423 87.195 37.1835 87.9306 37.1981 88.841V88.8819C37.1981 89.6663 36.8472 90.3948 36.2351 90.8793C35.788 91.2333 35.2547 91.417 34.6967 91.417Z" fill="#353131"/>
<path d="M40.8204 87.4168L40.8222 87.6387L39.5303 87.6484C39.0181 87.6529 38.5957 88.1933 38.5893 88.8526C38.5874 88.991 38.5966 89.1303 38.6158 89.2687C38.7295 90.0957 39.2472 90.7817 39.8739 90.9352C40.3595 91.055 40.7389 90.8731 40.9698 90.6982C41.4673 90.3238 41.7761 89.6281 41.7761 88.8819L41.7752 88.8481C41.7669 88.1791 41.3427 87.6387 40.8277 87.6387H40.8222L40.8204 87.4168ZM40.1809 91.4161C40.0407 91.4161 39.9005 91.3984 39.7612 91.3646C38.9448 91.1632 38.3025 90.3451 38.1623 89.3273C38.1403 89.1676 38.1302 89.007 38.132 88.8481C38.1412 87.9493 38.767 87.2119 39.5266 87.2057L40.8177 87.195H40.8277C41.5919 87.195 42.2214 87.9315 42.2324 88.8419V88.8819C42.2324 89.7754 41.8659 90.5847 41.2511 91.0479C40.9285 91.2901 40.5584 91.4161 40.1809 91.4161Z" fill="#353131"/>
<path d="M38.3609 89.1978C38.2729 89.1978 38.1895 89.149 38.1511 89.0665C37.922 88.5651 37.7525 88.5198 37.7057 88.5181C37.6636 88.519 37.4703 88.5509 37.1697 89.0824C37.1092 89.1898 36.97 89.2288 36.86 89.1694C36.7491 89.1117 36.7088 88.9768 36.7693 88.8686C37.079 88.322 37.3905 88.0567 37.725 88.0753C38.0493 88.0886 38.3251 88.3539 38.5689 88.8863C38.6202 88.9981 38.5689 89.1286 38.4525 89.1791C38.4232 89.1907 38.3911 89.1978 38.3609 89.1978Z" fill="#353131"/>
<path d="M40.5948 87.6493L33.3306 87.6387H27.1163C26.9908 87.6387 26.8882 87.5384 26.8882 87.4168C26.8882 87.2944 26.9908 87.195 27.1163 87.195H33.3306L40.5957 87.2057C40.7213 87.2065 40.8239 87.305 40.8239 87.4284C40.8239 87.5499 40.7213 87.6493 40.5948 87.6493Z" fill="#353131"/>
<path d="M51.5784 132.198C51.5784 132.198 57.5892 132.428 59.0186 132.339C59.0186 132.339 61.4761 133.82 66.3021 134.669C67.836 134.94 66.4112 136.05 65.3345 136.05C64.257 136.05 58.4734 136.05 58.4734 136.05L58.0959 137.39H53.4174C53.4174 137.39 51.4859 135.58 51.5784 132.198Z" fill="#F8A6B3"/>
<path d="M25.7412 99.7457C25.7412 99.7457 12.3864 99.7457 13.4923 115.289C14.3509 127.353 15.7894 135.969 19.5746 138.524C23.3598 141.077 53.4174 137.39 53.4174 137.39L53.302 132.257L29.1433 128.128L25.6285 114.038L25.7412 99.7457Z" fill="#FF7823"/>
<path d="M96.3379 111.872H64.4293C63.6312 111.872 62.9064 112.46 62.7553 113.23L58.3424 135.493C58.3021 135.7 58.3076 135.9 58.3489 136.084H46.418C47.2582 137.079 48.5153 137.656 49.8421 137.656H90.4544C90.8759 137.656 91.2873 137.568 91.6639 137.401C91.9186 137.288 92.7882 136.698 92.9449 136.514C93.1217 136.305 93.25 136.052 93.3041 135.778L97.7169 113.513C97.89 112.633 97.2505 111.872 96.3379 111.872Z" fill="white"/>
<path d="M46.9394 136.306C47.7164 137.028 48.75 137.435 49.8422 137.435H90.4545C90.8402 137.435 91.2159 137.356 91.5687 137.2C91.8142 137.091 92.6435 136.52 92.7672 136.373C92.9257 136.186 93.0338 135.966 93.0796 135.736L97.4915 113.472C97.5621 113.113 97.475 112.758 97.2515 112.495C97.0297 112.236 96.7054 112.093 96.3379 112.093H64.4294C63.7467 112.093 63.109 112.611 62.9798 113.271L58.567 135.536C58.534 135.704 58.5358 135.874 58.5725 136.037C58.5872 136.103 58.5707 136.171 58.5276 136.224C58.4836 136.276 58.4186 136.306 58.3489 136.306H46.9394ZM90.4545 137.878H49.8422C48.4412 137.878 47.1291 137.275 46.2412 136.224C46.1853 136.158 46.1734 136.066 46.2119 135.989C46.2494 135.912 46.3291 135.862 46.418 135.862H58.0887C58.0814 135.727 58.0905 135.59 58.118 135.452L62.5299 113.187C62.7031 112.311 63.5195 111.651 64.4294 111.651H96.3379C96.8364 111.651 97.2982 111.856 97.6042 112.214C97.9139 112.578 98.0376 113.066 97.9414 113.555L93.5277 135.82C93.4691 136.121 93.3279 136.411 93.1218 136.655C92.9294 136.881 92.0241 137.485 91.7584 137.603C91.3451 137.784 90.9062 137.878 90.4545 137.878Z" fill="#353131"/>
<path d="M53.3017 132.479C53.2888 132.479 53.276 132.478 53.2623 132.475L50.9349 132.078C50.879 132.068 50.8295 132.039 50.7947 131.995C48.6955 129.376 41.7767 129.142 35.6715 128.936C34.233 128.888 32.8741 128.841 31.5748 128.767L31.5483 128.764C29.9732 128.496 28.7124 127.348 28.3376 125.842L26.1413 117.039C25.9379 116.225 26.0075 115.37 26.3355 114.634C26.6663 113.892 26.8395 113.032 26.8413 113.023C26.8651 112.903 26.9843 112.824 27.1089 112.848C27.2335 112.871 27.3141 112.988 27.2903 113.107C27.283 113.144 27.1052 114.024 26.7552 114.808C26.4656 115.458 26.4061 116.212 26.5857 116.935L28.782 125.739C29.1137 127.07 30.2251 128.083 31.6151 128.325C32.9053 128.399 34.2568 128.444 35.688 128.493C42.1423 128.711 48.8156 128.937 51.0999 131.656L53.342 132.04C53.4657 132.061 53.5491 132.175 53.5271 132.296C53.5078 132.403 53.4116 132.479 53.3017 132.479Z" fill="#353131"/>
<path d="M26.8097 139.648C23.1968 139.648 20.4543 139.386 19.4437 138.705C19.3401 138.635 19.3145 138.497 19.3869 138.397C19.4592 138.296 19.6013 138.272 19.7048 138.342C21.5795 139.605 30.8752 139.481 45.8793 137.989C46.0048 137.98 46.1166 138.065 46.1294 138.187C46.1423 138.309 46.0515 138.417 45.926 138.43C39.5258 139.066 32.1992 139.648 26.8097 139.648Z" fill="#353131"/>
<path d="M55.076 132.242C54.9926 132.242 54.9129 132.198 54.8726 132.12C54.8726 132.12 54.3971 131.216 53.566 129.666C53.0254 128.658 52.3812 124.988 51.7582 121.44C51.4008 119.407 51.0636 117.486 50.7814 116.287C50.0319 113.102 48.1444 109.787 48.1251 109.753C48.0637 109.647 48.1031 109.513 48.214 109.452C48.3249 109.393 48.4632 109.432 48.5246 109.538C48.5439 109.572 50.4635 112.94 51.2277 116.188C51.5126 117.4 51.8507 119.327 52.2081 121.366C52.7972 124.716 53.4643 128.516 53.9719 129.461C54.8039 131.014 55.2794 131.919 55.2794 131.919C55.3372 132.028 55.2923 132.162 55.1796 132.217C55.1466 132.233 55.1118 132.242 55.076 132.242Z" fill="#353131"/>
<path d="M35.244 102.007C33.8833 102.007 31.3452 101.281 27.6599 99.8317C27.5426 99.7865 27.4858 99.656 27.5335 99.5433C27.5811 99.4306 27.714 99.3756 27.8313 99.4209C34.5412 102.059 35.7168 101.621 35.9174 101.425C35.9816 101.361 35.9513 101.283 35.9513 101.282C35.9019 101.169 35.9568 101.039 36.0732 100.991C36.1896 100.944 36.3233 100.997 36.3728 101.109C36.4287 101.239 36.4654 101.517 36.2427 101.735C36.0576 101.917 35.7241 102.007 35.244 102.007Z" fill="#353131"/>
<path d="M30.9976 144.038C30.9041 144.038 30.8171 143.983 30.7832 143.893L29.6223 140.832C29.3657 140.721 28.6492 140.367 27.7934 139.576C27.7017 139.491 27.6981 139.351 27.7851 139.262C27.8731 139.174 28.0179 139.171 28.1086 139.255C29.0881 140.16 29.8752 140.455 29.8834 140.458C29.9448 140.482 29.9943 140.529 30.0172 140.589L31.212 143.74C31.256 143.856 31.1946 143.983 31.0764 144.025C31.0507 144.034 31.0242 144.038 30.9976 144.038Z" fill="#728BE8"/>
<path d="M111.857 155.129H11.042V159.984H15.2138L16.3262 183.779H17.5082V159.984H34.5648L35.678 183.779H36.86V159.984H86.0387V183.779H87.2207L88.3321 159.984H105.39V183.779H106.573L107.684 159.984H111.857V155.129Z" fill="white"/>
<path d="M105.619 183.558H106.354L107.456 159.974C107.462 159.856 107.562 159.762 107.684 159.762H111.628V155.35H11.2702V159.762H15.2139C15.3358 159.762 15.4365 159.856 15.442 159.974L16.5443 183.558H17.2792V159.984C17.2792 159.862 17.3818 159.762 17.5083 159.762H34.5648C34.6876 159.762 34.7884 159.856 34.793 159.974L35.8962 183.558H36.631V159.984C36.631 159.862 36.7337 159.762 36.8601 159.762H86.0387C86.1652 159.762 86.2669 159.862 86.2669 159.984V183.558H87.0017L88.104 159.974C88.1105 159.856 88.2094 159.762 88.3322 159.762H105.39C105.517 159.762 105.619 159.862 105.619 159.984V183.558ZM106.573 184H105.39C105.263 184 105.162 183.901 105.162 183.779V160.206H88.5521L87.4489 183.789C87.4434 183.907 87.3417 184 87.2207 184H86.0387C85.9123 184 85.8097 183.901 85.8097 183.779V160.206H37.0883V183.779C37.0883 183.901 36.9856 184 36.8601 184H35.6781C35.5553 184 35.4545 183.907 35.45 183.789L34.3467 160.206H17.7364V183.779C17.7364 183.901 17.6347 184 17.5083 184H16.3263C16.2035 184 16.1036 183.907 16.0972 183.789L14.9949 160.206H11.0421C10.9156 160.206 10.813 160.106 10.813 159.984V155.129C10.813 155.007 10.9156 154.908 11.0421 154.908H111.857C111.983 154.908 112.085 155.007 112.085 155.129V159.984C112.085 160.106 111.983 160.206 111.857 160.206H107.903L106.801 183.789C106.794 183.907 106.694 184 106.573 184Z" fill="#353131"/>
<path d="M68.3774 107.633H123.163L129.855 55.9037H75.07L68.3774 107.633Z" fill="#353131"/>
<path d="M68.6369 107.412H122.96L129.596 56.1246H75.2716L68.6369 107.412ZM123.163 107.854H68.3775C68.3125 107.854 68.2502 107.827 68.2062 107.78C68.1631 107.732 68.143 107.668 68.1512 107.606L74.8437 55.8753C74.8575 55.7652 74.9555 55.6827 75.0701 55.6827H129.855C129.921 55.6827 129.983 55.7102 130.027 55.7572C130.07 55.8043 130.09 55.8682 130.082 55.9312L123.389 107.66C123.375 107.772 123.278 107.854 123.163 107.854Z" fill="#353131"/>
<path d="M108.439 77.6082H89.2622L89.4711 75.9967H108.648L108.439 77.6082Z" fill="white"/>
<path d="M111.036 80.4832H91.8599L92.0688 78.8726H111.245L111.036 80.4832Z" fill="#FF7823"/>
<path d="M110.665 83.3599H91.4878L91.6958 81.7494H110.872L110.665 83.3599Z" fill="#FF7823"/>
<path d="M110.292 86.2358H91.1157L91.3237 84.6244H110.501L110.292 86.2358Z" fill="#FF7823"/>
<path d="M120.962 66.1037H83.5063L83.7143 64.4932H121.171L120.962 66.1037Z" fill="#FF7823"/>
<path d="M88.9857 63.2278H78.771L78.9799 61.6173H89.1946L88.9857 63.2278Z" fill="white"/>
<path d="M106.294 68.9796H86.103L86.311 67.369H106.503L106.294 68.9796Z" fill="#FF7823"/>
<path d="M105.921 71.8555H85.731L85.9399 70.2449H106.13L105.921 71.8555Z" fill="#FF7823"/>
<path d="M105.55 74.7314H85.3599L85.5669 73.1208H105.759L105.55 74.7314Z" fill="#FF7823"/>
<path d="M117.986 89.1117H90.7437L90.9516 87.5003H118.195L117.986 89.1117Z" fill="#FF7823"/>
<path d="M117.613 91.9876H90.3711L90.58 90.377H117.822L117.613 91.9876Z" fill="#FF7823"/>
<path d="M117.242 94.8635H90L90.208 93.2529H117.45L117.242 94.8635Z" fill="#FF7823"/>
<path d="M112.961 97.7393H89.627L89.8359 96.1297H113.17L112.961 97.7393Z" fill="#FF7823"/>
<path d="M95.7082 100.616H86.2861L86.4941 99.0056H95.9153L95.7082 100.616Z" fill="white"/>
<path d="M75.1696 69.4925H55.1571C53.1514 69.4925 51.3225 71.0675 51.0733 73.0099L48.6167 92.0985C48.3675 94.0409 49.7905 95.616 51.7962 95.616H71.8096C73.8153 95.616 75.6433 94.0409 75.8935 92.0985L78.3491 73.0099C78.5983 71.0675 77.1753 69.4925 75.1696 69.4925Z" fill="white"/>
<path d="M55.1573 69.7143C53.2661 69.7143 51.5361 71.2051 51.2997 73.0383L48.8441 92.126C48.7305 93.0063 48.9788 93.8315 49.5414 94.4491C50.0966 95.0587 50.8975 95.395 51.7963 95.395H71.8097C73.7 95.395 75.43 93.9034 75.6655 92.0719L78.122 72.9824C78.2347 72.1022 77.9882 71.2769 77.4256 70.6602C76.8685 70.0497 76.0686 69.7143 75.1698 69.7143H55.1573ZM71.8097 95.8378H51.7963C50.7646 95.8378 49.8419 95.4491 49.1978 94.7419C48.5472 94.0285 48.2604 93.0799 48.3905 92.0719L50.8462 72.9824C51.11 70.9371 53.0434 69.2715 55.1573 69.2715H75.1698C76.2015 69.2715 77.1242 69.6602 77.7674 70.3665C78.4189 71.0808 78.7057 72.0285 78.5756 73.0383L76.1199 92.126C75.857 94.1731 73.9227 95.8378 71.8097 95.8378Z" fill="#353131"/>
<path d="M61.3854 90.2794H58.9243L65.3685 74.829H67.8287L61.3854 90.2794Z" fill="#353131"/>
<path d="M55.9919 82.5737L59.6753 84.7628L59.3702 87.1374L53.3301 83.493L53.5729 81.6065L60.5495 77.9711L60.2434 80.3456L55.9919 82.5737Z" fill="#353131"/>
<path d="M70.9832 82.5249L67.0853 80.3066L67.3859 77.9711L73.6376 81.6065L73.3948 83.493L66.2075 87.1276L66.5081 84.7921L70.9832 82.5249Z" fill="#353131"/>
</g>
<defs>
<clipPath id="clip0_523_1594">
<rect width="190" height="184" rx="20" fill="white"/>
</clipPath>
</defs>
</svg>
