<svg width="630" height="493" viewBox="0 0 630 493" fill="none" xmlns="http://www.w3.org/2000/svg">
<path d="M608.567 1.03215H66.8386C61.1338 1.03215 56.5091 5.6601 56.5091 11.369V423.683C56.5091 429.392 61.1338 434.02 66.8386 434.02H608.567C614.272 434.02 618.896 429.392 618.896 423.683V11.369C618.896 5.6601 614.272 1.03215 608.567 1.03215Z" fill="#F4F1ED" stroke="#070707" stroke-width="2" stroke-linecap="round" stroke-linejoin="round"/>
<path d="M56.5091 33.4739H618.896" stroke="#070707" stroke-width="2" stroke-linecap="round" stroke-linejoin="round"/>
<path d="M126.659 14.3931H121.806C120.194 14.3931 118.887 15.701 118.887 17.3143V22.1708C118.887 23.7841 120.194 25.092 121.806 25.092H126.659C128.271 25.092 129.578 23.7841 129.578 22.1708V17.3143C129.578 15.701 128.271 14.3931 126.659 14.3931Z" fill="#1C0E0C"/>
<path d="M108.421 14.3931H103.568C101.956 14.3931 100.649 15.701 100.649 17.3143V22.1708C100.649 23.7841 101.956 25.092 103.568 25.092H108.421C110.033 25.092 111.34 23.7841 111.34 22.1708V17.3143C111.34 15.701 110.033 14.3931 108.421 14.3931Z" fill="#1C0E0C"/>
<path d="M90.1859 14.3931H85.3328C83.7206 14.3931 82.4137 15.701 82.4137 17.3143V22.1708C82.4137 23.7841 83.7206 25.092 85.3328 25.092H90.1859C91.7981 25.092 93.105 23.7841 93.105 22.1708V17.3143C93.105 15.701 91.7981 14.3931 90.1859 14.3931Z" fill="#1C0E0C"/>
<path d="M124.455 12.4299H119.602C117.99 12.4299 116.683 13.7378 116.683 15.3511V20.2076C116.683 21.8209 117.99 23.1287 119.602 23.1287H124.455C126.068 23.1287 127.374 21.8209 127.374 20.2076V15.3511C127.374 13.7378 126.068 12.4299 124.455 12.4299Z" fill="#353131" stroke="black" stroke-width="2" stroke-linecap="round" stroke-linejoin="round"/>
<path d="M106.217 12.4299H101.364C99.752 12.4299 98.4451 13.7378 98.4451 15.3511V20.2076C98.4451 21.8209 99.752 23.1287 101.364 23.1287H106.217C107.829 23.1287 109.136 21.8209 109.136 20.2076V15.3511C109.136 13.7378 107.829 12.4299 106.217 12.4299Z" fill="#FF7823" stroke="black" stroke-width="2" stroke-linecap="round" stroke-linejoin="round"/>
<path d="M87.9792 12.4299H83.1261C81.5139 12.4299 80.207 13.7378 80.207 15.3511V20.2076C80.207 21.8209 81.5139 23.1287 83.1261 23.1287H87.9792C89.5913 23.1287 90.8983 21.8209 90.8983 20.2076V15.3511C90.8983 13.7378 89.5913 12.4299 87.9792 12.4299Z" fill="#FF3200" stroke="black" stroke-width="2" stroke-linecap="round" stroke-linejoin="round"/>
<path d="M1.15198 394.449C3.23797 392.371 6.06152 391.204 9.00488 391.204C11.9483 391.204 14.7718 392.371 16.8578 394.449V394.449C18.9439 396.528 21.768 397.695 24.7121 397.695C27.6561 397.695 30.4803 396.528 32.5664 394.449L33.7184 393.302C35.8044 391.224 38.628 390.057 41.5713 390.057C44.5147 390.057 47.3383 391.224 49.4243 393.302L51.1384 395.009C53.2244 397.087 56.048 398.253 58.9913 398.253C61.9347 398.253 64.7582 397.087 66.8442 395.009L68.2579 393.6C70.344 391.521 73.1681 390.354 76.1122 390.354C79.0562 390.354 81.8804 391.521 83.9665 393.6" stroke="#070707" stroke-width="2" stroke-linecap="round" stroke-linejoin="round"/>
<path d="M68.2551 393.641C70.3412 391.563 73.1653 390.395 76.1094 390.395C79.0534 390.395 81.8776 391.563 83.9637 393.641L85.561 395.234C87.6471 397.313 90.4712 398.48 93.4152 398.48C96.3593 398.48 99.1834 397.313 101.27 395.234L102.244 394.265C104.33 392.187 107.153 391.021 110.096 391.021C113.04 391.021 115.863 392.187 117.949 394.265V394.265C120.035 396.344 122.86 397.511 125.804 397.511C128.748 397.511 131.572 396.344 133.658 394.265L134.807 393.115C136.893 391.036 139.717 389.869 142.661 389.869C145.606 389.869 148.43 391.036 150.516 393.115L152.23 394.825C154.316 396.903 157.14 398.07 160.083 398.07C163.026 398.07 165.85 396.903 167.936 394.825L169.349 393.413C171.436 391.334 174.26 390.167 177.204 390.167C180.148 390.167 182.972 391.334 185.058 393.413" stroke="#070707" stroke-width="2" stroke-linecap="round" stroke-linejoin="round"/>
<path d="M1.15198 403.059C3.23797 400.981 6.06152 399.815 9.00488 399.815C11.9483 399.815 14.7718 400.981 16.8578 403.059V403.059C18.9439 405.138 21.768 406.305 24.7121 406.305C27.6561 406.305 30.4803 405.138 32.5664 403.059L33.7324 401.901C35.8183 399.823 38.6419 398.656 41.5853 398.656C44.5286 398.656 47.3522 399.823 49.4382 401.901L51.1523 403.608C53.2383 405.686 56.0619 406.853 59.0052 406.853C61.9486 406.853 64.7722 405.686 66.8581 403.608L68.2718 402.199C70.3579 400.12 73.182 398.953 76.1261 398.953C79.0701 398.953 81.8943 400.12 83.9804 402.199" stroke="#070707" stroke-width="2" stroke-linecap="round" stroke-linejoin="round"/>
<path d="M68.2551 402.252C70.3412 400.173 73.1653 399.006 76.1094 399.006C79.0534 399.006 81.8776 400.173 83.9637 402.252L85.561 403.845C87.6471 405.923 90.4712 407.091 93.4152 407.091C96.3593 407.091 99.1834 405.923 101.27 403.845L102.244 402.875C104.33 400.797 107.153 399.631 110.096 399.631C113.04 399.631 115.863 400.797 117.949 402.875V402.875C120.035 404.954 122.86 406.121 125.804 406.121C128.748 406.121 131.572 404.954 133.658 402.875L134.807 401.725C136.893 399.647 139.717 398.479 142.661 398.479C145.606 398.479 148.43 399.647 150.516 401.725L152.23 403.435C154.316 405.513 157.14 406.68 160.083 406.68C163.026 406.68 165.85 405.513 167.936 403.435L169.349 402.023C171.436 399.944 174.26 398.777 177.204 398.777C180.148 398.777 182.972 399.944 185.058 402.023" stroke="#070707" stroke-width="2" stroke-linecap="round" stroke-linejoin="round"/>
<path d="M472.822 86.8204C475.19 86.8204 477.11 84.8992 477.11 82.5292C477.11 80.1592 475.19 78.238 472.822 78.238C470.453 78.238 468.533 80.1592 468.533 82.5292C468.533 84.8992 470.453 86.8204 472.822 86.8204Z" stroke="#070707" stroke-width="2" stroke-linecap="round" stroke-linejoin="round"/>
<path d="M455.591 73.7852C458.975 73.7852 461.719 71.0399 461.719 67.6533C461.719 64.2667 458.975 61.5214 455.591 61.5214C452.207 61.5214 449.463 64.2667 449.463 67.6533C449.463 71.0399 452.207 73.7852 455.591 73.7852Z" fill="#EFAF00" stroke="black" stroke-width="2" stroke-linecap="round" stroke-linejoin="round"/>
<path d="M350.2 389.871C346.994 389.871 344.395 392.377 344.395 395.488V442.454C344.395 451.889 352.298 459.536 362.043 459.536H391.791C397.585 459.536 402.279 464.08 402.279 469.689" stroke="#070707" stroke-width="2" stroke-linecap="round" stroke-linejoin="round"/>
<path d="M332.026 389.871C335.229 389.871 337.828 392.377 337.828 395.488V442.454C337.828 451.889 329.928 459.536 320.18 459.536H290.432C284.641 459.536 279.944 464.08 279.944 469.689" stroke="#070707" stroke-width="2" stroke-linecap="round" stroke-linejoin="round"/>
<path d="M341.112 385.204C418.564 385.204 481.351 325.764 481.351 252.44C481.351 179.117 418.564 119.677 341.112 119.677C263.66 119.677 200.872 179.117 200.872 252.44C200.872 325.764 263.66 385.204 341.112 385.204Z" fill="#F4F1ED" stroke="#070707" stroke-width="2" stroke-linecap="round" stroke-linejoin="round"/>
<path d="M341.112 361.492C409.747 361.492 465.386 308.818 465.386 243.841C465.386 178.865 409.747 126.19 341.112 126.19C272.477 126.19 216.837 178.865 216.837 243.841C216.837 308.818 272.477 361.492 341.112 361.492Z" fill="#EAE5DF"/>
<path d="M426.175 315.597C431.378 316.374 433.41 322.79 429.614 326.435C407.074 348.075 375.748 361.492 341.123 361.492C306.544 361.492 275.264 348.126 252.737 326.55C248.936 322.91 250.962 316.491 256.163 315.709C282.29 311.766 311.169 309.582 341.535 309.582C371.611 309.58 400.237 311.724 426.175 315.597Z" fill="#FFFBF8" stroke="#070707" stroke-width="2" stroke-linecap="round" stroke-linejoin="round"/>
<path d="M280.128 491.17C286.055 491.17 290.861 486.361 290.861 480.429C290.861 474.498 286.055 469.689 280.128 469.689C274.2 469.689 269.395 474.498 269.395 480.429C269.395 486.361 274.2 491.17 280.128 491.17Z" stroke="#070707" stroke-width="2" stroke-linecap="round" stroke-linejoin="round"/>
<path d="M341.64 491.17C347.568 491.17 352.373 486.361 352.373 480.429C352.373 474.498 347.568 469.689 341.64 469.689C335.713 469.689 330.907 474.498 330.907 480.429C330.907 486.361 335.713 491.17 341.64 491.17Z" stroke="#070707" stroke-width="2" stroke-linecap="round" stroke-linejoin="round"/>
<path d="M402.416 491.17C408.343 491.17 413.149 486.361 413.149 480.429C413.149 474.498 408.343 469.689 402.416 469.689C396.488 469.689 391.682 474.498 391.682 480.429C391.682 486.361 396.488 491.17 402.416 491.17Z" stroke="#070707" stroke-width="2" stroke-linecap="round" stroke-linejoin="round"/>
<path d="M572.859 298.394C557.963 320.95 529.887 333.297 517.482 326.316C505.491 319.566 504.445 286.316 519.344 263.746C534.243 241.176 559.137 230.633 573.621 240.202C588.105 249.77 587.757 275.821 572.859 298.394Z" fill="#EFAF00" stroke="black" stroke-width="2" stroke-linecap="round" stroke-linejoin="round"/>
<path d="M519.14 402.355C519.14 402.355 504.136 280.549 573.515 240.753" stroke="#070707" stroke-width="2" stroke-linecap="round" stroke-linejoin="round"/>
<path d="M583.341 267.935L541.795 272.178" stroke="#070707" stroke-width="2" stroke-linecap="round" stroke-linejoin="round"/>
<path d="M582.773 272.323L539.171 276.776" stroke="#070707" stroke-width="2" stroke-linecap="round" stroke-linejoin="round"/>
<path d="M519.839 263.991L530.397 295.213" stroke="#070707" stroke-width="2" stroke-linecap="round" stroke-linejoin="round"/>
<path d="M627.929 360.612C623.324 372.503 603.138 375.764 582.849 367.891C562.56 360.019 554.729 344.383 555.617 339.187C556.73 332.637 580.684 321.454 599.531 324.826C620.95 328.663 632.537 348.713 627.929 360.612Z" fill="#EFAF00" stroke="black" stroke-width="2" stroke-linecap="round" stroke-linejoin="round"/>
<path d="M506.732 402.355C506.732 402.355 504.912 348.85 561.377 337.867C592.293 331.855 616.197 347.401 627.172 360.584" stroke="#070707" stroke-width="2" stroke-linecap="round" stroke-linejoin="round"/>
<path d="M592.24 338.705L611.519 329.863" stroke="#070707" stroke-width="2" stroke-linecap="round" stroke-linejoin="round"/>
<path d="M597.052 340.239L615.006 331.832" stroke="#070707" stroke-width="2" stroke-linecap="round" stroke-linejoin="round"/>
<path d="M584.262 337.154L591.776 369.921" stroke="#070707" stroke-width="2" stroke-linecap="round" stroke-linejoin="round"/>
<path d="M495.418 322.86C504.581 336.7 503.145 356.301 495.696 360.857C491.177 363.622 472.176 358.629 463.015 344.784C453.854 330.938 453.885 314.336 462.759 308.452C471.633 302.568 486.257 309.02 495.418 322.86Z" fill="#EFAF00" stroke="black" stroke-width="2" stroke-linecap="round" stroke-linejoin="round"/>
<path d="M499.981 402.355C499.981 402.355 505.129 333.158 463.026 309.17" stroke="#070707" stroke-width="2" stroke-linecap="round" stroke-linejoin="round"/>
<path d="M457.166 329.373H483.73" stroke="#070707" stroke-width="2" stroke-linecap="round" stroke-linejoin="round"/>
<path d="M458.504 333.971H486.354" stroke="#070707" stroke-width="2" stroke-linecap="round" stroke-linejoin="round"/>
<path d="M496.049 324.767L491.274 343.829" stroke="#070707" stroke-width="2" stroke-linecap="round" stroke-linejoin="round"/>
<path d="M547.881 414.17V462.29C547.882 463.842 547.578 465.379 546.985 466.814C546.392 468.248 545.522 469.551 544.425 470.649C543.328 471.746 542.025 472.617 540.592 473.21C539.158 473.803 537.622 474.107 536.071 474.105H487.988C486.436 474.107 484.9 473.802 483.467 473.209C482.034 472.616 480.731 471.746 479.634 470.648C478.537 469.551 477.668 468.248 477.074 466.813C476.481 465.379 476.177 463.842 476.178 462.29V414.17C476.18 411.037 477.425 408.032 479.639 405.817C481.854 403.601 484.856 402.356 487.988 402.355H536.071C539.202 402.355 542.205 403.6 544.42 405.816C546.634 408.032 547.879 411.037 547.881 414.17Z" fill="#F4F1ED" stroke="#070707" stroke-width="2" stroke-linecap="round" stroke-linejoin="round"/>
<path d="M536.441 402.355H487.615C481.298 402.355 476.178 407.479 476.178 413.8V462.66C476.178 468.981 481.298 474.105 487.615 474.105H536.441C542.757 474.105 547.878 468.981 547.878 462.66V413.8C547.878 407.479 542.757 402.355 536.441 402.355Z" stroke="#FFC3D5" stroke-width="2" stroke-miterlimit="10"/>
<path d="M547.881 414.17V462.29C547.882 463.842 547.578 465.379 546.985 466.814C546.392 468.248 545.522 469.551 544.425 470.649C543.328 471.746 542.025 472.617 540.592 473.21C539.158 473.803 537.622 474.107 536.071 474.105H487.988C486.436 474.107 484.9 473.802 483.467 473.209C482.034 472.616 480.731 471.746 479.634 470.648C478.537 469.551 477.668 468.248 477.074 466.813C476.481 465.379 476.177 463.842 476.178 462.29V414.17C476.18 411.037 477.425 408.032 479.639 405.817C481.854 403.601 484.856 402.356 487.988 402.355H536.071C539.202 402.355 542.205 403.6 544.42 405.816C546.634 408.032 547.879 411.037 547.881 414.17V414.17Z" stroke="#070707" stroke-width="2" stroke-linecap="round" stroke-linejoin="round"/>
<path d="M380.11 284.89V285.742H376.581V284.89H380.11ZM377.638 291.435V283.986C377.638 283.611 377.726 283.299 377.902 283.049C378.078 282.799 378.307 282.611 378.588 282.486C378.87 282.361 379.166 282.299 379.479 282.299C379.726 282.299 379.928 282.319 380.084 282.359C380.24 282.398 380.357 282.435 380.433 282.469L380.144 283.339C380.093 283.322 380.022 283.3 379.931 283.275C379.843 283.249 379.726 283.236 379.581 283.236C379.249 283.236 379.009 283.32 378.861 283.488C378.716 283.655 378.644 283.901 378.644 284.225V291.435H377.638ZM379.121 306.589C378.706 306.589 378.33 306.511 377.992 306.354C377.654 306.195 377.385 305.967 377.186 305.668C376.987 305.367 376.888 305.003 376.888 304.577C376.888 304.202 376.962 303.898 377.11 303.665C377.257 303.43 377.455 303.245 377.702 303.111C377.949 302.978 378.222 302.878 378.52 302.813C378.821 302.745 379.124 302.691 379.428 302.651C379.825 302.6 380.148 302.562 380.395 302.536C380.645 302.508 380.827 302.461 380.941 302.396C381.057 302.33 381.115 302.217 381.115 302.055V302.021C381.115 301.6 381 301.273 380.77 301.04C380.543 300.807 380.198 300.691 379.735 300.691C379.254 300.691 378.878 300.796 378.605 301.006C378.333 301.217 378.141 301.441 378.03 301.68L377.075 301.339C377.246 300.941 377.473 300.631 377.757 300.41C378.044 300.185 378.357 300.029 378.695 299.941C379.036 299.85 379.371 299.805 379.7 299.805C379.911 299.805 380.152 299.83 380.425 299.881C380.7 299.93 380.966 300.03 381.222 300.184C381.48 300.337 381.695 300.569 381.865 300.878C382.036 301.188 382.121 301.603 382.121 302.123V306.435H381.115V305.549H381.064C380.996 305.691 380.882 305.843 380.723 306.005C380.564 306.167 380.352 306.305 380.088 306.418C379.824 306.532 379.502 306.589 379.121 306.589ZM379.274 305.685C379.672 305.685 380.007 305.607 380.28 305.451C380.556 305.295 380.763 305.093 380.902 304.846C381.044 304.599 381.115 304.339 381.115 304.066V303.146C381.073 303.197 380.979 303.244 380.834 303.286C380.692 303.326 380.527 303.361 380.34 303.393C380.155 303.421 379.975 303.447 379.799 303.469C379.625 303.489 379.485 303.506 379.377 303.521C379.115 303.555 378.871 303.61 378.644 303.687C378.419 303.761 378.237 303.873 378.098 304.023C377.962 304.171 377.894 304.373 377.894 304.628C377.894 304.978 378.023 305.242 378.281 305.421C378.543 305.597 378.874 305.685 379.274 305.685ZM380.11 314.89V315.742H376.581V314.89H380.11ZM377.638 321.435V313.986C377.638 313.611 377.726 313.299 377.902 313.049C378.078 312.799 378.307 312.611 378.588 312.486C378.87 312.361 379.166 312.299 379.479 312.299C379.726 312.299 379.928 312.319 380.084 312.359C380.24 312.398 380.357 312.435 380.433 312.469L380.144 313.339C380.093 313.322 380.022 313.3 379.931 313.275C379.843 313.249 379.726 313.236 379.581 313.236C379.249 313.236 379.009 313.32 378.861 313.488C378.716 313.655 378.644 313.901 378.644 314.225V321.435H377.638ZM379.956 327.589C380.314 327.592 380.672 327.66 381.03 327.793C381.388 327.927 381.715 328.148 382.01 328.458C382.306 328.765 382.543 329.184 382.722 329.715C382.901 330.246 382.99 330.913 382.99 331.714C382.99 332.489 382.916 333.178 382.769 333.78C382.624 334.38 382.414 334.886 382.138 335.298C381.865 335.709 381.533 336.022 381.141 336.235C380.752 336.448 380.311 336.555 379.82 336.555C379.331 336.555 378.895 336.458 378.512 336.265C378.131 336.069 377.818 335.798 377.574 335.451C377.333 335.101 377.178 334.697 377.11 334.236H378.149C378.243 334.637 378.429 334.968 378.708 335.229C378.989 335.488 379.36 335.617 379.82 335.617C380.493 335.617 381.024 335.323 381.414 334.735C381.806 334.147 382.002 333.316 382.002 332.242H381.933C381.774 332.481 381.585 332.687 381.367 332.86C381.148 333.033 380.905 333.167 380.638 333.261C380.371 333.354 380.087 333.401 379.786 333.401C379.286 333.401 378.827 333.278 378.409 333.03C377.995 332.78 377.662 332.438 377.412 332.003C377.165 331.566 377.041 331.066 377.041 330.503C377.041 329.969 377.161 329.481 377.399 329.038C377.641 328.592 377.979 328.236 378.414 327.972C378.851 327.708 379.365 327.58 379.956 327.589ZM379.956 328.526C379.598 328.526 379.276 328.616 378.989 328.795C378.705 328.971 378.479 329.209 378.311 329.511C378.147 329.809 378.064 330.14 378.064 330.503C378.064 330.867 378.144 331.198 378.303 331.496C378.465 331.792 378.685 332.028 378.963 332.204C379.245 332.377 379.564 332.464 379.922 332.464C380.192 332.464 380.443 332.411 380.676 332.306C380.909 332.198 381.112 332.052 381.286 331.867C381.462 331.68 381.6 331.468 381.699 331.232C381.799 330.994 381.848 330.745 381.848 330.486C381.848 330.146 381.766 329.826 381.601 329.528C381.439 329.229 381.215 328.988 380.928 328.803C380.644 328.619 380.32 328.526 379.956 328.526ZM380.11 344.89V345.742H376.581V344.89H380.11ZM377.638 351.435V343.986C377.638 343.611 377.726 343.299 377.902 343.049C378.078 342.799 378.307 342.611 378.588 342.486C378.87 342.361 379.166 342.299 379.479 342.299C379.726 342.299 379.928 342.319 380.084 342.359C380.24 342.398 380.357 342.435 380.433 342.469L380.144 343.339C380.093 343.322 380.022 343.3 379.931 343.275C379.843 343.249 379.726 343.236 379.581 343.236C379.249 343.236 379.009 343.32 378.861 343.488C378.716 343.655 378.644 343.901 378.644 344.225V351.435H377.638ZM377.45 366.435L381.354 358.714V358.646H376.854V357.708H382.445V358.697L378.558 366.435H377.45Z" fill="black"/>
<path d="M404.316 217.774C404.316 217.774 433.964 266.901 420.456 290.393C406.949 313.885 383.151 322.612 355.006 319.582C283.706 311.91 195.928 256.988 198.14 239.269C201.126 215.359 332.399 242.764 332.399 242.764L344.086 218.013L404.316 217.774Z" fill="#C5DCDD" stroke="black" stroke-linecap="round" stroke-linejoin="round"/>
<path d="M198.977 236.453C195.015 240.536 166.074 297.316 340.767 338.627L347.326 326.564C347.326 326.564 230.28 204.193 198.977 236.453Z" fill="#C5DCDD" stroke="black" stroke-linecap="round" stroke-linejoin="round"/>
<path d="M347.565 326.564C347.565 326.564 288.96 265.3 243.599 240.892" stroke="#4B556A" stroke-miterlimit="10"/>
<path d="M340.767 338.627C348.837 340.069 383.12 351.929 390.709 350.348C398.297 348.766 386.256 326.232 381.525 325.285C376.795 324.339 353.42 326.976 347.334 326.564C341.248 326.151 340.767 338.627 340.767 338.627Z" fill="#C48270" stroke="#0F0F0F" stroke-linecap="round" stroke-linejoin="round"/>
<path d="M382.263 288.135C351.842 352.319 265.19 425.526 265.19 425.526C265.19 425.526 258.642 419.854 250.422 419.503C250.422 419.503 327.96 246.946 371.75 238.575C407.155 231.795 387.375 277.341 382.263 288.135Z" fill="#C5DCDD" stroke="black" stroke-linecap="round" stroke-linejoin="round"/>
<path d="M250.397 419.094C242.669 431.427 230.715 457.358 223.215 466.35C220.777 469.271 242.299 470.14 245.566 467.539C250.055 463.966 250.397 450.597 259.31 448.881C265.546 447.687 271.796 443.521 268.888 437.506C264.792 429.04 265.388 425.033 265.388 425.033C258.336 417.161 250.397 419.094 250.397 419.094Z" fill="#C48270" stroke="#0F0F0F" stroke-linecap="round" stroke-linejoin="round"/>
<path d="M346.402 125.324C360.63 148.582 341.905 202.461 333.289 210.508C317.333 225.432 247.778 223.318 247.778 223.318L244.954 216.913C244.954 216.913 283.286 195.997 313.877 194.338C313.877 194.338 322.039 152.356 324.746 140.315C328.158 125.141 336.581 109.271 346.402 125.324Z" fill="#C48270" stroke="#0F0F0F" stroke-linecap="round" stroke-linejoin="round"/>
<path d="M252.796 217.47C251.262 213.627 238.131 216.033 232.913 218.459C228.474 220.522 223.107 226.061 222.23 227.233C221.353 228.406 219.403 234.326 219.403 234.326C219.403 234.326 221.292 236.325 223.838 232.839C226.385 229.353 232.988 225.359 234.627 226.234C238.311 228.202 229.384 228.977 228.408 230.391C227.431 231.806 227.896 232.647 227.896 232.647C227.896 232.647 236.286 232.265 237.635 232.09C238.985 231.914 244.333 229.492 246.949 227.297C249.565 225.103 253.753 219.865 252.796 217.47Z" fill="#E38E32"/>
<path d="M402.98 111.253C407.288 112.532 420.79 117.561 420.79 117.561C420.79 117.561 419.646 150.214 415.817 157.939C399.777 190.303 404.77 220.121 404.77 220.121C404.77 220.121 366.785 226.448 343.549 220.347C343.549 220.347 346.588 195.724 341.624 192.778C336.659 189.832 328.528 183.213 330.771 169.885C333.014 156.558 332.502 121.607 335.223 119.348C337.945 117.09 349.972 111.214 353.077 111.226C356.183 111.237 402.98 111.253 402.98 111.253Z" fill="#F4F1ED" stroke="#070707" stroke-linecap="round" stroke-linejoin="round"/>
<path d="M284.416 177.187H199.361C198.424 177.187 197.5 177.413 196.669 177.847C195.838 178.281 195.124 178.91 194.588 179.679C194.052 180.449 193.71 181.336 193.59 182.267C193.471 183.197 193.578 184.143 193.902 185.023L215.329 243.332H314.929L292.756 183.015C292.127 181.308 290.99 179.834 289.499 178.792C288.008 177.75 286.235 177.19 284.416 177.187Z" fill="#F9A09B" stroke="black" stroke-linecap="round" stroke-linejoin="round"/>
<path d="M282.744 180.144H199.818C198.904 180.144 198.003 180.366 197.193 180.789C196.383 181.212 195.686 181.825 195.164 182.575C194.641 183.325 194.307 184.191 194.19 185.098C194.073 186.005 194.176 186.927 194.492 187.785L215.396 244.643H312.513L290.891 185.828C290.278 184.16 289.167 182.721 287.71 181.704C286.253 180.688 284.52 180.143 282.744 180.144Z" fill="#F9A09B" stroke="black" stroke-linecap="round" stroke-linejoin="round"/>
<path d="M215.382 243.521H356.23C357.824 243.521 359.353 244.155 360.481 245.283C361.608 246.411 362.241 247.941 362.241 249.536V250.862H221.392C219.798 250.862 218.269 250.228 217.142 249.1C216.015 247.972 215.382 246.442 215.382 244.847V243.521Z" fill="#FF7823" stroke="black" stroke-linecap="round" stroke-linejoin="round"/>
<path d="M284.416 177.187H199.361C198.424 177.187 197.5 177.413 196.669 177.847C195.838 178.281 195.124 178.91 194.588 179.679C194.052 180.449 193.71 181.336 193.59 182.267C193.471 183.197 193.578 184.143 193.902 185.023L215.329 243.332H314.929L292.756 183.015C292.127 181.308 290.99 179.834 289.499 178.792C288.008 177.75 286.235 177.19 284.416 177.187Z" fill="#FF7823" stroke="black" stroke-linecap="round" stroke-linejoin="round"/>
<path d="M255.067 217.488C257.082 215.248 256.478 211.415 253.718 208.928C250.957 206.441 247.086 206.241 245.07 208.481C243.054 210.721 243.658 214.553 246.419 217.04C249.179 219.528 253.051 219.728 255.067 217.488Z" fill="#F46F40" stroke="black" stroke-linecap="round" stroke-linejoin="round"/>
<path d="M328.397 246.144H322.445V248.283H328.397V246.144Z" fill="#F9A09B" stroke="black" stroke-linecap="round" stroke-linejoin="round"/>
<path d="M339.77 246.144H333.818V248.283H339.77V246.144Z" fill="#F9A09B" stroke="black" stroke-linecap="round" stroke-linejoin="round"/>
<path d="M360.585 47.5144C360.585 47.5144 340.074 37.8849 327.362 58.0712C314.62 78.3048 332.093 87.3105 322.965 97.6417C313.089 108.825 300.587 115.375 310.721 137.535C321.051 160.133 294.709 151.801 300.406 176.958H345.069C345.069 176.958 364.284 170.228 358.518 153.645C352.752 137.062 340.396 134.767 351.975 120.137C360.672 109.151 400.79 111.39 404.394 112.339C407.998 113.289 423.353 118.546 423.353 118.546C423.353 118.546 429.458 100.265 420.726 90.1955C409.676 77.4582 391.248 86.8538 387.89 71.9028C385.619 61.8222 381.211 50.1153 373.887 47.9014C366.017 45.5233 360.585 47.5144 360.585 47.5144Z" fill="#1C0E0C"/>
<path d="M358.76 50.0429C358.76 50.0429 354.447 43.3401 332.546 58.6197C319.011 68.0654 328.472 87.3022 319.345 97.6334C309.469 108.817 296.969 115.366 307.101 137.527C317.43 160.125 291.089 151.793 296.785 176.95" stroke="#070707" stroke-linecap="round" stroke-linejoin="round"/>
<path d="M376.23 82.6378C376.23 82.6378 375.545 97.8617 381.097 105.673C384.873 110.978 381.481 110.532 394.649 112.047C394.649 112.047 396.024 131.593 365.536 131.593C342.912 131.593 351.97 120.137 351.97 120.137C351.97 120.137 361.415 106.444 357.343 82.6378H376.23Z" fill="#C48270" stroke="#0F0F0F" stroke-linecap="round" stroke-linejoin="round"/>
<path d="M376.528 81.4543C376.528 81.4543 377.112 112.047 352.666 112.047C352.171 112.045 351.683 111.932 351.238 111.716C352.524 110.819 360.549 104.214 356.589 81.0589H376.528C376.528 81.0589 376.528 81.1925 376.528 81.4431V81.4543Z" fill="#1C0E0C"/>
<path d="M377.195 80.9531C377.195 80.9531 373.695 107.107 357.096 107.232C346.179 107.313 339.873 91.9944 337.316 83.9633C334.397 74.7933 337.491 56.4644 353.063 56.6955C366.588 56.8988 373.656 75.353 373.656 75.353L377.195 80.9531Z" fill="#C48270" stroke="#0F0F0F" stroke-linecap="round" stroke-linejoin="round"/>
<path d="M374.004 79.6275C374.004 79.6275 373.341 77.3636 373.954 75.3196C374.343 74.0247 375.248 72.8134 377.156 72.3344" stroke="#070707" stroke-linecap="round" stroke-linejoin="round"/>
<path d="M377.156 76.8066L373.954 75.3196" stroke="#070707" stroke-linecap="round" stroke-linejoin="round"/>
<path d="M401.951 119.939C401.951 119.939 392.384 144.756 407.686 158.089C412.62 162.386 419.902 158.46 419.902 158.46" fill="#C48270"/>
<path d="M401.951 119.939C401.951 119.939 392.384 144.756 407.686 158.089C412.62 162.386 419.902 158.46 419.902 158.46" stroke="#0F0F0F" stroke-linecap="round" stroke-linejoin="round"/>
<path d="M409.13 145.113C414.584 162.394 421.817 186.825 421.817 186.825C393.127 188.384 349.872 205.797 344.604 207.955C335.861 209.904 323.48 216.988 321.101 218.411C318.875 219.678 315.374 223.19 314.317 224.599C313.203 226.069 310.613 231.363 310.613 231.363C311.165 231.636 311.792 231.716 312.394 231.589C312.997 231.463 313.539 231.138 313.935 230.667C314.957 229.553 316.671 226.869 318.045 225.562C316.799 228.695 315.633 231.931 315.633 231.931C315.633 231.931 318.724 232.689 322.687 231.408C324.585 230.795 326.683 227.153 328.904 224.755C331.124 222.357 335.969 223.491 340.819 222.669C345.67 221.848 349.037 214.73 349.037 214.73L348.97 214.613C361.562 214.822 427.786 215.254 442.212 201.764C450.838 193.708 439.657 141.242 425.429 117.987C419.17 107.761 409.845 109.134 405.474 115.645C404.013 117.814 402.268 119.081 402.196 122.153" fill="#C48270"/>
<path d="M409.13 145.113C414.584 162.394 421.817 186.825 421.817 186.825C393.127 188.384 349.872 205.797 344.604 207.955C335.861 209.904 323.48 216.988 321.101 218.411C318.875 219.678 315.374 223.19 314.317 224.599C313.203 226.069 310.613 231.363 310.613 231.363C311.165 231.636 311.792 231.716 312.394 231.589C312.997 231.463 313.539 231.138 313.935 230.667C314.957 229.553 316.671 226.869 318.045 225.562C316.799 228.695 315.633 231.931 315.633 231.931C315.633 231.931 318.724 232.689 322.687 231.408C324.585 230.795 326.683 227.153 328.904 224.755C331.124 222.357 335.969 223.491 340.819 222.669C345.67 221.848 349.037 214.73 349.037 214.73L348.97 214.613C361.562 214.822 427.786 215.254 442.212 201.764C450.838 193.708 439.657 141.242 425.429 117.987C419.17 107.761 409.845 109.134 405.474 115.645C404.013 117.814 402.268 119.081 402.196 122.153" stroke="#0F0F0F" stroke-linecap="round" stroke-linejoin="round"/>
<path d="M318.107 232.14C318.052 232.149 317.996 232.142 317.945 232.12C317.909 232.107 317.876 232.086 317.848 232.06C317.82 232.033 317.798 232 317.783 231.964C317.768 231.928 317.761 231.89 317.762 231.851C317.764 231.812 317.773 231.774 317.789 231.739C318.162 230.853 321.474 223.065 322.932 222.009C325.461 220.177 328.756 217.774 328.756 217.774L329.101 218.247C329.101 218.247 325.804 220.653 323.277 222.483C322.164 223.296 319.323 229.603 318.329 231.951C318.312 231.999 318.282 232.041 318.243 232.074C318.204 232.108 318.157 232.13 318.107 232.14V232.14Z" stroke="#070707" stroke-linecap="round" stroke-linejoin="round"/>
<path d="M321.257 231.605C321.204 231.613 321.151 231.607 321.101 231.587C321.052 231.568 321.009 231.535 320.977 231.493C320.945 231.451 320.925 231.4 320.919 231.348C320.912 231.295 320.921 231.242 320.942 231.193C321.076 230.915 324.243 224.028 325.723 222.956C328.253 221.126 331.547 218.723 331.547 218.723L331.892 219.197C331.892 219.197 328.595 221.6 326.068 223.432C324.955 224.245 322.37 229.486 321.474 231.438C321.454 231.482 321.424 231.519 321.386 231.548C321.348 231.578 321.304 231.597 321.257 231.605V231.605Z" stroke="#070707" stroke-linecap="round" stroke-linejoin="round"/>
<path d="M372.615 87.0794C372.615 87.0794 372.557 120.738 390.775 123.169C408.994 125.6 423.42 113.501 423.42 113.501" fill="#1C0E0C"/>
<path d="M350.083 81.4014L349.098 89.5383L352.538 91.546" stroke="#070707" stroke-linecap="round" stroke-linejoin="round"/>
<path d="M357.26 81.5894C357.988 81.3337 358.304 80.3465 357.967 79.3843C357.629 78.4222 356.766 77.8495 356.038 78.1052C355.31 78.3609 354.993 79.3481 355.331 80.3102C355.668 81.2724 356.532 81.845 357.26 81.5894Z" fill="#1C0E0C"/>
<path d="M344.948 84.7404C345.676 84.4847 345.992 83.4975 345.655 82.5354C345.317 81.5733 344.454 81.0006 343.726 81.2563C342.998 81.512 342.681 82.4992 343.019 83.4613C343.356 84.4234 344.22 84.9961 344.948 84.7404Z" fill="#1C0E0C"/>
<path d="M352.259 74.2447C352.259 74.2447 354.664 71.3737 359.845 73.8743" stroke="#070707" stroke-linecap="round" stroke-linejoin="round"/>
<path d="M339.551 78.2602C339.551 78.2602 340.906 74.7626 345.904 76.2497" stroke="#070707" stroke-linecap="round" stroke-linejoin="round"/>
<path d="M347.075 55.3867C347.075 55.3867 355.126 52.0451 357.811 60.0177C360.496 67.9903 364.871 74.6485 373.695 70.0175C382.519 65.3866 378.907 59.3688 378.907 59.3688" fill="#1C0E0C"/>
<path d="M374.847 81.07C378.02 81.07 380.593 78.4955 380.593 75.3196C380.593 72.1437 378.02 69.5692 374.847 69.5692C371.673 69.5692 369.1 72.1437 369.1 75.3196C369.1 78.4955 371.673 81.07 374.847 81.07Z" fill="#C48270"/>
<path d="M372.665 78.8283C372.665 78.8283 372 76.5644 372.615 74.5204C373.002 73.2255 373.906 72.0142 375.815 71.5352" stroke="#070707" stroke-linecap="round" stroke-linejoin="round"/>
<path d="M375.815 76.0074L372.615 74.5204" stroke="#070707" stroke-linecap="round" stroke-linejoin="round"/>
<path d="M372.317 69.2072C370.678 54.2171 355.771 45.6375 355.621 45.5818L362.8 46.0719C363.669 46.3671 371.936 47.5144 379.65 67.3943L372.317 69.2072Z" fill="#EFAF00" stroke="black" stroke-linecap="round" stroke-linejoin="round"/>
<path d="M378.041 89.5066C381.821 89.0019 384.216 83.5816 383.392 77.4C382.568 71.2185 378.836 66.6164 375.056 67.121C371.277 67.6257 368.881 73.0459 369.705 79.2275C370.53 85.4091 374.262 90.0112 378.041 89.5066Z" fill="#EFAF00" stroke="black" stroke-linecap="round" stroke-linejoin="round"/>
<path d="M380.427 89.1906C384.206 88.6859 386.602 83.2657 385.778 77.0841C384.954 70.9025 381.222 66.3004 377.442 66.805C373.663 67.3097 371.267 72.73 372.091 78.9116C372.915 85.0931 376.647 89.6952 380.427 89.1906Z" fill="#EFAF00" stroke="black" stroke-linecap="round" stroke-linejoin="round"/>
<path d="M352.538 95.6702C352.538 95.6702 357.903 96.5947 360.307 91.2871" stroke="#070707" stroke-linecap="round" stroke-linejoin="round"/>
</svg>
