<svg width="613" height="89" viewBox="0 0 613 89" fill="none" xmlns="http://www.w3.org/2000/svg">
<path d="M17.1776 20.1221C3.8606 71.1672 3.8606 71.7432 3.8606 72.1755C3.8606 75.565 7.47622 75.6368 8.88871 75.6368H29.0839C30.6721 75.6368 35.1696 75.565 36.4925 70.5899C49.7217 19.473 49.8096 18.9688 49.8096 18.4633C49.8096 15.1471 46.1939 15.0752 44.7832 15.0752H24.4984C22.8224 15.0752 18.5005 15.2189 17.1776 20.1221ZM23.4391 66.3358H19.2068L30.1432 24.3763H34.3755L23.4391 66.3358Z" fill="#353131"/>
<path d="M86.41 40.3816C91.8773 19.473 91.9652 18.9688 91.9652 18.4633C91.9652 15.1471 88.3495 15.0752 86.9388 15.0752H62.3322C61.3624 15.0752 60.3926 15.7244 60.2169 16.5172C45.2238 74.3385 45.136 74.4835 45.136 74.5553C45.136 75.2045 45.8405 75.6368 46.6346 75.6368H57.1301C58.0999 75.6368 58.9818 74.9876 59.2454 74.1948L65.5068 49.9699H69.7409C63.4794 74.3385 63.3915 74.4835 63.3915 74.5553C63.3915 75.2045 64.0961 75.6368 64.8902 75.6368H75.3856C76.3554 75.6368 77.2374 74.9876 77.5009 74.1948C83.7641 50.1868 83.852 49.6812 83.852 49.1771C83.852 45.789 80.2363 45.789 78.8239 45.789L79.0013 45.4285C80.5877 45.4285 85.1749 45.4285 86.41 40.3816ZM72.211 24.3763H76.4433L72.1214 40.7421H67.8891L72.211 24.3763Z" fill="#353131"/>
<path d="M108.81 15.0752C107.222 15.0752 102.724 15.1471 101.401 20.1221C87.3798 74.3385 87.292 74.4835 87.292 74.5553C87.292 75.2045 87.9965 75.6368 88.7906 75.6368H99.2861C100.256 75.6368 101.138 74.9876 101.401 74.1948L106.517 54.2958H110.75C105.635 74.3385 105.548 74.4835 105.548 74.5553C105.548 75.2045 106.252 75.6368 107.046 75.6368H117.542C118.511 75.6368 119.393 74.9876 119.657 74.1948C134.033 19.473 134.121 18.9688 134.121 18.4633C134.121 15.1471 130.506 15.0752 129.095 15.0752H108.81ZM114.367 24.3763H118.599L113.22 45.068H108.986L114.367 24.3763Z" fill="#353131"/>
<path d="M146.644 15.0752C145.674 15.0752 144.704 15.7244 144.529 16.5172C129.536 74.3385 129.448 74.4835 129.448 74.5553C129.448 75.2045 130.152 75.6368 130.946 75.6368H140.295C141.264 75.6368 142.146 74.9876 142.412 74.1948L149.555 46.7987C153.436 74.3385 153.346 74.4835 153.346 74.5553C153.346 75.2045 154.053 75.6368 154.847 75.6368H164.018C164.989 75.6368 165.871 74.9876 166.135 74.1948L181.128 16.2285C181.128 15.5794 180.599 15.0752 179.717 15.0752H170.544C169.575 15.0752 168.605 15.7244 168.427 16.5172L160.755 46.0777L157.405 16.2285C157.405 15.5794 156.874 15.0752 155.992 15.0752H146.644Z" fill="#353131"/>
<path d="M201.676 75.6368C203.265 75.6368 207.85 75.6368 209.085 70.5899L215.7 44.6357C215.7 43.9866 215.169 43.481 214.287 43.481H203.793C202.824 43.481 201.852 44.1302 201.676 44.923L196.119 66.3358H191.887L202.824 24.3763H219.491C220.461 24.3763 221.431 23.7271 221.608 22.9343L223.284 16.2285C223.284 15.5794 222.753 15.0752 221.872 15.0752H197.355C195.768 15.0752 191.181 15.0752 189.858 20.1221C176.541 71.2391 176.453 71.7432 176.453 72.2487C176.453 75.6368 180.246 75.6368 181.657 75.6368H201.676Z" fill="#353131"/>
<path d="M232.986 16.5172C217.993 74.3385 217.905 74.4835 217.905 74.5553C217.905 75.2045 218.609 75.6368 219.403 75.6368H245.155C246.125 75.6368 247.007 74.9876 247.273 74.1948L248.859 67.7777V67.4905C248.859 66.8413 248.33 66.3358 247.448 66.3358H234.043L238.453 49.2489H247.536C248.508 49.2489 249.477 48.5998 249.741 47.8069C251.505 40.5971 251.593 40.5253 251.593 40.3816C251.593 39.7325 250.976 39.3001 250.182 39.3001H241.099L244.98 24.3763H258.385C259.354 24.3763 260.324 23.7271 260.502 22.9343L262.266 16.2285C262.266 15.5794 261.735 15.0752 260.853 15.0752H235.101C234.131 15.0752 233.161 15.7244 232.986 16.5172Z" fill="#353131"/>
<path d="M298.425 16.5172C283.432 74.3385 283.344 74.4835 283.344 74.5553C283.344 75.2045 284.048 75.6368 284.842 75.6368H310.594C311.564 75.6368 312.446 74.9876 312.711 74.1948L314.298 67.7777V67.4905C314.298 66.8413 313.769 66.3358 312.887 66.3358H299.482L303.892 49.2489H312.975C313.947 49.2489 314.916 48.5998 315.18 47.8069C316.944 40.5971 317.032 40.5253 317.032 40.3816C317.032 39.7325 316.415 39.3001 315.621 39.3001H306.538L310.419 24.3763H323.824C324.793 24.3763 325.763 23.7271 325.941 22.9343L327.705 16.2285C327.705 15.5794 327.174 15.0752 326.292 15.0752H300.54C299.57 15.0752 298.6 15.7244 298.425 16.5172Z" fill="#353131"/>
<path d="M337.757 15.0752C336.787 15.0752 335.817 15.7244 335.642 16.5172L328.409 74.3385C328.409 75.2045 329.027 75.6368 329.909 75.6368H345.607C346.576 75.6368 347.37 75.1327 347.636 74.3385C370.477 16.5172 370.565 16.3736 370.565 16.2285C370.565 15.5075 369.948 15.0752 369.154 15.0752H358.658C357.689 15.0752 356.894 15.5794 356.543 16.3736L342.432 58.7654H341.726L349.663 16.0849C349.663 15.4357 349.134 15.0752 348.252 15.0752H337.757Z" fill="#353131"/>
<path d="M377.532 20.1221C364.215 71.1672 364.215 71.7432 364.215 72.1755C364.215 75.565 367.83 75.6368 369.243 75.6368H389.438C391.026 75.6368 395.524 75.565 396.847 70.5899C410.076 19.473 410.164 18.9688 410.164 18.4633C410.164 15.1471 406.548 15.0752 405.137 15.0752H384.853C383.177 15.0752 378.855 15.2189 377.532 20.1221ZM383.793 66.3358H379.561L390.497 24.3763H394.73L383.793 66.3358Z" fill="#353131"/>
<path d="M434.592 16.2285C434.592 15.5794 434.063 15.0752 433.181 15.0752H422.686C421.716 15.0752 420.746 15.7244 420.571 16.5172L402.226 87.4613C402.226 88.109 402.667 88.6146 403.549 88.6146H434.063C435.033 88.6146 436.003 87.9654 436.18 87.1726L438.12 80.0345V79.7459C438.12 79.0981 437.591 78.5926 436.709 78.5926H418.454L434.592 16.2285Z" fill="#353131"/>
<path d="M444.295 16.5172C430.006 71.1672 430.006 71.7432 430.006 72.1755C430.006 75.6368 433.712 75.6368 435.122 75.6368H459.551C460.521 75.6368 461.403 74.9876 461.668 74.1948C476.484 16.5172 476.572 16.4454 476.572 16.3003C476.572 15.6526 475.955 15.2189 475.161 15.2189H464.666C463.696 15.2189 462.726 15.868 462.461 16.6608L449.585 66.3358H445.353L458.316 16.2285C458.316 15.5794 457.788 15.0752 456.906 15.0752H446.41C445.44 15.0752 444.471 15.7244 444.295 16.5172Z" fill="#353131"/>
<path d="M472.164 3.53944C471.192 3.53944 470.222 4.18861 470.047 4.98142L468.371 11.3985C468.371 12.2631 468.899 12.8405 469.781 12.8405H487.332C471.37 74.3385 471.282 74.4835 471.282 74.5553C471.282 75.2045 471.986 75.6368 472.78 75.6368H483.186C484.158 75.6368 485.04 74.9876 485.303 74.1948L501.266 12.8405H518.817C519.787 12.8405 520.757 12.1913 520.932 11.3985L522.608 4.69274C522.608 4.04498 522.08 3.53944 521.198 3.53944H472.164Z" fill="#353131"/>
<path d="M512.202 15.0752C511.232 15.0752 510.262 15.7244 510.086 16.5172C495.093 74.3385 495.005 74.4835 495.005 74.5553C495.005 75.2045 495.71 75.6368 496.504 75.6368H506.999C507.969 75.6368 508.851 74.9876 509.115 74.1948L524.108 16.2285C524.108 15.5794 523.579 15.0752 522.697 15.0752H512.202Z" fill="#353131"/>
<path d="M532.839 20.1221C519.521 71.1672 519.521 71.7432 519.521 72.1755C519.521 75.565 523.137 75.6368 524.55 75.6368H544.745C546.333 75.6368 550.831 75.565 552.153 70.5899C565.383 19.473 565.47 18.9688 565.47 18.4633C565.47 15.1471 561.855 15.0752 560.444 15.0752H540.159C538.483 15.0752 534.161 15.2189 532.839 20.1221ZM539.1 66.3358H534.868L545.804 24.3763H550.036L539.1 66.3358Z" fill="#353131"/>
<path d="M577.993 15.0752C577.023 15.0752 576.053 15.7244 575.878 16.5172C560.885 74.3385 560.797 74.4835 560.797 74.5553C560.797 75.2045 561.501 75.6368 562.295 75.6368H571.644C572.614 75.6368 573.495 74.9876 573.761 74.1948L580.904 46.7987C584.785 74.3385 584.696 74.4835 584.696 74.5553C584.696 75.2045 585.402 75.6368 586.196 75.6368H595.367C596.338 75.6368 597.22 74.9876 597.484 74.1948L612.477 16.2285C612.477 15.5794 611.948 15.0752 611.066 15.0752H601.893C600.924 15.0752 599.954 15.7244 599.776 16.5172L592.104 46.0777L588.754 16.2285C588.754 15.5794 588.223 15.0752 587.341 15.0752H577.993Z" fill="#353131"/>
<path d="M14.4597 17.8909C1.13232 68.936 1.13232 69.5162 1.13232 69.9386C1.13232 73.3366 4.74967 73.407 6.17078 73.407H26.3453C27.9386 73.407 32.4396 73.3366 33.7729 68.3544C46.9934 17.2389 47.0796 16.7461 47.0796 16.2363C47.0796 12.9088 43.4622 12.8384 42.0635 12.8384H21.7598C20.101 12.8384 15.774 12.9975 14.4597 17.8909ZM20.7039 64.113H16.4837L27.4218 22.1492H31.6421L20.7039 64.113ZM83.6785 38.1504C89.1476 17.2389 89.2338 16.7461 89.2338 16.2363C89.2338 12.9088 85.6164 12.8384 84.2177 12.8384H59.6077C58.6379 12.8384 57.6698 13.4903 57.4975 14.2817C42.489 72.1044 42.4028 72.2452 42.4028 72.3325C42.4028 72.9662 43.1143 73.407 43.9101 73.407H54.3969C55.365 73.407 56.2487 72.755 56.5277 71.9636L62.772 47.7429H67.0129C60.748 72.1044 60.6619 72.2452 60.6619 72.3325C60.6619 72.9662 61.3733 73.407 62.1691 73.407H72.6542C73.624 73.407 74.506 72.755 74.7643 71.9636C81.031 47.9541 81.1171 47.4444 81.1171 46.9515C81.1171 43.5536 77.4998 43.5536 76.0993 43.5536L76.2716 43.2015C77.8649 43.2015 82.4521 43.2015 83.6785 38.1504ZM69.4899 22.1492H73.7102L69.4038 38.5193H65.1611L69.4899 22.1492ZM106.091 12.8384C104.497 12.8384 99.998 12.9088 98.6836 17.8909C84.6449 72.1044 84.5588 72.2452 84.5588 72.3325C84.5588 72.9662 85.2702 73.407 86.066 73.407H96.5529C97.5209 73.407 98.4046 72.755 98.6836 71.9636L103.788 52.073H108.028C102.904 72.1044 102.818 72.2452 102.818 72.3325C102.818 72.9662 103.529 73.407 104.325 73.407H114.81C115.78 73.407 116.662 72.755 116.92 71.9636C131.304 17.2389 131.39 16.7461 131.39 16.2363C131.39 12.9088 127.772 12.8384 126.374 12.8384H106.091ZM111.646 22.1492H115.866L110.483 42.8326H106.263L111.646 22.1492ZM143.919 12.8384C142.95 12.8384 141.982 13.4903 141.809 14.2817C126.801 72.1044 126.715 72.2452 126.715 72.3325C126.715 72.9662 127.426 73.407 128.222 73.407H137.567C138.537 73.407 139.418 72.755 139.677 71.9636L146.825 44.5745C150.701 72.1044 150.615 72.2452 150.615 72.3325C150.615 72.9662 151.325 73.407 152.122 73.407H161.295C162.263 73.407 163.147 72.755 163.405 71.9636L178.391 14.0001C178.391 13.3495 177.874 12.8384 176.991 12.8384H167.818C166.85 12.8384 165.88 13.4903 165.708 14.2817L158.022 43.8535L154.684 14.0001C154.684 13.3495 154.146 12.8384 153.263 12.8384H143.919ZM198.939 73.407C200.533 73.407 205.12 73.407 206.346 68.3544L212.978 42.4101C212.978 41.7581 212.441 41.2484 211.557 41.2484H201.072C200.102 41.2484 199.134 41.8989 198.939 42.6918L193.384 64.113H189.164L200.102 22.1492H216.768C217.738 22.1492 218.706 21.4987 218.878 20.7073L220.557 14.0001C220.557 13.3495 220.02 12.8384 219.136 12.8384H194.633C193.04 12.8384 188.454 12.8384 187.14 17.8909C173.813 69.0064 173.726 69.5162 173.726 70.009C173.726 73.407 177.516 73.407 178.937 73.407H198.939ZM230.266 14.2817C215.259 72.1044 215.173 72.2452 215.173 72.3325C215.173 72.9662 215.882 73.407 216.68 73.407H242.43C243.4 73.407 244.282 72.755 244.54 71.9636L246.134 65.5564V65.2564C246.134 64.6058 245.596 64.113 244.713 64.113H231.32L235.735 47.0219H244.799C245.769 47.0219 246.759 46.3699 247.017 45.5785C248.783 38.3616 248.869 38.2912 248.869 38.1504C248.869 37.4984 248.244 37.0759 247.448 37.0759H238.362L242.258 22.1492H255.651C256.621 22.1492 257.589 21.4987 257.783 20.7073L259.527 14.0001C259.527 13.3495 259.01 12.8384 258.128 12.8384H232.376C231.406 12.8384 230.438 13.4903 230.266 14.2817ZM295.705 14.2817C280.697 72.1044 280.611 72.2452 280.611 72.3325C280.611 72.9662 281.322 73.407 282.118 73.407H307.87C308.838 73.407 309.722 72.755 309.98 71.9636L311.573 65.5564V65.2564C311.573 64.6058 311.034 64.113 310.152 64.113H296.759L301.173 47.0219H310.238C311.206 47.0219 312.197 46.3699 312.455 45.5785C314.221 38.3616 314.307 38.2912 314.307 38.1504C314.307 37.4984 313.683 37.0759 312.886 37.0759H303.799L307.698 22.1492H321.09C322.058 22.1492 323.028 21.4987 323.221 20.7073L324.966 14.0001C324.966 13.3495 324.449 12.8384 323.566 12.8384H297.814C296.846 12.8384 295.876 13.4903 295.705 14.2817ZM335.029 12.8384C334.061 12.8384 333.091 13.4903 332.919 14.2817L325.686 72.1044C325.686 72.9662 326.287 73.407 327.171 73.407H342.889C343.857 73.407 344.632 72.8958 344.913 72.1044C367.758 14.2817 367.844 14.1409 367.844 14.0001C367.844 13.2791 367.219 12.8384 366.423 12.8384H355.938C354.968 12.8384 354.172 13.3495 353.805 14.1409L339.703 56.544H338.991L346.937 13.8593C346.937 13.2087 346.398 12.8384 345.516 12.8384H335.029ZM374.815 17.8909C361.486 68.936 361.486 69.5162 361.486 69.9386C361.486 73.3366 365.103 73.407 366.524 73.407H386.699C388.292 73.407 392.793 73.3366 394.128 68.3544C407.349 17.2389 407.435 16.7461 407.435 16.2363C407.435 12.9088 403.817 12.8384 402.417 12.8384H382.113C380.455 12.8384 376.128 12.9975 374.815 17.8909ZM381.057 64.113H376.837L387.775 22.1492H391.996L381.057 64.113ZM431.867 14.0001C431.867 13.3495 431.33 12.8384 430.446 12.8384H419.961C418.991 12.8384 418.023 13.4903 417.851 14.2817L399.506 85.2343C399.506 85.8862 399.937 86.3791 400.82 86.3791H431.33C432.298 86.3791 433.268 85.7271 433.461 84.9357L435.399 77.8075V77.5076C435.399 76.8739 434.861 76.3641 433.978 76.3641H415.719L431.867 14.0001ZM441.574 14.2817C427.279 68.936 427.279 69.5162 427.279 69.9386C427.279 73.407 430.98 73.407 432.401 73.407H456.819C457.788 73.407 458.67 72.755 458.929 71.9636C473.763 14.2817 473.849 14.2113 473.849 14.0705C473.849 13.4199 473.226 12.9975 472.428 12.9975H461.943C460.975 12.9975 460.005 13.6312 459.726 14.4226L446.85 64.113H442.63L455.592 14.0001C455.592 13.3495 455.053 12.8384 454.171 12.8384H443.684C442.716 12.8384 441.746 13.4903 441.574 14.2817ZM469.431 1.30959C468.463 1.30959 467.493 1.96017 467.321 2.75298L465.641 9.16019C465.641 10.0403 466.181 10.6036 467.063 10.6036H484.612C468.635 72.1044 468.549 72.2452 468.549 72.3325C468.549 72.9662 469.259 73.407 470.056 73.407H480.455C481.425 73.407 482.307 72.755 482.565 71.9636L498.542 10.6036H516.09C517.06 10.6036 518.028 9.9699 518.2 9.16019L519.879 2.47134C519.879 1.81935 519.342 1.30959 518.458 1.30959H469.431ZM509.477 12.8384C508.507 12.8384 507.539 13.4903 507.367 14.2817C492.358 72.1044 492.272 72.2452 492.272 72.3325C492.272 72.9662 492.983 73.407 493.779 73.407H504.266C505.234 73.407 506.118 72.755 506.397 71.9636L521.383 14.0001C521.383 13.3495 520.844 12.8384 519.962 12.8384H509.477ZM530.122 17.8909C516.793 68.936 516.793 69.5162 516.793 69.9386C516.793 73.3366 520.41 73.407 521.831 73.407H542.007C543.599 73.407 548.1 73.3366 549.435 68.3544C562.655 17.2389 562.741 16.7461 562.741 16.2363C562.741 12.9088 559.124 12.8384 557.724 12.8384H537.42C535.763 12.8384 531.434 12.9975 530.122 17.8909ZM536.366 64.113H532.146L543.084 22.1492H547.302L536.366 64.113ZM575.268 12.8384C574.298 12.8384 573.33 13.4903 573.158 14.2817C558.151 72.1044 558.065 72.2452 558.065 72.3325C558.065 72.9662 558.774 73.407 559.572 73.407H568.917C569.885 73.407 570.769 72.755 571.027 71.9636L578.174 44.5745C582.05 72.1044 581.963 72.2452 581.963 72.3325C581.963 72.9662 582.675 73.407 583.471 73.407H592.643C593.613 73.407 594.495 72.755 594.753 71.9636L609.739 14.0001C609.739 13.3495 609.223 12.8384 608.339 12.8384H599.168C598.198 12.8384 597.23 13.4903 597.058 14.2817L589.37 43.8535L586.034 14.0001C586.034 13.3495 585.495 12.8384 584.613 12.8384H575.268Z" stroke="#353131"/>
</svg>
