<svg width="673" height="673" viewBox="0 0 673 673" fill="none" xmlns="http://www.w3.org/2000/svg">
<path d="M251.749 213.341C250.136 213.156 244.239 210.475 241.376 205.827C234.583 194.734 236.729 184.718 242.269 181.145C253.356 173.81 257.289 151.633 267.484 143.227C281.251 131.78 295.016 123.192 311.828 117.473C321.84 114.075 337.571 113.358 345.263 122.66C349.911 128.203 351.881 135.178 354.205 141.795C361.894 163.794 352.235 175.958 352.06 195.094C351.881 204.75 349.733 218.348 345.263 228.54C340.437 239.633 336.147 244.638 333.82 248.039C331.317 251.969 320.948 261.631 318.621 261.093C317.014 260.554 317.014 266.993 320.055 268.603C322.376 269.852 327.205 271.287 327.559 274.685C328.636 284.522 326.309 292.389 320.766 297.936C315.047 303.661 301.633 308.134 287.866 303.483C266.948 296.326 237.8 274.506 234.944 261.093C234.405 258.051 241.915 256.617 246.559 246.786C252.82 233.187 252.281 213.516 251.749 213.341Z" fill="#FEE4D6"/>
<path d="M251.032 186.328C250.496 186.328 248.169 183.108 246.559 182.397C242.986 180.966 241.915 182.754 240.126 181.505C238.335 180.249 237.446 176.312 236.728 174.348C235.829 172.382 234.943 172.382 233.866 170.59C231.724 167.013 229.929 162.898 230.114 157.715C230.292 154.138 232.613 145.194 233.866 141.974C236.547 135.716 236.547 133.746 239.409 127.31C242.629 120.154 244.771 112.105 249.425 104.77C252.82 99.5836 257.468 96.1855 262.297 92.7874C270.343 87.0655 287.684 84.3814 297.524 86.1697C303.957 87.2472 307.715 89.0355 311.113 91.5379C312.538 92.6089 313.259 90.9991 316.297 90.8238C320.587 90.6453 328.811 92.2551 332.21 94.5757C336.86 97.7953 339.003 102.803 341.683 102.449C344.728 101.911 350.988 104.238 355.094 108.707C360.462 114.607 363.682 119.975 366.716 126.233C369.761 132.675 375.126 145.194 372.977 152.707C371.731 157.176 371.906 161.113 372.442 164.508C372.977 167.906 372.977 177.389 370.115 184.004C367.972 189.012 361.179 194.734 357.243 198.492C357.064 198.671 353.309 199.927 352.413 199.031C351.521 198.132 354.562 190.625 353.131 187.227C352.773 186.513 349.732 189.732 349.732 189.911C348.48 191.16 346.338 188.655 344.549 187.938C341.862 187.045 331.671 177.389 336.5 173.988C341.33 170.772 342.761 164.686 343.118 158.607C343.478 152.168 341.862 140.007 336.679 132.675C333.819 128.56 330.778 127.667 326.131 127.31C318.977 126.772 315.404 135.178 311.467 141.081C305.927 149.484 302.526 154.671 293.766 159.146C286.794 162.723 272.491 169.701 266.231 174.527C263.55 175.78 252.641 186.153 251.032 186.328Z" fill="#353131"/>
<path d="M425.01 332.099C424.117 324.764 420.362 312.603 413.926 304.732C408.918 298.829 401.587 295.788 393.719 290.962C375.661 279.693 343.293 275.756 332.566 273.257C327.558 272.179 326.487 271.826 327.026 274.685C327.558 277.548 328.276 287.385 324.167 292.39C316.653 301.516 306.105 312.781 276.243 298.829C251.21 287.025 239.049 269.499 234.583 262.164C233.333 260.022 231.363 263.235 229.215 263.42C221.347 264.134 204.542 275.045 193.812 277.905C180.048 281.481 157.157 282.017 142.675 296.148C130.696 307.952 118.891 327.984 114.244 355.172C111.92 368.764 110.489 385.398 107.983 395.774C105.481 406.322 101.369 408.827 112.812 412.579C138.563 421.346 159.484 421.884 165.384 421.346C167.176 421.167 167.348 427.788 166.991 435.298C165.916 460.338 168.958 533.846 166.63 569.437C164.128 605.031 158.766 640.622 158.766 640.622C158.766 640.622 226.537 644.381 288.044 644.02C349.554 643.66 404.985 639.012 404.985 639.012C404.985 639.012 404.985 643.485 402.839 627.033C397.656 588.573 393.544 510.063 394.076 487.344C395.154 450.854 427.158 348.908 425.01 332.099Z" fill="#FF3200"/>
<path d="M404.271 331.203V328.701C403.196 323.693 395.329 293.821 393.719 290.783C386.926 277.547 382.275 281.481 369.225 277.547C352.059 272.358 346.337 273.435 345.62 275.577C344.549 278.619 350.092 285.593 351.52 287.92C355.993 294.898 365.645 316.712 365.645 325.656L404.271 331.203Z" fill="#465EBD"/>
<path d="M167.347 445.846L173.43 434.759L183.621 425.282C195.6 407.393 201.682 385.219 207.222 364.827C213.123 343.368 218.491 319.399 220.633 297.04C221.347 289.53 222.243 280.946 224.391 273.789C224.924 272.179 231.003 263.595 230.292 262.702C228.325 260.022 221.172 263.595 219.205 264.491C213.123 267.172 207.94 271.287 201.501 273.075C196.314 274.507 189.167 273.974 185.763 279.157C180.401 287.025 180.226 301.334 178.976 310.279C176.467 327.627 173.965 345.156 170.927 362.507C166.276 388.257 167.175 414.728 167.347 441.023C167.175 442.633 167.347 445.846 167.347 445.846Z" fill="#465EBD"/>
<path d="M363.681 275.045C361.533 270.93 359.744 266.279 353.49 263.063C347.229 259.843 339.187 260.022 331.138 260.022C323.089 260.022 318.084 260.732 318.084 260.732C318.084 260.732 314.865 266.279 317.549 267.889C320.23 269.499 331.316 274.146 336.678 274.86C337.756 275.045 342.222 275.399 344.192 275.224C347.408 274.86 348.839 273.611 352.598 273.789C359.212 274.328 364.752 277.187 363.681 275.045Z" fill="#465EBD"/>
<path d="M232.613 262.521C236.907 258.587 244.057 253.225 239.234 253.939C234.404 254.657 216.703 255.014 208.476 257.694C200.251 260.375 183.621 262.164 175.397 265.743C167.176 269.32 161.629 270.216 158.588 274.86C155.547 279.514 153.405 282.195 153.405 285.24C153.405 288.281 153.223 289.53 157.335 287.203C161.447 284.879 174.501 281.481 178.977 280.764C185.948 279.693 185.588 277.726 189.168 275.756C192.741 273.789 195.961 274.506 200.605 273.075C205.434 271.641 206.152 271.108 212.591 267.353C219.024 263.595 225.998 259.304 228.325 261.093C230.828 263.42 228.325 266.457 232.613 262.521Z" fill="#465EBD"/>
<path d="M160.016 642.235C160.016 642.235 163.057 616.3 163.239 610.4C163.596 602.526 166.098 582.137 166.276 577.665C166.455 573.196 169.139 560.496 168.246 555.488C167.347 550.48 167.347 539.925 166.098 542.97C164.845 546.008 161.807 550.12 158.409 552.986C155.014 555.845 148.575 560.674 144.817 562.463C141.065 564.251 135.521 566.578 131.77 566.039C128.55 565.682 124.973 563.715 125.152 567.471C125.33 571.229 123.182 581.063 124.253 593.049C125.152 605.213 125.152 628.104 138.024 638.298C138.916 639.012 141.065 640.801 141.065 640.801L160.016 642.235Z" fill="#465EBD"/>
<path d="M122.111 327.451C125.152 321.548 129.086 313.138 136.775 302.766C144.463 292.568 146.966 293.646 151.438 289.887C155.725 286.132 152.327 287.025 154.297 281.303C156.264 275.399 162.697 271.641 167.886 268.96C173.248 266.279 181.651 263.42 186.302 262.342C190.953 261.093 207.583 257.873 214.911 256.085C222.243 254.296 232.256 253.758 236.728 254.115C241.197 254.475 240.126 255.546 241.73 253.397C243.346 251.255 246.919 246.426 248.529 242.671C250.136 238.912 246.38 239.094 246.38 239.094C225.638 238.734 201.322 240.344 180.762 240.344C159.305 240.344 138.024 238.555 116.568 238.555C108.162 238.555 94.9295 236.946 87.4257 240.704C83.3071 242.671 81.7038 256.445 81.3436 260.2C81.3436 261.631 81.1651 262.881 81.1651 264.312C80.808 284.162 86.5267 305.271 98.5093 321.366C101.012 324.764 111.381 334.244 117.82 335.672C119.609 336.39 119.07 333.17 122.111 327.451Z" fill="#FF7823"/>
<path d="M342.401 235.336C345.802 236.053 404.806 231.399 424.478 234.803C439.495 237.484 442.893 257.334 441.462 275.756C440.212 290.961 436.1 305.271 429.661 305.625C427.694 305.807 419.827 304.022 418.577 303.837C418.577 303.837 413.209 303.837 410.528 301.513C407.848 299.189 399.62 293.646 397.118 292.75C394.615 291.857 394.437 290.961 391.574 287.203C388.715 283.451 388.355 282.195 383.886 280.764C379.416 279.336 368.505 278.258 364.396 275.938C360.284 273.611 362.426 271.641 358.674 267.353C354.919 263.059 349.018 260.554 342.401 259.661C335.79 258.765 325.955 260.914 322.736 260.375C319.516 259.843 329.35 255.906 334.18 248.75C338.827 241.593 342.401 235.336 342.401 235.336Z" fill="#FF7823"/>
<path d="M396.579 509.164C399.798 504.695 402.661 494.501 403.375 489.671C404.089 484.839 404.985 483.229 401.229 484.485C397.474 485.556 393.898 486.805 393.898 486.805C393.898 486.805 393.898 490.564 393.898 495.215C394.076 502.55 394.615 512.023 396.579 509.164Z" fill="#465EBD"/>
<path d="M220.812 420.275L201.683 467.494L195.601 493.066C195.601 493.066 217.953 481.44 248.529 481.619C270.343 481.619 298.235 489.846 323.985 491.456C355.811 493.605 386.388 488.058 408.38 483.414C450.043 474.648 453.801 475.183 466.673 476.793C481.515 478.581 498.142 484.485 498.142 484.485C498.142 484.485 522.822 435.655 525.142 430.469C527.466 425.282 551.606 402.21 557.685 397.377C563.768 392.548 557.685 390.406 556.975 382.36C556.257 374.311 556.436 368.939 556.436 368.939C556.436 368.939 555.365 362.507 564.478 356.782C573.42 351.056 592.374 346.049 592.374 346.049C592.374 346.049 544.814 324.943 528.005 322.976C492.959 318.86 459.163 337.461 409.811 331.742C283.753 316.897 261.94 295.969 261.94 295.969L235.476 380.03L220.812 420.275Z" fill="white"/>
<path d="M514.594 416.159C510.121 413.296 508.693 417.233 504.581 419.557C500.823 421.524 497.071 423.851 492.959 424.922C489.386 426 485.088 428.32 481.158 427.788C479.37 427.609 476.15 426.892 474.544 425.821C472.755 424.744 471.146 423.134 468.818 422.955C465.063 422.955 463.275 426.175 460.416 427.963C455.586 430.822 450.757 433.328 446.823 437.804C444.856 439.946 443.785 442.633 441.105 444.061C438.959 445.314 435.74 445.492 434.13 447.459C433.413 448.173 430.553 451.039 431.092 452.467C431.985 454.252 434.49 454.252 436.1 454.969C437.885 455.868 439.32 457.475 441.105 458.549C443.61 459.984 446.466 460.516 449.154 461.587C451.834 462.658 454.155 464.807 456.482 466.417C458.806 468.026 461.844 469.461 464.885 469.104C465.956 468.922 466.855 468.387 468.104 468.205C469.889 468.026 472.217 468.565 473.826 467.845C475.436 467.134 475.076 464.628 477.4 464.992C481.337 465.703 482.408 469.993 484.731 472.681C486.166 474.284 488.13 474.647 490.096 475.361C491.528 475.9 494.03 477.15 495.283 475.54C498.142 472.142 497.788 468.205 499.392 464.453C501.54 459.62 506.908 452.467 505.831 446.924C505.114 443.526 501.722 442.094 498.681 441.556C496.717 441.202 494.212 441.023 494.569 438.339C495.101 434.045 501.54 434.759 504.581 433.51C507.262 432.432 507.801 430.469 509.943 428.68C510.839 427.963 512.449 427.424 513.163 426.538C515.49 423.851 517.635 418.126 514.594 416.159Z" fill="#FFCFC1"/>
<path d="M361.893 484.838C360.64 482.518 367.972 481.979 369.76 480.905C372.262 479.477 371.73 474.647 371.905 472.499C371.905 471.963 372.441 471.425 372.262 471.064C371.545 469.815 365.83 469.636 364.574 469.636C360.64 469.104 353.308 467.312 350.627 464.807C348.3 462.658 348.479 459.445 345.98 457.297C343.65 455.33 339.898 455.869 338.648 453.003C337.756 451.039 339.898 449.069 338.288 447.102C336.321 444.597 330.421 445.671 328.989 443.526C327.204 440.485 328.989 438.339 328.811 435.477C328.457 429.037 321.479 424.744 313.615 424.922C311.645 424.922 310.574 427.424 308.786 428.142C307.715 428.68 306.105 428.32 305.027 429.037C301.632 431.008 298.056 432.617 295.375 435.116C291.084 439.235 291.98 445.671 283.574 446.031C271.238 446.385 261.222 437.979 248.707 437.979C246.558 437.979 244.77 439.235 242.807 439.589C238.873 440.485 232.973 441.202 230.292 443.883C228.682 445.492 226.176 449.605 223.495 450.322C217.413 452.11 209.371 454.08 207.222 460.159C206.33 462.843 208.654 464.807 211.156 466.417C215.81 469.282 222.603 471.064 228.325 471.782C231.184 472.142 234.225 472.681 237.085 472.859C239.233 473.034 243.164 472.681 245.309 473.034C250.317 474.112 254.786 475.361 260.151 475.361C263.549 475.361 266.051 473.395 269.449 473.395C279.641 473.213 289.653 472.681 299.844 474.647C306.816 475.9 313.794 478.581 320.587 480.905C322.735 481.619 324.166 483.589 326.308 484.128C332.209 485.734 339.541 485.916 345.62 485.916C349.378 485.916 352.059 485.017 355.992 485.377C356.528 485.199 362.61 486.094 361.893 484.838Z" fill="#FFCFC1"/>
<path d="M226.537 444.775C228.325 443.704 230.292 443.526 231.899 442.633C234.583 441.202 235.829 437.804 237.624 435.655C240.126 432.796 246.38 429.391 250.135 428.502C256.396 427.071 264.442 426.175 270.699 427.963C275.889 429.391 281.251 432.971 286.973 431.361C291.802 429.933 292.513 425.104 294.483 421.524C295.911 419.022 299.312 416.698 301.454 414.728C307.893 409.72 321.479 413.297 323.985 403.102C324.521 401.135 324.521 399.526 324.521 397.556C324.521 394.696 323.628 392.369 322.375 389.688C321.126 387.007 319.337 384.68 317.189 382.36C314.686 379.679 312.723 376.096 309.857 373.947C308.786 373.055 305.388 371.627 304.135 373.237C303.243 374.486 303.064 376.631 303.064 378.241C303.064 379.319 303.418 380.571 303.603 381.643C303.778 384.148 303.603 387.721 302.347 390.045C301.454 391.655 299.127 392.369 297.696 391.12C296.985 390.406 296.631 389.688 295.911 388.971C295.015 387.721 294.301 386.829 293.59 385.576C292.513 383.788 291.62 382.178 291.263 380.211C291.085 378.955 290.546 373.947 292.334 373.412C296.631 372.162 298.773 376.096 301.276 370.913C302.886 367.69 300.737 364.827 300.026 361.789C299.666 360.718 299.312 358.213 300.383 357.314C305.028 353.562 313.077 359.819 317.189 354.99C318.977 353.023 319.156 351.056 319.87 348.733C321.304 344.078 327.205 337.289 321.304 333.352C317.549 330.849 312.006 333.17 307.893 331.921C303.064 330.311 299.312 326.913 294.301 325.478C291.085 324.586 287.865 326.374 284.47 326.552C272.669 326.913 259.252 320.116 251.031 331.742C249.061 334.423 249.6 337.642 248.35 340.502C247.455 342.475 245.848 344.26 244.949 346.227C244.238 348.194 244.595 349.447 244.417 351.413C244.238 355.172 243.518 359.102 243.346 362.86C243.164 367.868 244.595 373.412 242.09 378.063C240.126 382.178 235.118 382.532 232.434 385.751C229.929 388.617 227.965 393.979 228.325 397.737C228.682 400.775 229.575 403.462 229.036 406.5C227.608 414.728 222.425 422.241 220.994 430.469C220.455 433.688 220.101 439.946 222.425 442.451C223.853 443.347 225.638 445.314 226.537 444.775Z" fill="#FFCFC1"/>
<path d="M543.385 326.913C538.734 336.211 525.142 339.788 516.739 346.227C503.867 356.064 492.241 367.515 479.369 377.345C458.806 393.086 439.134 415.624 429.482 439.946C426.619 447.281 423.581 455.33 421.793 463.019C420.719 467.845 420.719 479.831 419.109 484.663C418.392 486.987 414.461 487.166 412.316 486.627C411.42 486.273 413.569 469.282 413.569 468.565C413.926 456.758 418.752 447.459 421.433 436.369C423.4 428.32 426.262 418.126 430.378 410.797C440.03 393.447 456.482 381.104 471.145 368.225C480.976 359.462 490.81 350.696 501.361 342.65C503.51 341.041 505.474 339.077 507.619 337.461C515.132 331.742 523.714 322.083 533.905 323.336C537.842 323.693 545.173 323.336 543.385 326.913Z" fill="#FFDDB2"/>
<path d="M448.436 477.328C442.714 472.32 429.122 468.026 422.329 464.807C401.23 454.613 380.133 444.421 360.105 432.079C342.939 421.524 332.567 418.126 315.939 406.861C306.998 400.775 291.796 386.65 283.575 380.03C274.812 372.876 267.662 364.11 259.437 356.603C258.366 355.526 241.915 338.36 239.945 339.252C235.297 341.219 249.246 357.674 251.567 359.641C259.97 366.976 267.662 375.025 276.243 382.36C289.654 393.625 302.526 405.608 315.939 416.698C325.238 424.39 338.649 429.038 349.018 434.941C362.072 442.451 375.126 449.783 387.997 457.118C397.475 462.658 407.487 466.955 416.967 472.499C420.719 474.823 430.2 481.44 434.844 481.265C436.632 481.087 449.686 478.581 448.436 477.328Z" fill="#FFDDB2"/>
<path d="M243.878 472.499C246.919 469.461 251.031 462.658 252.998 458.549C257.649 448.891 256.039 442.273 265.691 435.477C271.413 431.361 282.5 432.617 288.043 427.963C292.334 424.39 290.01 415.984 296.631 415.088C305.566 413.835 312.723 422.063 321.84 418.665C325.595 417.233 328.457 412.401 332.566 409.72C337.571 406.322 344.192 404.712 347.762 401.674C353.13 397.202 362.61 392.729 369.225 392.015C373.515 391.655 384.956 388.436 389.253 389.867C399.976 393.447 409.635 396.666 417.681 397.556C421.079 397.916 427.872 396.845 429.66 393.625C432.341 388.617 427.694 382 430.014 376.813C433.773 368.586 447.362 360.358 456.482 359.462C464.167 358.748 466.494 364.11 467.208 371.088C467.387 372.698 466.316 374.486 467.208 376.096C469.889 381.821 484.017 372.698 490.278 369.835C499.038 365.72 526.216 372.698 535.693 371.805C545.349 370.913 555.54 374.843 565.195 373.947C567.34 373.772 570.56 370.913 570.382 368.586C570.021 366.437 564.838 367.33 563.228 367.33C555.004 367.69 546.783 368.407 538.552 368.407C529.254 368.407 519.78 366.797 510.66 365.188C504.402 363.932 498.502 364.11 491.888 365.006C487.058 365.72 479.369 372.523 475.076 373.055C470.428 373.412 468.283 362.146 465.777 358.748C462.382 354.094 452.905 355.35 445.752 359.819C442.532 361.968 437.885 363.932 434.668 365.905C431.809 367.69 428.051 372.162 425.724 374.486C421.972 378.601 428.768 390.227 421.611 393.086C416.428 395.056 405.52 390.406 400.694 388.617C400.158 388.436 395.154 382.178 398.367 376.096C401.765 369.478 408.201 359.462 413.926 351.774C422.15 341.041 432.88 329.236 432.163 329.055C430.731 328.876 429.3 328.341 426.798 330.671C422.682 334.423 413.209 346.944 407.487 355.172C401.229 363.932 392.466 376.631 392.645 383.609C392.645 386.108 374.943 387.546 374.051 387.546C369.76 388.079 366.362 389.51 362.072 390.045C356.35 390.938 351.699 395.592 347.051 398.094C342.222 400.6 335.789 401.853 331.317 405.608C327.204 409.006 325.056 413.118 319.869 415.445C310.574 419.382 302.347 408.827 292.334 412.579C286.08 414.906 286.08 423.851 281.789 427.424C279.819 429.038 275.704 427.963 273.023 427.963C267.661 427.963 262.657 429.391 258.72 433.328C255.322 436.726 254.786 440.663 253.355 445.132C251.031 452.828 247.454 459.445 242.09 465.524C236.728 471.425 229.214 477.15 226.355 484.839C225.638 486.987 224.391 490.564 225.998 492.53C227.072 493.962 243.164 473.213 243.878 472.499Z" fill="#BDE8EF"/>
<path d="M539.088 397.916C524.607 389.688 508.694 386.29 493.138 381.282C483.661 378.241 475.975 374.665 467.387 370.014C458.806 365.366 449.511 364.649 441.105 360.001C428.768 353.383 418.392 342.475 406.776 334.958C405.167 334.063 395.329 327.805 395.865 333.884C396.047 335.857 400.159 337.289 401.408 338.178C407.13 341.758 412.852 345.156 418.577 348.554C428.411 354.273 436.989 362.507 446.651 367.868C452.013 370.913 458.452 372.162 464.168 374.665C468.458 376.631 471.86 380.211 476.15 382.36C480.619 384.502 485.627 385.041 490.278 386.469C495.461 388.079 501.183 389.335 506.191 391.298C513.341 394.158 518.346 398.455 526.395 399.344C529.254 399.704 541.594 399.344 539.088 397.916Z" fill="#FFEBB5"/>
<path d="M326.848 318.685C331.671 338.36 336.678 359.284 338.649 379.494C339.541 389.688 335.247 400.421 335.429 410.616C335.789 424.03 338.11 440.845 342.939 453.36C345.802 461.234 347.051 469.636 350.092 477.328C351.342 480.548 355.811 487.166 354.74 490.564C354.205 492.174 350.092 492.706 349.018 493.251C347.59 493.962 345.263 485.734 344.903 484.663C340.972 474.284 337.756 463.914 334.358 453.542C332.57 448.352 333.102 442.812 332.388 437.444C330.067 421.524 328.99 406.143 328.99 390.045C328.99 382.178 330.6 374.126 329.168 366.259C327.026 354.455 324.699 342.65 322.736 330.85C322.197 328.165 318.085 319.045 319.156 316.712C319.87 314.93 326.669 317.968 326.848 318.685Z" fill="#FFEBB5"/>
<path d="M237.446 355.883C241.558 354.812 264.981 350.342 292.695 344.796C330.421 337.289 376.375 327.984 394.615 323.154C419.47 316.358 406.591 325.835 406.591 325.835C407.309 327.627 233.509 362.322 233.148 361.608C230.292 355.704 233.866 356.782 237.446 355.883Z" fill="#FFEBB5"/>
<path d="M409.989 452.649C416.967 450.854 415.357 435.655 417.321 428.859C418.931 422.955 424.831 411.69 420.541 405.968C417.681 402.031 411.421 404.173 407.487 404.358C401.23 404.712 393.719 404.712 387.459 404.173C380.133 403.462 372.802 401.674 365.47 403.462C360.462 404.712 355.094 407.578 351.163 410.976C350.092 411.868 348.301 414.195 348.84 415.799C350.449 420.813 356.171 423.494 360.283 426C367.794 430.647 376.021 434.759 383.168 439.767C392.109 446.21 399.259 455.33 409.989 452.649Z" fill="#D8DFAA"/>
<path d="M343.832 395.952C350.271 395.056 352.952 389.15 359.57 387.186C368.687 384.502 384.778 384.862 390.503 375.203C392.467 371.627 392.827 367.33 394.969 363.932C397.296 360.358 404.628 355.526 403.911 350.696C402.661 340.865 385.135 332.813 376.554 336.571C370.654 339.077 364.396 342.115 358.135 343.546C352.774 344.796 342.401 344.439 339.003 349.625C335.962 354.273 337.393 359.819 338.289 364.649C339.72 371.445 340.973 378.063 340.973 385.041C341.151 388.796 338.828 396.666 343.832 395.952Z" fill="#D8DFAA"/>
<path d="M403.557 386.829C406.776 389.334 418.577 396.666 421.612 390.227C423.222 386.65 420.541 381.104 421.433 376.992C422.683 371.266 430.914 365.187 425.192 360.001C416.072 351.952 406.238 363.578 403.557 371.805C401.587 376.992 398.367 382.714 403.557 386.829Z" fill="#D8DFAA"/>
<path d="M424.117 467.673C424.117 464.093 421.258 461.055 417.86 461.055C414.286 461.055 411.599 464.093 411.599 467.673C411.599 471.249 414.462 474.284 417.86 474.284C421.258 474.284 424.117 471.425 424.117 467.673Z" fill="#FFBAA6"/>
<path d="M460.416 417.055C460.416 413.478 457.553 410.437 454.155 410.437C450.582 410.437 447.901 413.478 447.901 417.055C447.901 420.632 450.757 423.673 454.155 423.673C457.553 423.673 460.416 420.813 460.416 417.055Z" fill="#FFBAA6"/>
<path d="M392.467 372.522C392.467 368.939 389.607 365.905 386.213 365.905C382.636 365.905 379.952 368.939 379.952 372.522C379.952 376.096 382.814 379.134 386.213 379.134C389.607 379.134 392.467 376.274 392.467 372.522Z" fill="#FFBAA6"/>
<path d="M313.794 372.338C313.794 368.764 310.935 365.72 307.536 365.72C303.957 365.72 301.276 368.764 301.276 372.338C301.276 375.914 304.135 378.955 307.536 378.955C310.935 378.955 313.794 376.096 313.794 372.338Z" fill="#FFBAA6"/>
<path d="M290.192 442.812C290.192 439.235 287.33 436.191 283.935 436.191C280.534 436.191 277.674 439.235 277.674 442.812C277.674 446.385 280.534 449.429 283.935 449.429C287.33 449.429 290.192 446.385 290.192 442.812Z" fill="#FFBAA6"/>
<path d="M535.515 334.423C535.693 334.423 536.047 334.423 536.232 334.244C538.734 332.099 541.055 330.486 543.385 329.237C543.917 328.876 544.096 328.341 543.917 327.805C543.739 327.266 543.025 327.091 542.486 327.266C539.984 328.522 537.657 330.132 534.976 332.459C534.444 332.813 534.444 333.53 534.797 333.884C534.976 334.244 535.336 334.423 535.515 334.423ZM522.461 346.584C522.636 346.584 523 346.584 523.175 346.406C525.324 344.617 527.466 342.475 529.793 340.327C530.153 339.97 530.153 339.252 529.793 338.892C529.436 338.538 528.722 338.538 528.361 338.892C526.041 341.041 524.071 343.007 521.922 344.977C521.39 345.334 521.39 346.049 521.744 346.406C521.922 346.406 522.104 346.584 522.461 346.584ZM507.979 357.139C508.158 357.139 508.512 357.139 508.693 356.96C511.199 354.99 513.519 353.383 515.843 351.774C516.382 351.413 516.382 350.696 516.025 350.342C515.665 349.804 514.951 349.804 514.594 350.164C512.27 351.774 509.943 353.562 507.44 355.526C506.902 355.883 506.902 356.603 507.262 356.96C507.44 356.96 507.801 357.139 507.979 357.139ZM494.212 368.407C494.387 368.407 494.747 368.407 494.922 368.225C497.249 366.259 499.573 364.47 501.722 362.507C502.257 362.147 502.257 361.429 501.9 361.072C501.54 360.537 500.823 360.537 500.469 360.89C498.142 362.861 495.818 364.649 493.498 366.619C492.959 366.976 492.959 367.69 493.316 368.047C493.498 368.225 493.851 368.407 494.212 368.407ZM480.441 379.851C480.619 379.851 480.976 379.851 481.158 379.679C483.479 377.706 485.806 375.914 487.951 373.947C488.49 373.594 488.49 372.876 488.129 372.523C487.776 371.984 487.058 371.984 486.698 372.338C484.371 374.311 482.229 376.096 479.905 378.063C479.37 378.423 479.37 379.134 479.727 379.494C479.905 379.679 480.08 379.851 480.441 379.851ZM466.316 390.766C466.494 390.766 466.855 390.766 467.033 390.584C467.926 389.867 468.818 389.335 469.714 388.617C471.145 387.546 472.755 386.29 474.18 385.219C474.719 384.862 474.719 384.148 474.365 383.788C474.005 383.249 473.287 383.249 472.934 383.609C471.499 384.68 469.889 385.936 468.458 387.008C467.569 387.722 466.673 388.257 465.777 388.971C465.238 389.335 465.238 390.045 465.599 390.406C465.599 390.584 465.956 390.766 466.316 390.766ZM453.084 402.749C453.441 402.749 453.801 402.57 453.976 402.392C455.586 400.243 457.735 398.273 460.055 396.128C460.416 395.774 460.594 395.057 460.237 394.696C459.877 394.343 459.163 394.158 458.806 394.518C456.303 396.666 454.155 398.812 452.545 401.135C452.191 401.674 452.191 402.21 452.727 402.57C452.545 402.749 452.905 402.749 453.084 402.749ZM443.431 417.772C443.785 417.772 444.142 417.587 444.324 417.409C445.035 416.338 445.752 415.445 446.466 414.374C447.54 412.94 448.436 411.33 449.332 409.72C449.686 409.181 449.51 408.467 448.972 408.289C448.436 407.932 447.722 408.11 447.54 408.649C446.651 410.08 445.752 411.69 444.856 413.118C444.142 414.196 443.431 415.088 442.714 415.984C442.354 416.516 442.532 417.055 442.893 417.409C443.071 417.772 443.25 417.772 443.431 417.772ZM433.234 432.432C433.594 432.432 433.951 432.257 434.13 431.9C435.382 429.573 436.814 427.425 438.959 424.565C439.319 424.033 439.134 423.491 438.781 423.134C438.242 422.78 437.71 422.955 437.349 423.312C435.201 426.175 433.594 428.681 432.341 431.008C431.984 431.54 432.341 432.257 432.702 432.432C432.88 432.432 433.059 432.432 433.234 432.432ZM425.724 448.712C426.087 448.712 426.619 448.534 426.801 447.995C428.051 444.954 429.3 442.094 430.378 439.767C430.553 439.235 430.378 438.518 429.839 438.339C429.3 438.158 428.59 438.339 428.411 438.875C427.333 441.023 426.087 444.061 424.831 447.102C424.653 447.635 424.831 448.352 425.37 448.534C425.548 448.712 425.724 448.712 425.724 448.712ZM421.612 466.063C422.15 466.063 422.683 465.703 422.683 464.992C422.868 463.204 422.868 461.948 423.221 460.695C423.4 459.26 423.76 457.835 424.117 456.401C424.299 455.869 423.939 455.33 423.4 455.151C422.868 454.97 422.329 455.33 422.15 455.869C421.793 457.475 421.433 458.906 421.258 460.338C421.079 461.587 420.898 463.019 420.719 464.807C420.541 465.524 420.898 465.878 421.612 466.063ZM418.931 483.589C419.291 483.589 419.648 483.414 419.827 483.05C421.079 480.726 421.793 477.867 422.15 474.112C422.15 473.573 421.793 473.034 421.258 472.859C420.719 472.859 420.18 473.213 420.002 473.752C419.648 477.328 418.931 479.831 417.86 481.979C417.681 482.518 417.86 483.229 418.392 483.414C418.577 483.589 418.752 483.589 418.931 483.589Z" fill="#C7989D"/>
<path d="M551.428 338.178C551.788 338.178 552.145 337.999 552.324 337.821C552.859 337.289 553.216 336.571 553.57 335.857C554.287 334.78 554.826 333.884 555.54 333.17C555.897 332.813 555.897 332.099 555.54 331.742C555.18 331.382 554.469 331.382 554.109 331.742C553.216 332.635 552.499 333.709 551.96 334.78C551.606 335.319 551.249 336.033 550.714 336.571C550.357 337.107 550.535 337.642 550.889 337.999C550.889 338.178 551.074 338.178 551.428 338.178ZM536.232 347.483C536.407 347.483 536.586 347.483 536.586 347.298C537.303 346.944 538.017 346.584 538.913 346.227C540.876 345.334 542.846 344.439 544.813 343.546C545.349 343.186 545.527 342.65 545.349 342.115C544.989 341.576 544.456 341.398 543.917 341.576C542.132 342.475 540.166 343.368 538.196 344.26C537.482 344.617 536.586 344.977 535.872 345.334C535.336 345.51 535.158 346.227 535.336 346.766C535.515 347.123 535.872 347.483 536.232 347.483ZM521.39 357.139C521.565 357.139 521.922 357.139 522.104 356.96C524.785 354.811 527.112 353.202 529.254 351.592C529.793 351.235 529.793 350.518 529.436 350.164C529.076 349.625 528.362 349.625 528.004 349.982C525.856 351.592 523.532 353.202 520.851 355.35C520.316 355.704 520.316 356.421 520.673 356.782C520.673 356.96 521.033 357.139 521.39 357.139ZM507.441 368.407C507.619 368.407 507.979 368.407 508.158 368.225C510.66 366.437 512.984 364.47 515.133 362.682C515.665 362.322 515.665 361.608 515.311 361.251C514.951 360.718 514.234 360.718 513.88 361.072C511.734 362.86 509.411 364.827 506.902 366.619C506.37 366.976 506.37 367.69 506.73 368.047C506.73 368.225 507.084 368.407 507.441 368.407ZM492.066 377.706C492.242 377.706 492.42 377.706 492.599 377.53C494.922 376.453 496.717 375.382 498.142 374.665C498.859 374.311 499.752 373.772 500.469 373.237C501.001 372.876 501.183 372.338 500.823 371.805C500.469 371.266 499.93 371.088 499.392 371.445C498.681 371.984 497.967 372.338 497.071 372.698C495.64 373.594 493.851 374.486 491.528 375.56C490.989 375.742 490.81 376.453 490.989 376.992C491.349 377.345 491.706 377.706 492.066 377.706ZM476.15 385.576C476.329 385.576 476.507 385.576 476.686 385.398C479.37 383.963 482.229 382.532 484.731 381.461C485.27 381.282 485.449 380.571 485.27 380.029C485.088 379.494 484.371 379.319 483.839 379.494C481.515 380.744 478.656 382 475.79 383.609C475.258 383.963 475.076 384.502 475.436 385.041C475.258 385.398 475.79 385.576 476.15 385.576ZM461.308 395.592C461.665 395.592 461.844 395.413 462.025 395.235C463.814 393.447 465.956 391.655 468.818 389.867C469.354 389.51 469.536 388.796 469.175 388.435C468.818 388.078 468.104 387.721 467.744 388.078C464.885 390.045 462.382 391.837 460.594 393.804C460.237 394.157 460.237 394.875 460.594 395.235C460.773 395.413 461.133 395.592 461.308 395.592Z" fill="#C7989D"/>
<path d="M247.277 347.483C247.455 347.483 247.815 347.483 247.991 347.298C248.529 346.944 248.529 346.227 248.169 345.867C246.559 343.9 246.027 343.007 245.848 342.65V342.475C245.848 341.936 245.31 341.398 244.771 341.398C244.239 341.398 243.525 341.936 243.525 342.65C243.525 343.007 243.525 343.546 246.559 347.298C246.559 347.483 246.919 347.483 247.277 347.483ZM260.152 359.819C260.509 359.819 260.869 359.641 261.041 359.462C261.401 358.924 261.401 358.388 260.869 358.031L260.687 357.853C258.367 356.064 256.218 354.273 254.069 352.491C253.716 352.131 252.998 352.131 252.641 352.491C252.281 352.845 252.281 353.562 252.641 353.916C254.787 355.883 257.111 357.674 259.438 359.462L259.613 359.641C259.791 359.641 259.97 359.819 260.152 359.819ZM273.384 371.805C273.562 371.805 273.919 371.805 274.095 371.445C274.455 371.088 274.633 370.374 274.28 370.014C272.131 367.515 269.989 365.366 268.019 363.578C267.662 363.218 266.948 363.218 266.588 363.578C266.231 363.932 266.231 364.649 266.588 365.006C268.558 366.797 270.7 368.939 272.67 371.266C272.848 371.627 273.024 371.805 273.384 371.805ZM284.646 385.751C284.824 385.751 285.185 385.751 285.363 385.576C285.895 385.219 285.895 384.502 285.542 384.148C284.471 382.892 283.575 381.643 282.682 380.39C281.79 379.319 280.891 378.241 280.18 377.17C279.82 376.631 279.109 376.631 278.749 376.992C278.21 377.345 278.21 378.063 278.57 378.423C279.463 379.494 280.355 380.572 281.073 381.643C281.965 382.892 283.039 384.148 284.11 385.398C283.935 385.576 284.292 385.751 284.646 385.751ZM296.632 398.812C296.986 398.812 297.164 398.633 297.343 398.455C297.696 398.094 297.696 397.377 297.164 397.023C295.197 395.235 293.052 393.086 290.907 390.766C290.546 390.406 289.832 390.227 289.475 390.766C289.122 391.12 288.937 391.837 289.475 392.194C291.621 394.696 293.766 396.666 295.911 398.633C296.272 398.812 296.447 398.812 296.632 398.812ZM311.289 409.006C311.646 409.006 312.006 408.827 312.185 408.467C312.538 407.932 312.363 407.218 311.828 407.039C309.147 405.429 306.644 403.819 304.317 402.391C303.779 402.031 303.243 402.21 302.886 402.748C302.526 403.281 302.707 403.819 303.243 404.173C305.567 405.79 308.072 407.393 310.935 409.006C310.935 409.006 311.113 409.006 311.289 409.006ZM327.205 417.409C327.559 417.409 327.919 417.233 328.098 416.876C328.458 416.338 328.098 415.624 327.559 415.445L325.056 414.196C323.268 413.297 321.48 412.401 319.695 411.33C319.156 410.976 318.439 411.33 318.267 411.868C317.906 412.401 318.267 413.118 318.799 413.297C320.587 414.196 322.376 415.267 324.346 416.159L326.848 417.409C326.848 417.409 327.026 417.409 327.205 417.409ZM342.761 426.175C343.118 426.175 343.478 426 343.65 425.639C344.011 425.104 343.832 424.39 343.293 424.205L341.862 423.312C339.898 422.063 337.932 420.992 335.608 419.736C335.072 419.382 334.358 419.557 334.18 420.096C333.819 420.632 333.998 421.346 334.537 421.524C336.861 422.78 338.827 423.851 340.791 425.104L342.222 426C342.401 426.175 342.579 426.175 342.761 426.175ZM357.6 436.015C357.96 436.015 358.314 435.837 358.495 435.477C358.852 434.941 358.674 434.406 358.135 434.045L354.74 431.722C353.491 430.823 352.06 429.933 350.81 429.038C350.271 428.681 349.732 428.859 349.379 429.398C349.018 429.933 349.194 430.469 349.732 430.823C350.988 431.722 352.413 432.617 353.669 433.51L357.064 435.837C357.243 436.015 357.421 436.015 357.6 436.015ZM372.802 445.493C373.156 445.493 373.516 445.314 373.694 444.954C374.051 444.421 373.873 443.704 373.337 443.526C371.014 442.273 368.511 440.663 365.645 439.057C365.113 438.696 364.396 438.875 364.214 439.414C363.86 439.946 364.036 440.663 364.574 440.845C367.255 442.633 369.936 444.061 372.263 445.493C372.442 445.493 372.623 445.493 372.802 445.493ZM389.069 452.649C389.607 452.649 389.964 452.289 390.146 451.932C390.325 451.393 389.964 450.679 389.429 450.5C386.213 449.429 383.886 448.534 381.737 447.635L381.205 447.459C380.666 447.281 379.952 447.459 379.773 447.995C379.595 448.534 379.773 449.251 380.312 449.429L380.848 449.605C383.168 450.5 385.495 451.393 388.715 452.467C388.893 452.649 389.069 452.649 389.069 452.649ZM406.059 458.371C406.416 458.371 406.776 458.189 406.952 457.657C407.13 457.118 406.952 456.401 406.416 456.226C404.089 455.151 401.408 454.252 398.01 453.003C397.475 452.827 396.757 453.181 396.579 453.72C396.4 454.252 396.757 454.97 397.296 455.151C400.694 456.226 403.197 457.118 405.52 458.189C405.699 458.371 405.877 458.371 406.059 458.371ZM421.794 466.955C422.151 466.955 422.508 466.777 422.683 466.417C423.043 465.878 422.868 465.167 422.329 464.992C419.47 463.204 416.968 461.769 414.64 460.338C414.102 459.984 413.391 460.159 413.209 460.695C412.852 461.234 413.031 461.948 413.569 462.126C415.897 463.376 418.392 464.992 421.258 466.595C421.433 466.955 421.612 466.955 421.794 466.955ZM436.632 476.793C436.989 476.793 437.35 476.611 437.525 476.257C437.885 475.718 437.71 475.183 437.171 474.823L433.952 472.681C432.52 471.782 431.271 470.892 429.839 469.993C429.301 469.636 428.768 469.815 428.411 470.354C428.051 470.892 428.23 471.425 428.768 471.782C430.2 472.681 431.449 473.573 432.881 474.469L436.1 476.611C436.275 476.793 436.454 476.793 436.632 476.793Z" fill="#C7989D"/>
<path d="M433.058 559.603C436.814 561.57 439.851 563.715 447.183 561.57C457.017 558.526 470.253 551.019 477.938 542.252C488.846 529.734 498.142 520.072 509.05 504.338C517.635 491.995 523.892 482.518 533.726 470.892C536.407 467.673 540.165 466.063 545.348 463.019C549.279 460.695 554.826 457.118 558.399 454.97C563.767 451.571 572.887 442.273 575.211 438.875C577.889 434.759 576.282 432.971 576.999 429.219C577.531 426.353 579.502 421.345 580.219 418.126C580.93 415.624 579.68 413.835 579.502 410.976C579.141 406.5 582.007 404.89 580.573 401.135C579.68 398.633 573.958 396.845 572.702 394.696C570.382 390.406 571.277 378.601 568.236 374.843C562.875 368.407 551.249 373.055 545.348 375.025C542.664 375.914 539.088 377.706 536.764 379.494C533.726 381.821 531.402 383.431 532.116 386.29C533.366 390.406 538.374 389.51 542.664 388.257C548.029 386.829 554.647 385.219 555.718 386.29C557.506 388.078 555.54 394.875 555.179 396.306C554.826 397.555 548.029 396.666 543.203 396.845C535.871 397.202 522.461 400.96 513.519 402.924C507.262 404.358 504.221 404.712 502.079 407.932C500.647 410.259 504.221 411.69 504.759 414.728C505.473 417.587 505.652 419.917 507.619 422.063C512.091 426.71 519.241 428.502 519.78 428.502C520.851 428.68 522.104 432.971 522.104 435.298C522.104 436.369 511.02 459.984 507.801 464.807C506.369 466.955 497.967 485.377 497.967 485.377C497.967 485.377 479.369 478.581 470.785 477.507C452.727 475.183 444.856 477.682 439.673 478.399C434.49 478.938 427.872 481.265 421.611 482.158C416.428 482.875 409.635 482.696 406.059 484.838C402.485 487.166 400.515 502.011 400.337 500.936C400.515 500.401 415.536 550.12 433.058 559.603Z" fill="#FEE4D6"/>
<path d="M167.348 444.597C165.559 448.352 167.348 426.353 167.348 424.205C167.348 422.063 166.991 423.134 163.774 422.602C160.555 422.063 149.468 422.063 144.463 420.274C139.277 418.486 127.655 418.126 122.465 415.624C117.282 413.296 111.563 410.437 111.563 414.196C111.742 417.947 109.953 441.202 109.418 450.143C108.7 459.085 106.198 477.682 106.02 488.597C105.841 499.508 104.05 519.183 106.737 527.407C109.418 535.456 110.667 546.543 114.961 552.447C119.252 558.347 123.364 563.534 127.119 565.504C130.871 567.47 132.841 567.652 137.846 565.864C142.854 564.072 151.613 557.098 157.695 552.807C163.774 548.516 167.348 539.572 170.567 532.415C173.787 525.262 188.45 493.423 191.849 486.273C195.243 479.117 195.422 478.399 198.103 475.9C200.784 473.395 203.649 473.395 207.94 470.353C212.231 467.134 217.235 461.947 221.172 459.085C225.106 456.226 230.114 456.226 235.657 453.898C241.376 451.571 245.488 450.143 248.529 447.635C251.567 445.132 251.21 442.451 249.6 440.663C247.99 438.875 249.96 438.696 250.85 435.655C251.927 432.617 251.388 429.219 252.106 426.353C252.82 423.494 252.998 420.813 252.281 417.772C251.567 414.728 249.425 412.764 245.488 411.508C241.558 410.259 228.504 404.358 225.638 403.102C222.782 401.853 221.886 400.421 227.608 398.455C233.333 396.306 245.666 393.086 251.567 393.804C257.467 394.518 266.948 397.916 270.161 398.273C273.562 398.633 278.57 398.273 279.641 394.696C280.712 391.12 279.281 390.944 274.455 389.51C269.628 388.078 259.437 383.249 253.715 381.461C247.99 379.679 243.346 377.53 235.118 379.851C226.894 382.178 221.526 382.532 215.272 385.041C209.011 387.546 204.185 388.435 200.605 395.592C197.032 402.748 193.458 412.401 188.45 419.736C183.443 427.071 179.687 428.32 175.397 432.971C171.106 437.625 168.065 442.812 167.348 444.597Z" fill="#FEE4D6"/>
<path d="M303.957 218.702C304.135 218.702 304.317 218.702 304.317 218.524C311.467 215.304 310.396 211.731 309.147 207.972C308.786 206.544 308.247 205.11 308.072 203.325C307.894 201.176 308.786 199.031 309.504 197.421C309.679 197.061 309.857 196.704 310.036 196.344C310.218 195.811 310.036 195.094 309.325 194.919C308.786 194.734 308.072 194.919 307.894 195.63C307.715 195.99 307.715 196.344 307.537 196.704C306.816 198.492 305.567 200.998 305.927 203.679C306.105 205.649 306.644 207.255 307.176 208.865C308.432 212.623 308.965 214.233 303.603 216.739C303.064 216.914 302.886 217.631 303.064 218.164C303.243 218.524 303.603 218.702 303.957 218.702Z" fill="#353131"/>
<path d="M350.923 213.087L350.922 213.087L350.926 213.076C350.99 212.885 350.961 212.645 350.856 212.451C350.75 212.255 350.597 212.156 350.449 212.156H350.41L350.372 212.144C350.177 212.08 349.934 212.111 349.738 212.217C349.542 212.323 349.443 212.475 349.443 212.623V212.658L349.434 212.691C346.123 224.508 341.061 237.465 333.457 247.339C325.848 257.218 315.676 264.027 302.162 263.485C291.709 263.124 281.997 257.673 274.324 249.976C266.652 242.28 260.997 232.319 258.658 222.888C258.509 222.45 258.094 222.215 257.728 222.337L257.727 222.338C257.287 222.484 257.046 222.901 257.169 223.279L257.172 223.288L257.174 223.296C259.577 232.995 265.453 243.239 273.425 251.168C281.395 259.096 291.44 264.689 302.177 265.133H302.177H302.178H302.179H302.18H302.181H302.182H302.183H302.184H302.186H302.187H302.188H302.189H302.19H302.191H302.192H302.194H302.195H302.196H302.197H302.198H302.2H302.201H302.202H302.203H302.205H302.206H302.207H302.209H302.21H302.211H302.212H302.214H302.215H302.216H302.218H302.219H302.22H302.222H302.223H302.224H302.226H302.227H302.229H302.23H302.231H302.233H302.234H302.236H302.237H302.239H302.24H302.242H302.243H302.245H302.246H302.247H302.249H302.25H302.252H302.254H302.255H302.257H302.258H302.26H302.261H302.263H302.264H302.266H302.268H302.269H302.271H302.272H302.274H302.276H302.277H302.279H302.28H302.282H302.284H302.285H302.287H302.289H302.291H302.292H302.294H302.296H302.297H302.299H302.301H302.302H302.304H302.306H302.308H302.309H302.311H302.313H302.315H302.317H302.318H302.32H302.322H302.324H302.326H302.327H302.329H302.331H302.333H302.335H302.337H302.339H302.34H302.342H302.344H302.346H302.348H302.35H302.352H302.354H302.356H302.358H302.359H302.361H302.363H302.365H302.367H302.369H302.371H302.373H302.375H302.377H302.379H302.381H302.383H302.385H302.387H302.389H302.391H302.393H302.395H302.397H302.399H302.402H302.404H302.406H302.408H302.41H302.412H302.414H302.416H302.418H302.42H302.422H302.425H302.427H302.429H302.431H302.433H302.435H302.437H302.44H302.442H302.444H302.446H302.448H302.451H302.453H302.455H302.457H302.459H302.462H302.464H302.466H302.468H302.471H302.473H302.475H302.477H302.48H302.482H302.484H302.486H302.489H302.491H302.493H302.496H302.498H302.5H302.502H302.505H302.507H302.509H302.512H302.514H302.517H302.519H302.521H302.524H302.526H302.528H302.531H302.533H302.535H302.538H302.54H302.543H302.545H302.547H302.55H302.552H302.555H302.557H302.56H302.562H302.564H302.567H302.569H302.572H302.574H302.577H302.579H302.582H302.584H302.587H302.589H302.592H302.594H302.597H302.599H302.602H302.604H302.607H302.609H302.612H302.614H302.617H302.619H302.622H302.625H302.627H302.63H302.632H302.635H302.637H302.64H302.643H302.645H302.648H302.65H302.653H302.656H302.658H302.661H302.663H302.666H302.669H302.671H302.674H302.677H302.679H302.682H302.684H302.687H302.69H302.692H302.695H302.698H302.7H302.703H302.706H302.708H302.711H302.714H302.717H302.719H302.722H302.725H302.727H302.73H302.733H302.736H302.738H302.741H302.744H302.746H302.749H302.752H302.755H302.757H302.76H302.763H302.766H302.768H302.771H302.774H302.777H302.78H302.782H302.785H302.788H302.791H302.793H302.796H302.799H302.802H302.805H302.807H302.81H302.813H302.816H302.819H302.822H302.824H302.827H302.83H302.833H302.836H302.839H302.841H302.844H302.847H302.85H302.853H302.856H302.859H302.861H302.864H302.867H302.87H302.873H302.876H302.879H302.882H302.884H302.887H302.89H302.893H302.896H302.899H302.902H302.905H302.908H302.911H302.914H302.916H302.919H302.922H302.925H302.928H302.931H302.934H302.937H302.94H302.943H302.946H302.949H302.952H302.955H302.958H302.961H302.964H302.966H302.969H302.972H302.975H302.978H302.981H302.984H302.987H302.99H302.993H302.996H302.999H303.002H303.005H303.008H303.011H303.014H303.017H303.02H303.023H303.026H303.029H303.032H303.035H303.038H303.041H303.044H303.047H303.05H303.053H303.056H303.059H303.062H303.065H303.068H303.071H303.074H303.077H303.081H303.084H303.087H303.09H303.093H303.096H303.099H303.102H303.105H303.108H303.111H303.114H303.117H303.12H303.123H303.126H303.129H303.132H303.135H303.139H303.142H303.145H303.148H303.151H303.154H303.157H303.16H303.163H303.166H303.169H303.172H303.175H303.178H303.182H303.185H303.188H303.191H303.194H303.197H303.2H303.203H303.206H303.209H303.212H303.216H303.219H303.222H303.225H303.228H303.231H303.234H303.237H303.24H303.243H303.246H303.25H303.253H303.256H303.259H303.262H303.265H303.268H303.271H303.274H303.278H303.281H303.284H303.287H303.29H303.293H303.296H303.299H303.302H303.306H303.309H303.312H303.315H303.318H303.321H303.324H303.327H303.33H303.334H303.337H303.34H303.343H303.346H303.349H303.352H303.355H303.359H303.362H303.365H303.368H303.371H303.374H303.377H303.38H303.383H303.387H303.39H303.393H303.396H303.399H303.402H303.405H303.408H303.412H303.415H303.418C316.908 265.133 327.08 258.126 334.738 248.106C342.4 238.081 347.53 225.059 350.923 213.087Z" fill="#353131" stroke="black" stroke-width="0.5"/>
<path d="M351.521 198.671C352.06 198.671 352.413 198.317 352.598 197.778C353.131 194.734 353.491 191.696 353.845 188.123C353.845 187.584 353.491 187.045 352.774 187.045C352.235 187.045 351.699 187.405 351.699 188.123C351.342 191.521 350.989 194.734 350.628 197.6C350.45 198.132 350.989 198.671 351.521 198.849C351.521 198.671 351.521 198.671 351.521 198.671Z" fill="black"/>
<path d="M338.288 169.516C338.648 169.516 339.002 169.34 339.187 168.983C339.541 168.445 339.362 167.906 339.002 167.552C333.459 163.615 326.669 162.898 321.304 165.942C320.765 166.296 320.587 166.835 320.947 167.374C321.304 167.906 321.839 168.084 322.375 167.731C327.026 165.225 332.926 165.764 337.931 169.34C337.931 169.516 338.109 169.516 338.288 169.516Z" fill="#353131"/>
<path d="M279.819 195.273C279.995 192.413 281.429 190.265 283.039 190.265C284.824 190.265 286.08 192.592 285.895 195.451C285.72 198.317 284.292 200.459 282.682 200.459C281.072 200.459 279.819 198.132 279.819 195.273Z" fill="#353131"/>
<path d="M323.985 197.421C324.167 194.559 325.595 192.413 327.205 192.413C328.99 192.413 330.246 194.734 330.067 197.6C329.885 200.459 328.457 202.608 326.848 202.608C325.238 202.608 323.985 200.28 323.985 197.421Z" fill="#353131"/>
<path d="M251.21 213.516C251.748 213.516 252.281 212.98 252.281 212.445C252.281 211.906 251.927 211.367 251.21 211.367C246.559 211.192 243.164 206.72 241.557 204.217C239.234 200.28 237.624 195.451 237.799 192.053C237.978 189.551 239.049 185.974 241.019 184.186C242.09 183.293 243.164 182.93 244.417 183.108C247.098 183.468 247.99 184.543 249.246 185.795C249.778 186.328 250.135 186.867 250.849 187.405C251.388 187.762 251.927 187.762 252.281 187.227C252.641 186.688 252.641 186.153 252.105 185.795C251.567 185.435 251.21 184.896 250.677 184.364C249.425 182.93 247.99 181.505 244.595 180.966C242.807 180.788 241.019 181.32 239.587 182.576C236.906 184.718 235.657 189.012 235.657 191.874C235.475 195.63 237.085 200.998 239.766 205.288C242.807 210.475 246.919 213.341 251.21 213.516Z" fill="#353131"/>
<path d="M250.677 203.146H250.849C251.388 202.961 251.748 202.429 251.567 201.89C250.677 198.317 248.529 194.38 245.848 191.342C245.488 190.982 244.77 190.803 244.417 191.342C244.056 191.696 243.878 192.413 244.417 192.77C246.919 195.451 248.886 199.031 249.778 202.251C249.778 202.786 250.317 203.146 250.677 203.146Z" fill="#353131"/>
<path d="M348.84 192.592C349.193 192.592 349.378 192.413 349.554 192.232C362.25 178.818 366.184 165.764 361.354 152.168C361.179 151.633 360.462 151.273 359.923 151.458C359.391 151.633 359.031 152.35 359.212 152.882C363.682 165.582 359.923 178.1 347.944 190.803C347.59 191.16 347.59 191.875 347.944 192.232C348.301 192.413 348.661 192.592 348.84 192.592Z" fill="black"/>
<path d="M257.467 181.859C257.649 181.859 258.006 181.859 258.181 181.68C276.421 167.906 288.582 154.138 292.155 142.691V142.513C292.334 141.974 291.98 141.257 291.441 141.081C290.906 140.903 290.192 141.257 290.01 141.795V141.974C286.434 152.882 274.633 166.296 256.756 179.895C256.217 180.249 256.217 180.966 256.571 181.32C256.756 181.68 257.11 181.859 257.467 181.859Z" fill="black"/>
<path d="M265.692 121.942H265.87C270.881 120.871 275.889 119.615 280.355 116.396C284.11 113.715 287.684 110.317 291.085 107.1C298.235 100.122 305.213 93.6832 315.047 92.2552C322.197 91.1777 330.778 93.8617 335.429 98.8696C338.47 102.089 339.72 106.201 338.827 110.677C338.649 111.209 339.003 111.748 339.72 111.927C340.259 112.105 340.791 111.748 340.973 111.031C342.047 105.848 340.612 101.193 337.039 97.4416C332.031 92.0734 322.551 89.0356 314.865 90.2851C304.317 91.8949 296.985 98.8696 289.832 105.669C286.434 108.885 283.039 112.105 279.281 114.789C274.994 117.827 270.521 118.905 265.513 119.976C264.981 120.154 264.621 120.693 264.621 121.225C264.799 121.585 265.338 121.942 265.692 121.942Z" fill="black"/>
<path d="M241.197 183.469C241.376 183.469 241.729 183.469 241.914 183.293C242.447 182.93 242.447 182.216 242.09 181.859C238.873 177.568 237.445 172.914 238.156 167.906C238.156 167.374 237.799 166.835 237.264 166.656C236.728 166.656 236.189 167.014 236.014 167.552C235.297 172.914 236.907 178.285 240.48 182.93C240.48 183.293 240.837 183.469 241.197 183.469Z" fill="black"/>
<path d="M278.032 168.266C278.21 168.266 278.392 168.266 278.57 168.085C281.43 166.296 284.471 164.871 287.152 163.437C293.945 160.039 300.205 156.998 305.745 150.201C307.715 147.874 309.504 144.655 311.467 141.257C316.118 133.211 321.48 124.091 330.068 123.731C330.6 123.731 331.139 123.192 331.139 122.66C331.139 122.121 330.778 121.585 330.068 121.585C320.409 121.942 314.687 131.601 309.679 140.186C307.715 143.405 305.927 146.625 304.136 148.77C298.952 155.209 292.695 158.25 286.256 161.473C283.393 162.898 280.534 164.333 277.493 166.121C276.96 166.481 276.782 167.013 277.139 167.552C277.314 168.085 277.675 168.266 278.032 168.266Z" fill="black"/>
<path d="M336.86 174.17C337.217 174.17 337.392 173.988 337.571 173.81C346.512 164.154 343.831 150.558 341.151 141.081C340.258 137.683 336.321 126.95 328.989 127.31C328.457 127.31 327.918 127.843 327.918 128.382C327.918 128.917 328.457 129.453 328.989 129.453C333.64 129.277 337.392 135.895 339.002 141.795C341.861 151.457 344.01 163.794 335.961 172.56C335.607 172.914 335.607 173.631 335.961 173.988C336.321 174.17 336.5 174.17 336.86 174.17Z" fill="black"/>
<path d="M341.508 180.966C341.862 180.966 342.047 180.788 342.222 180.606C346.691 175.78 349.733 171.304 350.989 164.333C351.164 163.794 350.628 163.258 350.093 163.083C349.554 162.898 349.019 163.437 348.84 163.976C347.762 170.412 344.728 174.702 340.613 179.178C340.259 179.535 340.259 180.249 340.613 180.606C341.151 180.966 341.33 180.966 341.508 180.966Z" fill="black"/>
<path d="M231.539 130.709C239.409 130.709 242.986 121.41 245.667 113.893C246.741 110.855 247.815 108.168 248.886 106.386C258.72 90.9991 277.493 86.1697 291.621 86.887C296.986 87.0655 302.708 87.601 306.644 90.6453C307.177 90.9991 307.715 90.8238 308.072 90.4636C308.433 89.9281 308.248 89.3893 307.894 89.0355C303.418 85.8159 297.164 85.2772 291.621 84.9202C276.782 84.2061 257.289 89.214 246.92 105.487C245.667 107.457 244.596 110.317 243.518 113.358C240.837 120.693 237.624 129.099 231.003 128.738C230.293 128.738 229.929 129.099 229.929 129.813C229.929 130.348 230.293 130.887 231.003 130.887C231.364 130.709 231.539 130.709 231.539 130.709Z" fill="black"/>
<path d="M236.014 175.241C236.189 175.241 236.546 175.062 236.728 174.887C237.085 174.527 237.263 173.81 236.728 173.453C229.575 165.582 230.292 152.35 239.048 134.285C239.233 133.746 239.048 133.029 238.516 132.851C237.977 132.675 237.263 132.851 237.085 133.389C227.965 152.35 227.248 166.296 235.118 175.062C235.475 175.062 235.657 175.241 236.014 175.241Z" fill="black"/>
<path d="M132.484 567.652C142.494 567.652 153.759 557.993 160.016 552.625L160.555 552.268C165.384 548.156 173.787 529.374 182.55 509.346C187.912 497.181 193.459 484.663 198.103 475.9C198.46 475.361 198.103 474.647 197.749 474.469C197.389 474.284 196.493 474.469 196.315 474.823C191.67 483.589 186.127 496.11 180.58 508.447C172.177 527.229 163.596 546.722 159.124 550.48L158.588 550.837C152.328 556.205 140.705 566.039 131.231 565.143C128.19 564.79 125.685 563.355 123.543 560.856C116.389 552.09 108.347 542.074 106.912 517.93C106.02 500.936 108.162 474.823 110.132 453.72C110.849 444.954 111.563 437.265 111.92 431.361C112.281 426.175 112.459 420.813 112.638 415.267L112.813 412.939C112.813 412.401 112.459 411.868 111.742 411.868C111.203 411.868 110.668 412.225 110.668 412.939L110.489 415.267C110.311 420.813 109.954 426.175 109.778 431.361C109.418 437.265 108.701 444.775 107.983 453.541C106.198 474.647 103.871 500.936 104.77 518.109C106.198 542.97 114.423 553.339 121.754 562.284C124.253 565.328 127.295 567.113 131.053 567.47C131.585 567.652 132.124 567.652 132.484 567.652Z" fill="#353131"/>
<path d="M232.433 263.778L232.445 263.766L232.459 263.755C239.502 258.228 244.482 252.532 247.702 246.135C250.922 239.738 252.392 232.625 252.392 224.249C252.392 224.061 252.296 223.854 252.13 223.689C251.964 223.524 251.756 223.428 251.567 223.428C251.38 223.428 251.173 223.523 251.008 223.688C250.842 223.853 250.746 224.061 250.746 224.249C250.746 232.238 249.309 239.119 246.158 245.33C243.008 251.541 238.153 257.067 231.339 262.361L231.331 262.367L231.323 262.372C230.924 262.637 230.928 263.164 231.181 263.419L231.208 263.447L231.226 263.482C231.361 263.746 231.622 263.884 231.899 263.884C231.99 263.884 232.105 263.883 232.216 263.865C232.333 263.845 232.402 263.811 232.433 263.778Z" fill="#353131" stroke="#353131" stroke-width="0.5"/>
<path d="M115.85 504.516C116.211 504.516 116.568 504.338 116.749 503.978C119.252 499.687 122.825 497.003 127.654 493.251C137.485 485.734 152.506 474.469 173.965 436.191C174.326 435.655 174.147 434.941 173.608 434.759C173.07 434.406 172.356 434.581 172.177 435.12C151.078 472.859 136.236 484.128 126.402 491.456C121.572 495.039 117.642 498.074 114.961 502.728C114.601 503.26 114.779 503.978 115.318 504.159C115.493 504.516 115.678 504.516 115.85 504.516Z" fill="#353131"/>
<path d="M197.57 475.719C201.144 475.719 204.72 473.395 207.583 471.603C208.115 471.249 208.654 470.892 209.011 470.711C211.692 469.104 213.84 466.955 215.982 464.992C218.491 462.658 220.994 460.338 223.853 458.906C226.716 457.475 229.929 456.586 232.973 455.869C235.829 455.151 238.873 454.437 241.73 453.003L242.447 452.649C246.741 450.679 251.21 448.352 252.106 445.314C252.466 444.243 252.281 443.166 251.749 442.273L251.388 441.734C250.136 439.589 248.886 437.625 243.7 437.087C240.837 436.726 238.156 436.908 235.475 436.908C231.899 437.087 228.504 437.087 225.284 436.369C224.746 436.191 224.213 436.548 224.031 437.087C223.853 437.625 224.213 438.158 224.746 438.339C228.504 439.235 232.077 439.053 235.654 438.875C238.335 438.696 241.019 438.696 243.518 439.053C247.815 439.589 248.529 440.845 249.6 442.633L249.957 443.166C250.136 443.526 250.317 444.061 250.136 444.422C249.425 446.924 243.7 449.429 241.554 450.5L240.837 450.854C238.156 452.11 235.475 452.828 232.613 453.542C229.396 454.252 226.177 455.151 222.957 456.758C219.916 458.371 217.235 460.87 214.733 463.204C212.591 465.167 210.442 467.312 207.94 468.744C207.404 469.104 206.866 469.461 206.505 469.636C203.471 471.603 199.534 474.112 196.314 473.395C195.782 473.213 195.243 473.57 195.068 474.112C194.883 474.647 195.243 475.183 195.782 475.361C196.314 475.54 197.032 475.719 197.57 475.719Z" fill="#353131"/>
<path d="M248.886 438.875C249.061 438.875 249.061 438.696 248.886 438.875C250.85 438.696 252.281 436.726 252.82 433.688C253.18 431.008 252.641 427.788 250.496 426.71C245.488 424.39 241.019 423.673 235.829 422.955C231.724 422.241 227.608 421.703 222.603 420.096C222.065 419.917 221.347 420.274 221.347 420.813C221.172 421.346 221.526 422.063 222.065 422.063C227.248 423.673 231.724 424.205 235.657 424.922C240.659 425.821 245.134 426.353 249.779 428.502C250.678 428.859 251.21 431.008 250.85 433.15C250.496 434.941 249.779 436.369 248.886 436.548C248.351 436.548 247.815 437.087 247.99 437.804C247.99 438.339 248.351 438.875 248.886 438.875Z" fill="#353131"/>
<path d="M251.209 428.142C251.388 428.142 251.748 427.963 251.927 427.788C254.608 425.282 255.146 419.197 252.998 414.728C251.927 412.401 246.559 410.259 237.263 406.322C232.255 404.358 227.072 402.21 222.782 400.064C222.243 399.883 221.526 400.064 221.347 400.6C221.172 401.135 221.347 401.853 221.886 402.031C226.355 404.358 231.538 406.322 236.546 408.467C242.985 411.151 250.317 414.014 251.209 415.799C252.998 419.382 252.641 424.39 250.495 426.353C250.135 426.71 249.96 427.425 250.495 427.788C250.677 428.142 251.031 428.142 251.209 428.142Z" fill="#353131"/>
<path d="M173.07 436.015C173.248 436.015 173.609 435.837 173.787 435.655C175.397 434.227 177.007 432.796 178.617 431.361C182.729 427.788 187.198 424.03 190.239 419.022C192.203 415.984 193.812 412.401 195.422 408.467C199.891 398.633 204.364 388.435 213.841 386.29C217.057 385.576 220.277 384.68 223.142 383.788C235.297 380.39 244.949 377.706 257.468 383.609C261.583 385.576 271.952 389.51 276.243 391.12C278.57 392.015 278.924 392.548 278.924 392.908C279.109 393.268 278.57 393.804 278.392 393.979C274.28 398.273 269.09 396.666 263.371 394.875C260.687 393.979 257.828 393.086 255.147 392.908C241.915 392.015 231.363 393.979 223.496 398.812C222.957 399.172 222.782 399.704 223.142 400.243C223.496 400.775 224.032 400.96 224.567 400.6C232.077 395.952 242.269 394.157 254.962 394.875C257.468 395.056 260.152 395.952 262.657 396.666C268.733 398.633 274.812 400.421 279.82 395.056C280.712 393.979 281.073 392.908 280.891 392.015C280.534 390.227 278.392 389.334 276.782 388.796C272.67 387.368 262.118 383.249 258.182 381.282C244.771 375.203 234.405 378.063 222.425 381.461C219.563 382.36 216.522 383.071 213.123 383.963C202.754 386.469 197.571 397.555 193.28 407.393C191.488 411.151 190.054 414.728 188.09 417.772C185.049 422.602 181.119 426 176.828 429.573C175.218 431.008 173.609 432.432 171.999 433.867C171.645 434.227 171.46 434.941 171.999 435.298C172.356 435.837 172.716 436.015 173.07 436.015Z" fill="#353131"/>
<path d="M316.653 286.132C316.835 286.132 316.835 286.132 317.013 286.132C317.549 285.954 317.906 285.415 317.727 284.701C315.579 278.258 317.906 266.993 318.798 263.235C318.977 262.702 318.62 262.164 317.906 261.985C317.367 261.81 316.835 262.164 316.653 262.881C315.225 269.499 313.615 279.157 315.764 285.415C315.764 285.775 316.296 286.132 316.653 286.132Z" fill="#353131"/>
<path d="M425.37 332.274H425.549C426.088 332.099 426.441 331.563 426.441 331.025C421.258 305.625 410.171 298.115 394.969 290.423C394.437 290.069 393.72 290.423 393.544 290.962C393.184 291.5 393.544 292.211 394.077 292.39C409.097 300.085 419.47 306.881 424.478 331.563C424.478 331.921 424.832 332.274 425.37 332.274Z" fill="#714449"/>
<path d="M343.65 276.473C344.192 276.473 344.728 276.116 344.728 275.578C344.728 275.045 344.371 274.506 343.832 274.328C335.608 273.257 326.13 271.641 319.516 267.353C318.977 266.993 318.438 267.171 318.085 267.71C317.728 268.249 317.906 268.781 318.438 269.142C325.238 273.611 334.89 275.224 343.65 276.473C343.478 276.473 343.478 276.473 343.65 276.473Z" fill="#353131"/>
<path d="M441.283 563.534C447.184 563.534 463.275 557.636 476.686 544.758C490.278 531.698 503.868 512.922 516.921 494.854C523.175 486.095 529.254 477.867 534.976 470.532C535.337 469.993 535.337 469.461 534.798 469.104C534.262 468.744 533.727 468.744 533.367 469.283C527.466 476.611 521.566 484.838 515.311 493.605C502.258 511.666 488.669 530.267 475.258 543.148C461.133 556.562 444.682 562.106 440.745 561.392C430.015 559.603 420.002 547.439 410.707 524.188C408.562 518.823 406.777 513.815 404.985 509.346C404.089 506.665 403.197 504.159 402.301 502.189C402.126 501.651 401.408 501.297 400.87 501.651C400.337 501.829 399.977 502.55 400.337 503.082C401.055 505.049 401.941 507.554 403.018 510.235C404.628 514.711 406.592 519.894 408.74 525.262C414.998 540.464 425.01 561.035 440.566 563.715C440.566 563.534 440.923 563.534 441.283 563.534Z" fill="#353131"/>
<path d="M426.62 516.681C426.98 516.681 427.512 516.496 427.694 515.963C434.13 498.791 443.25 486.448 455.408 478.399C455.943 478.042 456.125 477.328 455.765 476.971C455.408 476.433 454.694 476.257 454.337 476.611C441.816 485.017 432.52 497.538 425.909 515.246C425.724 515.782 425.909 516.496 426.62 516.681C426.263 516.681 426.441 516.681 426.62 516.681Z" fill="#353131"/>
<path d="M533.366 469.283C535.336 469.283 537.481 468.205 539.088 467.313L539.805 466.955C546.783 463.376 552.145 460.159 557.15 456.401C563.585 451.572 570.2 446.564 575.747 439.235C577.353 437.087 577.353 434.581 577.532 432.257C577.532 431.183 577.532 430.112 577.71 429.038C578.07 427.249 578.788 425.461 579.32 423.851C580.037 421.884 580.93 419.918 581.29 417.587C581.469 415.984 581.108 414.728 580.751 413.478C580.573 412.764 580.219 412.047 580.219 411.151C580.219 409.898 580.573 408.649 580.751 407.393C581.29 405.251 581.829 403.102 581.108 400.96C580.573 398.812 578.609 397.737 576.818 396.666C575.029 395.592 573.241 394.696 572.887 392.729C572.527 390.766 572.348 388.796 572.17 386.829C571.81 382.892 571.631 378.78 569.129 374.843C567.519 372.162 565.195 370.553 561.797 370.017C554.108 368.586 543.739 373.055 538.734 376.813C538.195 377.17 537.481 377.53 536.586 378.063C533.726 379.494 528.897 382 531.224 386.469C533.726 391.298 540.522 389.51 545.527 388.257C547.315 387.722 549.104 387.368 550.178 387.368C550.535 387.368 551.074 387.186 551.606 387.186C552.323 387.008 554.287 386.651 554.647 387.008C555.364 388.079 554.826 390.227 554.469 392.015C554.287 393.086 553.93 394.158 553.93 395.057C553.93 395.592 554.469 396.128 555.004 396.128C555.54 396.128 556.078 395.592 556.078 395.057C556.078 394.342 556.257 393.447 556.435 392.548C556.974 390.227 557.507 387.722 556.257 385.936C555.364 384.502 553.037 384.862 551.074 385.219C550.714 385.219 550.178 385.398 549.996 385.398C548.747 385.398 546.955 385.936 544.813 386.29C540.344 387.368 534.622 388.796 533.012 385.576C531.941 383.431 533.551 382 537.481 380.03C538.374 379.494 539.266 379.134 539.984 378.602C544.456 375.203 554.287 370.913 561.265 372.162C563.946 372.698 565.909 373.947 567.165 376.096C569.311 379.679 569.668 383.249 569.846 387.186C570.021 389.15 570.2 391.298 570.56 393.447C571.099 396.306 573.42 397.556 575.568 398.812C577.178 399.704 578.609 400.421 578.788 401.853C579.141 403.641 578.788 405.429 578.427 407.393C578.07 408.827 577.71 410.259 577.71 411.69C577.71 412.764 578.07 413.657 578.249 414.549C578.609 415.624 578.963 416.516 578.788 417.587C578.427 419.557 577.71 421.524 576.999 423.494C576.282 425.282 575.568 427.071 575.211 429.038C575.029 430.29 574.851 431.54 574.851 432.617C574.851 434.76 574.672 436.726 573.601 438.339C568.772 444.954 563.05 449.429 555.54 454.97C550.714 458.728 545.349 461.769 538.556 465.346L537.842 465.703C536.047 466.595 533.551 467.851 531.941 467.134C531.402 466.955 530.685 467.134 530.507 467.673C530.331 468.205 530.507 468.922 531.042 469.104C531.941 469.104 532.652 469.283 533.366 469.283Z" fill="#353131"/>
<path d="M512.27 416.516C512.624 416.516 512.984 416.516 513.163 416.516C529.254 414.728 544.989 414.728 561.619 414.728H563.407C563.946 414.728 564.478 414.195 564.478 413.657C564.478 413.118 563.946 412.579 563.407 412.579H561.619C544.989 412.579 529.254 412.579 512.984 414.374C510.66 414.728 505.831 413.478 503.867 411.151C503.15 410.259 502.971 409.366 503.328 408.289C504.403 404.89 508.693 404.358 512.624 403.819C513.701 403.641 514.594 403.462 515.49 403.281C518.17 402.748 521.033 401.853 523.714 401.314C529.614 399.704 535.872 398.273 541.772 397.555C544.635 397.377 547.494 397.377 550.535 397.555C555.004 397.737 559.655 397.916 563.946 396.845C564.478 396.666 564.838 396.127 564.66 395.592C564.478 395.056 563.946 394.696 563.407 394.875C559.477 395.952 555.004 395.774 550.714 395.592C547.669 395.413 544.635 395.413 541.772 395.592C535.515 396.127 529.254 397.737 523.354 399.344C520.673 400.064 517.813 400.775 515.133 401.314C514.234 401.492 513.341 401.674 512.448 401.853C508.158 402.391 502.971 403.281 501.54 407.756C501.001 409.541 501.183 411.33 502.433 412.764C504.403 415.088 509.229 416.516 512.27 416.516Z" fill="#353131"/>
<path d="M559.116 430.823C561.797 430.823 564.478 430.823 566.987 430.469C567.519 430.469 568.058 429.933 567.879 429.219C567.879 428.68 567.34 428.142 566.626 428.32C563.228 428.68 559.83 428.68 556.435 428.68C555.54 428.68 554.647 428.68 553.755 428.68H535.514C525.323 428.68 506.009 426 506.009 415.799C506.009 415.267 505.474 414.728 504.938 414.728C504.402 414.728 503.867 415.267 503.867 415.799C503.867 427.788 523.714 430.823 535.514 430.823H553.755C554.647 430.823 555.54 430.823 556.257 430.823C557.506 430.823 558.399 430.823 559.116 430.823Z" fill="#353131"/>
<path d="M557.685 445.132C558.045 445.132 558.578 444.954 558.759 444.421C558.938 443.883 558.759 443.165 558.221 442.987C552.499 440.663 546.598 439.767 540.876 438.875C538.017 438.339 535.158 437.979 532.116 437.265C526.041 436.015 522.104 434.581 522.104 429.398C522.104 428.859 521.565 428.32 521.033 428.32C520.494 428.32 519.955 428.859 519.955 429.398C519.955 436.908 526.395 438.339 531.581 439.414C534.444 440.128 537.481 440.485 540.344 441.023C546.244 441.916 551.788 442.987 557.328 445.132C557.328 445.132 557.506 445.132 557.685 445.132Z" fill="#353131"/>
<path d="M298.235 238.555C298.416 238.555 298.595 238.555 298.773 238.374C299.312 238.202 299.666 237.841 300.026 237.663C302.347 236.413 304.135 235.521 306.644 236.232C307.176 236.413 307.893 236.053 308.072 235.521C308.247 234.982 307.893 234.265 307.355 234.086C303.957 233.012 301.454 234.265 299.127 235.696C298.773 235.875 298.235 236.232 297.881 236.413C297.342 236.585 297.164 237.303 297.342 237.841C297.342 238.374 297.696 238.555 298.235 238.555Z" fill="#353131"/>
<path d="M290.724 178.999C294.483 178.999 298.235 178.461 300.205 176.672C301.097 175.78 301.633 174.702 301.633 173.274C301.633 172.739 301.097 172.2 300.562 172.2C300.026 172.2 299.487 172.739 299.487 173.274C299.487 173.988 299.312 174.527 298.773 175.062C296.271 177.389 288.401 176.672 284.11 176.49C282.682 176.312 281.604 176.312 280.89 176.312C280.355 176.312 279.819 176.851 279.819 177.389C279.819 177.922 280.355 178.461 280.89 178.461C281.604 178.461 282.682 178.461 283.935 178.639C285.895 178.818 288.401 178.999 290.724 178.999Z" fill="#353131"/>
<path d="M301.097 180.788C301.276 180.788 301.454 180.788 301.633 180.606C302.886 179.71 306.284 176.491 305.028 173.988C304.852 173.453 304.135 173.274 303.603 173.453C303.064 173.631 302.886 174.348 303.064 174.887C303.418 175.601 301.633 177.747 300.383 178.639C299.845 178.999 299.845 179.71 300.026 180.07C300.383 180.606 300.737 180.788 301.097 180.788Z" fill="#353131"/>
<path d="M269.629 235.875H269.804C272.131 235.521 273.023 230.149 273.023 228.718C273.023 228.179 272.491 227.647 271.952 227.647C271.414 227.647 270.881 228.179 270.881 228.718C270.881 230.149 270.161 232.476 269.629 233.548C269.45 233.187 269.272 232.834 269.09 232.116C268.911 231.584 268.373 231.224 267.84 231.399C267.302 231.584 266.948 232.116 267.123 232.655C267.302 233.548 268.019 235.875 269.629 235.875Z" fill="#353131"/>
<path d="M405.167 638.837C405.345 638.837 405.521 638.837 405.699 638.659C406.238 638.48 406.416 637.76 406.238 637.227C402.84 630.431 396.047 525.08 395.508 487.883C395.508 487.344 394.969 486.805 394.437 486.805C393.898 486.805 393.359 487.344 393.359 487.883C393.898 523.292 400.516 630.431 404.449 638.298C404.449 638.659 404.807 638.837 405.167 638.837Z" fill="#353131"/>
<path d="M159.659 643.306C160.198 643.306 160.736 642.949 160.736 642.411C163.239 620.951 165.559 596.801 167.176 580.706C167.526 576.954 167.886 573.378 168.065 570.512C168.957 561.392 168.779 551.736 168.6 543.324C168.6 542.791 168.065 542.253 167.526 542.253C166.991 542.253 166.455 542.791 166.455 543.324C166.63 551.736 166.815 561.213 165.916 570.336C165.559 573.196 165.384 576.594 165.027 580.527C163.417 596.625 161.269 620.769 158.588 642.235C158.588 642.589 158.945 643.128 159.659 643.306Z" fill="#353131"/>
<path d="M330.96 221.029C341.683 221.029 350.449 211.906 350.449 200.819C350.449 200.28 349.91 199.742 349.378 199.742C348.839 199.742 348.301 200.28 348.301 200.819C348.301 210.835 340.437 218.884 330.96 218.884C321.304 218.884 313.615 210.835 313.615 200.819C313.615 200.28 313.077 199.742 312.538 199.742C312.006 199.742 311.467 200.28 311.467 200.819C311.467 211.906 320.23 221.029 330.96 221.029Z" fill="#353131"/>
<path d="M281.072 220.672C291.795 220.672 300.562 211.552 300.562 200.459C300.562 199.92 300.026 199.388 299.487 199.388C298.952 199.388 298.416 199.92 298.416 200.459C298.416 210.475 290.546 218.524 281.072 218.524C271.592 218.524 263.728 210.475 263.728 200.459C263.728 199.92 263.189 199.388 262.657 199.388C262.118 199.388 261.582 199.92 261.582 200.459C261.582 211.552 270.342 220.672 281.072 220.672Z" fill="#353131"/>
<path d="M297.524 204.935C297.881 204.935 298.057 204.75 298.417 204.574C300.916 201.712 304.496 199.92 307.537 200.102C309.679 200.281 311.467 201.176 312.723 203.146C313.077 203.679 313.794 203.679 314.148 203.325C314.508 202.961 314.687 202.251 314.33 201.89C312.538 199.566 310.218 198.132 307.537 197.953C303.957 197.778 299.667 199.742 296.632 203.146C296.272 203.5 296.272 204.217 296.807 204.574C296.986 204.935 297.343 204.935 297.524 204.935Z" fill="#353131"/>
<path d="M262.118 199.388C262.297 199.388 262.657 199.388 262.833 199.031C263.19 198.671 263.371 197.953 263.011 197.6L252.998 186.328C252.641 185.974 251.927 185.796 251.567 186.153C251.21 186.513 251.032 187.227 251.389 187.584L261.401 198.849C261.583 199.209 261.761 199.388 262.118 199.388Z" fill="#353131"/>
<path d="M404.27 329.772H404.449C404.984 329.593 405.345 329.055 405.345 328.522C404.449 324.229 396.4 293.646 394.615 290.247C389.428 280.232 385.316 279.514 378.523 278.443C376.021 278.086 372.977 277.548 369.403 276.473C354.204 271.826 345.802 271.465 344.549 275.045C343.65 277.905 346.512 282.377 349.553 286.849C349.911 287.385 350.271 287.92 350.628 288.281C355.279 295.609 364.574 316.897 364.574 325.303C364.574 325.835 365.113 326.374 365.645 326.374C366.184 326.374 366.716 325.835 366.716 325.303C366.716 316.18 357.242 294.538 352.413 287.025C352.234 286.664 351.699 286.132 351.342 285.415C349.732 283.094 345.98 277.548 346.512 275.578C346.512 275.578 347.944 272.001 368.686 278.258C372.441 279.336 375.304 279.875 377.985 280.407C384.602 281.481 387.997 282.017 392.645 291.14C394.076 293.999 401.94 323.336 403.196 328.876C403.375 329.415 403.735 329.772 404.27 329.772Z" fill="#353131"/>
<path d="M396.757 510.417C397.117 510.417 397.474 510.235 397.656 509.878C400.869 503.621 403.018 496.464 404.806 487.526C404.985 486.987 404.628 486.448 403.91 486.273C403.375 486.095 402.839 486.448 402.661 487.166C400.869 495.929 398.727 502.907 395.686 508.985C395.508 509.524 395.686 510.235 396.225 510.417C396.4 510.417 396.579 510.417 396.757 510.417Z" fill="#353131"/>
<path d="M167.176 442.094C167.887 442.094 168.247 441.556 168.247 441.023C168.247 437.625 168.247 434.227 168.247 430.823C168.065 408.289 167.887 385.041 171.82 362.682C174.501 347.837 176.646 332.459 178.792 317.611L179.866 310.279C180.226 308.306 180.402 305.985 180.58 303.483C181.473 295.431 182.55 285.415 186.48 279.514C188.808 276.116 192.92 275.399 196.853 274.86C198.46 274.685 200.073 274.328 201.501 273.974C205.435 272.897 209.011 270.751 212.406 268.96C214.733 267.71 217.057 266.458 219.384 265.383L220.101 265.029C224.924 262.881 227.965 262.164 229.036 263.059C228.683 264.134 226.716 267.353 225.638 269.32C224.213 271.465 223.496 272.897 223.314 273.611C220.994 281.124 220.277 290.069 219.562 297.219C217.596 316.712 213.123 339.431 206.152 364.827C200.784 384.68 194.529 407.218 182.729 424.922C182.368 425.461 182.55 426 183.082 426.353C183.621 426.71 184.157 426.538 184.517 426C196.5 407.932 202.754 385.219 208.294 365.366C215.272 339.97 219.741 317.072 221.708 297.404C222.425 290.247 223.314 281.481 225.463 274.328C225.638 273.789 226.716 272.001 227.608 270.57C231.185 264.851 231.899 263.235 231.185 262.164C228.858 259.126 222.782 261.81 219.562 263.235L218.845 263.595C216.343 264.669 214.016 266.101 211.692 267.353C208.476 269.142 204.902 271.108 201.322 272.179C199.891 272.54 198.46 272.897 196.853 273.075C192.563 273.789 187.733 274.507 185.049 278.797C180.762 285.24 179.688 295.077 178.792 303.837C178.616 306.164 178.259 308.491 178.078 310.454L177.007 317.789C174.858 332.635 172.716 347.837 170.029 362.682C165.917 385.219 166.098 408.649 166.455 431.183C166.455 434.581 166.455 437.979 166.455 441.377C166.098 441.556 166.631 442.094 167.176 442.094Z" fill="#353131"/>
<path d="M235.118 381.104C235.657 381.104 236.014 380.744 236.189 380.39L262.118 297.758C268.372 302.227 298.774 319.759 409.457 332.813C436.454 336.033 459.163 331.921 479.188 328.165C495.997 325.124 511.913 322.265 527.826 324.047C541.954 325.657 578.788 341.398 588.979 345.867C583.254 347.483 570.739 351.413 563.767 355.882C554.287 361.968 555.365 368.764 555.365 369.124C555.54 369.657 556.079 370.195 556.614 370.014C557.15 370.014 557.507 369.303 557.507 368.764C557.507 368.586 556.789 362.86 565.017 357.674C573.78 352.131 592.374 347.123 592.552 347.123C592.913 346.944 593.27 346.584 593.27 346.227C593.27 345.695 593.091 345.334 592.552 345.156C590.589 344.26 544.635 323.868 528.004 321.905C511.913 319.935 495.818 322.976 478.834 326.017C458.984 329.593 436.454 333.709 409.811 330.671C285.541 316.18 262.657 295.431 262.478 295.077C262.118 294.898 261.761 294.717 261.401 294.898C261.041 295.077 260.687 295.255 260.687 295.609L234.226 379.679C234.044 380.211 234.404 380.929 234.943 381.104H235.118Z" fill="#353131"/>
<path d="M195.244 494.679C195.422 494.679 195.601 494.679 195.782 494.501C195.961 494.322 217.057 482.518 248.708 482.518H248.886C260.687 482.518 273.919 484.839 288.044 487.344C307.537 490.742 327.559 494.14 347.762 492.706C382.097 490.207 421.972 482.336 443.432 478.042C467.034 473.395 496.893 485.556 497.25 485.734C497.789 485.916 498.321 485.734 498.681 485.199L523.354 435.837C523.532 435.298 523.354 434.581 522.822 434.406C522.283 434.227 521.566 434.406 521.39 434.941L497.071 483.589C491.706 481.44 465.064 471.782 442.893 476.257C421.433 480.548 381.558 488.422 347.59 490.742C327.741 492.173 307.715 488.775 288.401 485.377C274.28 482.875 260.687 480.548 248.886 480.548H248.708C222.243 480.548 203.111 488.775 196.853 491.813L200.605 476.611C200.784 476.079 200.43 475.54 199.891 475.361C199.359 475.183 198.82 475.54 198.642 476.079L194.351 493.605C194.169 493.962 194.351 494.501 194.708 494.679C194.883 494.679 195.068 494.679 195.244 494.679Z" fill="#353131"/>
<path d="M490.457 432.617C490.811 432.617 491.168 432.432 491.349 432.079L512.27 387.546L562.336 358.924C562.875 358.57 563.05 358.031 562.697 357.499C562.336 356.96 561.798 356.781 561.265 357.138L511.021 385.936C510.839 386.108 510.661 386.29 510.661 386.469L489.74 431.183C489.561 431.722 489.74 432.432 490.278 432.617C490.097 432.617 490.278 432.617 490.457 432.617Z" fill="#353131"/>
<path d="M424.477 404.533C424.831 404.533 425.01 404.358 425.191 404.173L503.15 326.734C503.51 326.374 503.51 325.657 503.15 325.303C502.793 324.943 502.079 324.943 501.722 325.303L423.76 402.748C423.4 403.102 423.4 403.819 423.76 404.173C423.939 404.358 424.117 404.533 424.477 404.533Z" fill="#353131"/>
<path d="M260.33 481.979C260.687 481.979 260.869 481.801 261.041 481.619L305.028 436.016C305.388 435.655 305.388 434.941 305.028 434.581C304.674 434.227 303.957 434.227 303.603 434.581L259.612 480.191C259.252 480.548 259.252 481.265 259.612 481.619C259.791 481.801 260.151 481.979 260.33 481.979Z" fill="#353131"/>
<path d="M406.591 188.123C406.059 187.584 405.52 187.227 404.985 187.045C404.449 187.045 403.91 187.045 403.375 187.405C403.018 187.762 402.661 188.123 402.486 188.833C402.301 189.372 402.486 190.086 402.839 190.803C403.557 191.696 404.271 192.413 405.167 192.77C406.059 193.13 406.952 193.309 407.847 193.309C408.74 193.309 409.636 192.945 410.528 192.413C411.421 191.874 412.138 191.16 412.677 190.086C413.031 189.372 413.391 188.655 413.569 187.762C413.748 186.867 414.102 185.974 414.287 184.896C414.462 184.004 414.819 183.108 415.179 182.216C415.536 181.32 415.896 180.606 416.429 180.249C416.967 179.71 417.503 179.356 418.392 179.356C419.109 179.356 420.002 179.535 421.258 180.249L421.433 180.427C421.433 180.427 421.612 180.606 421.612 180.788C422.151 182.216 422.329 183.825 421.972 185.257C421.612 186.867 421.08 188.301 420.362 189.551C420.002 190.265 419.827 190.982 420.002 191.521C420.181 192.053 420.541 192.592 420.898 192.77C421.433 193.13 421.972 193.13 422.508 192.945C423.043 192.77 423.582 192.413 424.117 191.696C424.653 190.625 425.192 189.551 425.549 188.301C425.909 187.045 426.263 185.795 426.263 184.543C426.263 183.293 426.263 182.037 426.087 180.788C425.909 179.535 425.37 178.461 424.831 177.568C424.117 176.672 423.222 175.958 422.151 175.419C421.08 174.887 419.648 174.702 418.038 174.702C416.967 174.702 416.072 174.887 415.179 175.419C414.287 175.78 413.569 176.312 413.031 177.029C412.492 177.746 411.959 178.461 411.421 179.356C411.067 180.249 410.707 181.145 410.35 182.037C410.171 182.397 410.171 182.93 409.989 183.647C409.811 184.364 409.636 185.078 409.457 185.974C409.279 186.688 408.918 187.405 408.561 187.938C408.201 188.476 407.666 188.655 407.13 188.655C406.952 188.655 406.952 188.655 406.952 188.476C406.776 188.476 406.776 188.301 406.776 188.123C406.776 188.301 406.591 188.301 406.591 188.123Z" fill="#353131"/>
<path d="M399.26 196.344C399.977 195.99 400.516 195.451 400.869 194.734C401.23 194.023 401.23 193.13 400.869 192.413C400.516 191.696 399.977 191.16 399.26 190.803C398.549 190.443 397.656 190.443 396.939 190.803C396.225 191.16 395.686 191.696 395.329 192.413C394.969 193.13 394.969 194.023 395.329 194.734C395.686 195.451 396.225 195.99 396.939 196.344C397.656 196.704 398.549 196.529 399.26 196.344Z" fill="#353131"/>
<path d="M399.976 100.479C398.905 100.301 398.01 100.479 397.296 100.84C396.578 101.372 396.225 101.911 396.046 102.628C395.864 103.342 396.046 104.059 396.4 104.77C396.757 105.487 397.474 106.023 398.548 106.386C399.976 106.74 401.408 106.74 402.66 106.386C403.91 106.023 404.984 105.487 405.877 104.592C406.776 103.699 407.487 102.628 407.847 101.372C408.201 100.122 408.201 98.6911 408.025 97.0813C407.847 96.1855 407.487 95.1145 406.951 93.8617C406.416 92.6089 405.877 91.5379 405.166 90.2851C404.627 89.0355 404.089 87.958 403.556 86.7085C403.017 85.4557 402.839 84.5599 403.017 83.4889C403.196 82.4178 403.375 81.7006 404.089 80.9833C404.806 80.2693 406.059 79.7337 407.847 79.3735C408.025 79.3735 408.201 79.3735 408.379 79.3735C408.561 79.3735 408.739 79.3735 408.918 79.3735C410.881 80.4478 412.316 81.8791 413.39 83.6674C414.461 85.4557 415.357 87.4257 415.711 89.5678C415.896 90.6453 416.428 91.3561 417.142 91.8949C417.859 92.2551 418.577 92.4336 419.291 92.4336C420.002 92.2551 420.54 91.8949 421.079 91.1776C421.611 90.4636 421.793 89.5678 421.611 88.4968C421.258 86.887 420.719 85.2772 420.002 83.6674C419.291 82.0576 418.392 80.4478 417.321 79.0197C416.25 77.5852 414.997 76.5142 413.747 75.4399C412.491 74.3656 411.066 73.8333 409.457 73.4731C408.025 73.116 406.416 73.116 404.806 73.6516C403.196 74.0118 401.586 75.0829 399.976 76.6927C398.905 77.5852 398.188 78.6595 397.656 79.9123C397.296 81.1618 396.939 82.2393 396.939 83.4889C396.939 84.7384 397.117 85.9912 397.474 87.2472C397.834 88.4968 398.367 89.7463 398.905 90.9991C399.084 91.3561 399.444 92.0734 399.976 92.9724C400.515 93.8617 401.054 94.7575 401.408 95.8317C401.765 96.9028 402.125 97.7953 402.125 98.6911C402.125 99.5836 401.946 100.301 401.408 100.84C401.229 100.84 401.229 100.84 401.229 100.84C401.054 100.84 400.869 100.84 400.694 100.84C400.515 100.84 400.158 100.479 399.976 100.479Z" fill="#353131"/>
<path d="M399.798 115.325C400.337 114.254 400.337 113.179 399.976 112.105C399.619 111.031 398.905 110.317 397.834 109.781C396.757 109.246 395.686 109.246 394.615 109.599C393.544 109.96 392.826 110.677 392.288 111.748C391.755 112.819 391.755 113.893 392.109 114.968C392.466 116.039 393.183 116.934 394.254 117.288C395.329 117.827 396.4 117.827 397.474 117.473C398.548 117.116 399.444 116.396 399.798 115.325Z" fill="#353131"/>
<path d="M311.827 49.5046C311.113 49.8648 310.575 50.2218 310.396 50.7606C310.218 51.2961 310.036 51.8316 310.218 52.3704C310.396 52.9027 310.753 53.2629 311.289 53.62C311.827 53.9802 312.538 53.9802 313.259 53.7952C314.33 53.4414 315.226 52.9027 315.764 52.1854C316.475 51.4714 316.835 50.7606 317.014 49.8648C317.189 48.9723 317.189 48.0765 317.014 47.1775C316.835 46.285 316.297 45.3957 315.404 44.4967C314.865 43.9644 314.148 43.4256 313.437 42.8869C312.538 42.3546 311.827 41.8158 310.935 41.4588C310.036 40.9201 309.325 40.3813 308.608 39.849C307.894 39.3103 307.355 38.778 306.998 38.0607C306.644 37.3467 306.463 36.8079 306.644 36.0907C306.816 35.3734 307.355 34.4809 308.248 33.5883C308.433 33.5883 308.433 33.4098 308.608 33.4098C308.786 33.4098 308.786 33.2313 308.965 33.2313C310.575 33.0528 312.006 33.4098 313.437 34.1239C314.865 34.8411 316.118 35.7369 317.189 36.8079C317.728 37.3467 318.445 37.7005 318.977 37.7005C319.516 37.7005 320.055 37.522 320.409 37.1682C320.766 36.8079 320.947 36.2692 321.126 35.7369C321.126 35.1981 320.947 34.4809 320.409 33.9486C319.516 33.0528 318.62 32.3388 317.549 31.6215C316.475 30.9043 315.226 30.3655 314.148 29.8332C312.898 29.473 311.646 29.1159 310.575 28.9407C309.325 28.7557 308.248 28.9407 307.177 29.2945C306.106 29.6547 305.213 30.3655 304.317 31.2613C303.425 32.1603 302.886 33.4098 302.526 35.0196C302.172 36.0907 302.172 36.9864 302.347 37.879C302.526 38.778 302.886 39.6673 303.243 40.3813C303.778 41.0986 304.317 41.8158 305.028 42.5299C305.745 43.2471 306.463 43.7794 307.355 44.3182C307.715 44.4967 308.072 44.6784 308.786 45.0354C309.504 45.3957 310.218 45.7527 310.753 46.285C311.467 46.8237 312.006 47.1775 312.363 47.7163C312.723 48.255 312.898 48.7873 312.723 49.3261L312.538 49.5046C312.363 49.5046 312.363 49.6863 312.184 49.6863C312.006 49.5046 311.827 49.5046 311.827 49.5046Z" fill="#353131"/>
<path d="M317.549 58.8096C317.368 57.9106 317.014 57.3783 316.475 56.8395C315.764 56.304 315.047 56.1223 314.33 56.304C313.437 56.4825 312.898 56.8395 312.363 57.3783C311.827 58.0923 311.646 58.8096 311.646 59.5204C311.827 60.4162 312.184 60.9517 312.723 61.4904C313.437 62.026 314.148 62.2077 315.047 62.026C315.939 61.8475 316.475 61.4904 317.014 60.9517C317.549 60.4162 317.728 59.7021 317.549 58.8096Z" fill="#714449"/>
<path d="M227.357 54.4737C226.639 55.3695 226.467 56.262 226.467 56.9728C226.639 57.8718 226.821 58.4073 227.357 58.9461C227.892 59.4784 228.609 59.6601 229.323 59.6601C230.219 59.6601 230.933 59.2999 231.829 58.5826C232.9 57.5116 233.439 56.262 233.793 55.0092C234.153 53.7597 233.971 52.5037 233.793 51.2541C233.439 50.0013 232.9 48.927 231.829 48.0345C230.933 47.142 229.68 46.4247 228.071 45.886C227.178 45.5322 225.929 45.3537 224.672 45.3537C223.426 45.3537 221.992 45.1719 220.739 45.1719C219.489 45.1719 218.058 44.9934 216.987 44.8149C215.731 44.6364 214.66 44.2762 213.946 43.7439C213.05 43.2051 212.518 42.4879 212.158 41.5953C211.801 40.6995 211.979 39.2683 212.518 37.6617C212.696 37.4799 212.696 37.4799 212.875 37.3014C212.875 37.1262 213.05 36.9412 213.229 36.9412C215.017 35.6916 216.987 35.1594 219.136 34.9776C221.278 34.7991 223.426 35.1594 225.39 35.6916C226.467 35.8701 227.357 35.8701 228.071 35.5164C228.788 35.1594 229.323 34.6206 229.502 33.9033C229.68 33.1893 229.68 32.472 229.323 31.7613C228.963 31.0408 228.249 30.33 227.178 29.9697C225.568 29.431 223.958 29.2524 222.17 29.0739C220.382 28.8954 218.597 29.0739 216.808 29.2524C215.017 29.6127 213.41 29.9697 211.979 30.6837C210.369 31.401 209.116 32.2935 208.227 33.3678C207.15 34.4421 206.614 35.8701 206.079 37.4799C205.718 39.0897 205.718 41.0598 206.436 43.2051C206.796 44.6364 207.328 45.7075 208.227 46.7817C209.116 47.6743 210.016 48.5733 211.087 49.1056C212.158 49.6443 213.41 50.1798 214.66 50.5401C215.916 50.8939 217.165 50.8939 218.597 51.0724C219.136 51.0724 219.846 51.0724 220.921 51.0724C221.992 51.0724 223.066 51.0724 224.137 51.0724C225.211 51.2541 226.107 51.4326 227 51.7896C227.892 52.1499 228.249 52.6854 228.431 53.5747C228.431 53.7597 228.431 53.7597 228.249 53.7597C228.249 53.9382 228.071 54.1135 227.892 54.1135C227.538 54.292 227.357 54.292 227.357 54.4737Z" fill="#353131"/>
<path d="M223.222 61.6562C222.504 60.7605 221.612 60.2249 220.541 60.0464C219.47 59.8679 218.392 60.2249 217.5 60.7605C216.604 61.4777 216.065 62.3703 215.89 63.4445C215.711 64.5156 215.89 65.5931 216.604 66.4856C217.321 67.3782 218.214 67.9169 219.285 68.0954C220.362 68.2739 221.433 68.0954 222.326 67.3782C223.222 66.6641 223.76 65.7684 223.936 64.6973C224.114 63.6263 223.936 62.7273 223.222 61.6562Z" fill="#353131"/>
<path d="M195.243 166.481C195.243 167.195 195.421 167.906 195.782 168.445C196.139 168.984 196.671 169.162 197.21 169.162C197.748 169.162 198.284 169.162 198.819 168.802C199.358 168.445 199.712 167.906 199.89 167.014C200.072 165.942 199.89 164.871 199.533 163.976C199.173 163.083 198.641 162.366 197.924 161.827C197.21 161.288 196.499 160.935 195.421 160.756C194.529 160.578 193.458 160.756 192.383 161.113C191.669 161.288 190.952 161.649 190.053 162.184C189.167 162.723 188.45 163.258 187.551 163.794C186.662 164.333 185.948 164.871 185.049 165.225C184.338 165.582 183.442 165.942 182.728 165.942C182.011 165.942 181.297 165.764 180.761 165.404C180.226 164.871 179.687 164.154 179.33 162.898C179.33 162.723 179.33 162.723 179.33 162.544C179.33 162.366 179.33 162.366 179.33 162.184C179.865 160.756 180.761 159.5 182.011 158.607C183.267 157.715 184.692 156.998 186.126 156.465C186.84 156.105 187.372 155.742 187.733 155.209C188.09 154.671 188.09 154.138 187.911 153.6C187.733 153.061 187.372 152.707 186.84 152.35C186.301 151.99 185.587 151.99 184.87 152.168C183.799 152.529 182.549 153.061 181.472 153.778C180.401 154.492 179.33 155.209 178.431 156.105C177.542 156.998 176.828 157.89 176.11 158.965C175.396 160.039 175.039 161.113 175.039 162.184C174.857 163.258 175.039 164.333 175.575 165.582C176.11 166.656 176.828 167.906 178.077 168.984C178.791 169.701 179.687 170.055 180.579 170.412C181.472 170.59 182.368 170.772 183.26 170.59C184.156 170.59 185.049 170.233 185.948 169.873C186.84 169.516 187.733 169.162 188.45 168.623C188.807 168.445 189.167 168.085 189.699 167.731C190.238 167.195 190.952 166.835 191.669 166.481C192.383 166.121 193.098 165.764 193.633 165.764C194.35 165.582 194.883 165.764 195.243 166.121C195.243 166.296 195.243 166.296 195.243 166.296C195.243 166.481 195.243 166.481 195.243 166.656C195.243 166.121 195.243 166.296 195.243 166.481Z" fill="#353131"/>
<path d="M206.151 165.225C205.434 164.871 204.541 165.047 203.824 165.404C203.11 165.764 202.575 166.296 202.399 167.195C202.039 167.906 202.214 168.802 202.575 169.516C202.932 170.233 203.47 170.772 204.363 171.129C205.074 171.483 205.973 171.304 206.69 170.95C207.404 170.59 207.94 170.055 208.293 169.162C208.654 168.445 208.475 167.552 208.115 166.835C207.404 166.121 206.865 165.582 206.151 165.225Z" fill="#353131"/>
<path d="M300.737 306.696C308.786 306.696 316.475 303.483 321.658 297.579C327.741 290.783 329.886 281.481 327.559 272.001C327.38 271.465 326.848 271.108 326.309 271.287C325.77 271.465 325.417 272.001 325.595 272.54C327.741 281.303 325.77 289.887 320.23 296.148C314.508 302.412 305.745 305.625 296.986 304.375C263.371 299.725 236.19 265.743 236.19 261.985C236.19 261.45 235.657 260.914 235.119 260.914C234.583 260.914 234.044 261.45 234.044 261.985C234.044 267.353 262.297 301.688 296.632 306.521C298.057 306.696 299.313 306.696 300.737 306.696Z" fill="#353131"/>
<path d="M162.34 423.312C164.128 423.312 165.384 423.134 166.277 422.955C166.815 422.78 167.176 422.241 166.991 421.524C166.815 420.992 166.277 420.632 165.559 420.813C160.198 422.602 116.211 415.088 107.448 408.827C106.558 408.11 106.377 407.756 106.377 407.756C109.778 395.413 110.849 386.29 112.098 376.631C112.991 369.303 114.062 361.608 116.032 351.952C121.394 326.017 133.733 303.661 149.293 292.39C155.725 287.742 163.95 285.775 171.645 283.99C175.575 283.094 179.509 282.195 183.267 280.946C183.799 280.764 184.156 280.232 183.978 279.514C183.799 278.976 183.267 278.619 182.55 278.797C178.792 280.053 174.858 280.946 171.106 281.841C163.057 283.627 154.833 285.593 147.858 290.601C131.945 302.227 119.07 324.943 113.708 351.413C111.741 361.251 110.667 368.939 109.778 376.274C108.522 385.936 107.269 394.875 104.049 407.039C103.871 407.578 103.871 408.649 105.127 409.72C111.381 415.624 148.754 423.312 162.34 423.312Z" fill="#353131"/>
<path d="M379.056 149.848C379.595 149.848 379.952 149.484 380.133 148.952C380.312 148.413 379.952 147.874 379.234 147.699C373.873 146.625 372.623 140.903 371.192 135.178C370.832 133.389 370.296 131.601 369.761 129.991C364.931 116.934 355.094 102.449 341.508 100.84C340.973 100.84 340.437 101.193 340.258 101.732C340.077 102.271 340.612 102.803 341.151 102.982C353.669 104.591 362.964 118.366 367.615 130.887C368.151 132.318 368.505 133.928 369.043 135.716C370.475 141.442 372.084 148.413 378.702 149.848C378.877 149.848 379.056 149.848 379.056 149.848Z" fill="black"/>
<path d="M363.503 193.309C363.682 193.309 364.035 193.309 364.214 193.13C375.126 184.004 373.873 170.412 372.802 159.5C372.802 158.964 372.263 158.429 371.546 158.607C371.013 158.607 370.475 159.146 370.653 159.863C371.731 170.95 372.802 183.293 362.786 191.696C362.25 192.053 362.25 192.77 362.611 193.13C362.786 193.13 363.143 193.309 363.503 193.309Z" fill="black"/>
<path d="M361.712 271.465C361.893 271.465 362.25 271.465 362.426 271.287C362.964 270.93 362.964 270.216 362.611 269.852C353.669 257.873 342.047 258.412 329.886 258.95C327.38 259.126 324.699 259.126 321.84 259.126C321.304 259.126 320.766 259.661 320.766 260.2C320.766 260.732 321.304 261.271 321.84 261.271C324.521 261.271 327.205 261.093 329.886 261.093C342.047 260.554 352.413 260.022 360.819 271.108C361.001 271.465 361.355 271.465 361.712 271.465Z" fill="#353131"/>
<path d="M153.405 287.025C153.937 287.025 154.476 286.492 154.476 285.954C154.476 276.116 167.526 269.852 173.069 267.71C183.621 263.42 229.928 253.758 238.516 255.367C239.048 255.546 239.587 255.014 239.766 254.475C239.944 253.939 239.409 253.397 238.873 253.225C229.036 251.609 182.011 261.81 172.177 265.743C166.098 268.067 152.327 274.86 152.327 285.954C152.327 286.492 152.866 287.025 153.405 287.025Z" fill="#353131"/>
<path d="M118.534 277.905C117.82 278.086 116.389 278.443 115.14 278.619C111.381 279.157 107.091 279.875 106.377 282.913C105.841 284.879 106.912 287.203 107.808 289.53C108.347 290.783 108.879 292.033 108.879 292.928C109.418 297.219 109.239 301.334 108.879 304.732C108.7 306.696 108.162 308.491 107.448 309.023C107.269 309.023 107.269 309.023 107.091 309.023C104.231 308.306 102.8 306.164 101.19 303.483C100.658 302.766 100.119 301.873 99.5804 301.156C91.5379 290.248 88.4968 273.611 89.0356 261.985C89.2108 258.587 89.5678 249.289 93.68 246.786C94.7575 246.069 98.3309 247.857 99.7589 248.928C104.41 252.508 107.983 258.587 111.203 263.952L111.92 265.029C114.601 269.142 116.749 273.435 118.534 277.905ZM126.762 317.072C127.294 317.072 127.833 316.54 127.833 316.001C128.372 297.758 123.721 280.232 114.062 263.773L113.348 262.702C110.31 257.334 106.377 250.898 101.369 246.961C100.298 246.069 95.4683 243.21 92.9659 244.813C87.958 247.857 87.6043 257.516 87.244 261.81C86.5267 276.655 90.8206 292.568 98.1556 302.412C98.6879 303.123 99.2266 303.837 99.5804 304.554C101.369 307.241 103.157 310.101 106.737 310.993C107.448 311.172 108.162 310.993 108.7 310.633C110.31 309.383 110.849 306.164 111.028 304.911C111.381 301.334 111.742 297.04 111.028 292.568C110.849 291.5 110.31 290.069 109.778 288.638C109.061 286.849 108.162 284.701 108.522 283.451C108.879 281.842 112.991 281.303 115.678 280.764C117.103 280.592 118.534 280.232 119.43 280.053C123.899 291.679 126.045 303.661 125.684 316.18C125.509 316.54 126.045 317.072 126.762 317.072C126.583 317.072 126.583 317.072 126.762 317.072Z" fill="#353131"/>
<path d="M115.318 335.857C115.85 335.857 116.211 335.494 116.389 334.958C116.568 334.423 116.211 333.884 115.493 333.709C109.418 332.274 101.729 324.407 99.2265 321.009C87.0654 304.732 80.9865 282.552 82.236 260.554C82.5963 255.014 84.5598 243.563 87.6042 241.953C93.1411 239.094 102.621 239.451 110.132 239.805C112.28 239.805 114.422 239.99 116.211 239.99C126.94 239.99 137.67 240.344 148.215 240.882C158.766 241.239 169.675 241.778 180.401 241.778C189.521 241.778 199.534 241.415 209.193 241.061C221.526 240.704 234.404 240.165 246.027 240.522C246.559 240.522 247.098 239.99 247.098 239.451C247.098 238.912 246.559 238.374 246.027 238.374C234.404 238.202 221.526 238.555 209.011 238.912C199.359 239.273 189.343 239.633 180.226 239.633C169.496 239.633 158.588 239.273 148.215 238.734C137.67 238.374 126.94 237.841 116.032 237.841C114.244 237.841 112.28 237.841 110.132 237.663C102.261 237.303 92.6088 236.946 86.5266 240.165C81.3435 242.849 79.9089 260.375 79.9089 260.554C78.4841 283.094 84.9201 305.625 97.2565 322.437C100.119 326.195 107.983 334.423 114.779 336.033C115.14 335.857 115.14 335.857 115.318 335.857Z" fill="#353131"/>
<path d="M109.953 311.35H110.132C110.849 311.172 111.741 310.993 112.459 310.811C116.032 309.922 119.784 308.845 123.542 308.845C124.081 308.845 124.613 308.306 124.613 307.774C124.613 307.241 124.081 306.696 123.542 306.696C119.609 306.696 115.678 307.774 111.92 308.669C111.203 308.845 110.31 309.023 109.593 309.205C109.061 309.383 108.7 309.922 108.879 310.454C109.061 311.172 109.593 311.35 109.953 311.35Z" fill="#353131"/>
<path d="M429.482 306.696H429.66C437.349 306.342 441.283 290.423 442.532 275.756C443.431 264.134 443.431 236.946 424.653 233.726C411.067 231.399 378.523 232.833 359.212 233.904C351.163 234.265 344.192 234.622 343.118 234.443C342.579 234.265 342.046 234.622 341.861 235.336C341.683 235.875 342.046 236.413 342.76 236.585C343.832 236.77 349.018 236.585 359.391 236.053C378.702 235.157 411.067 233.547 424.477 235.875C442 238.912 441.104 266.993 440.566 275.577C439.319 292.389 434.844 304.197 429.839 304.554C428.589 304.554 423.4 303.661 420.897 303.123C420.002 302.944 419.109 302.766 418.931 302.766C418.392 302.766 417.86 303.123 417.681 303.661C417.681 304.197 418.038 304.732 418.577 304.911C418.931 304.911 419.648 305.093 420.54 305.271C423.939 305.985 427.872 306.696 429.482 306.696Z" fill="#353131"/>
<path d="M138.202 639.73C138.563 639.73 138.741 639.551 138.916 639.37C139.277 639.013 139.277 638.299 138.916 637.942C124.081 623.096 125.152 598.949 125.869 577.486C126.044 572.839 126.223 568.548 126.223 564.43C126.223 563.894 125.684 563.355 125.152 563.355C124.613 563.355 124.081 563.894 124.081 564.43C124.081 568.548 123.899 572.839 123.721 577.486C122.825 598.235 121.932 624.167 137.307 639.551C137.67 639.73 137.845 639.73 138.202 639.73Z" fill="#353131"/>
</svg>
