<svg width="211" height="204" viewBox="0 0 211 204" fill="none" xmlns="http://www.w3.org/2000/svg">
<path d="M194.442 11.6462H12.2319V147.13H194.442V11.6462Z" fill="url(#paint0_linear_523_1793)"/>
<path d="M118.854 188.025L123.752 132.457H126.756L120.556 188.025H118.854Z" fill="#FFF9F2"/>
<path d="M120.556 188.238L120.532 188.237C120.412 188.224 120.325 188.119 120.337 188.002L126.51 132.67H123.953L119.072 188.044C119.062 188.16 118.955 188.248 118.835 188.238C118.714 188.227 118.624 188.124 118.635 188.006L123.533 132.44C123.542 132.329 123.637 132.245 123.752 132.245H126.756C126.818 132.245 126.878 132.27 126.918 132.316C126.96 132.36 126.981 132.42 126.973 132.481L120.774 188.049C120.762 188.157 120.667 188.238 120.556 188.238Z" fill="#353131"/>
<path d="M121.565 21.2795H154.15L148.9 47.7358L116.291 47.8568L121.565 21.2795Z" fill="#F2F3FF"/>
<path d="M121.747 21.493L116.558 47.6433L148.719 47.5242L153.886 21.493H121.747ZM116.291 48.0693C116.226 48.0693 116.164 48.0417 116.122 47.9925C116.08 47.9433 116.062 47.8794 116.076 47.8164L121.35 21.2402C121.37 21.1398 121.462 21.068 121.565 21.068H154.15C154.217 21.068 154.279 21.0965 154.32 21.1447C154.362 21.1939 154.379 21.2588 154.366 21.3208L149.117 47.7761C149.097 47.8755 149.007 47.9483 148.901 47.9483L116.292 48.0693H116.291Z" fill="#353131"/>
<path d="M131.964 40.5777H185.584L182.302 57.1153L128.667 57.191L131.964 40.5777Z" fill="#FFF9F2"/>
<path d="M132.147 40.7902L128.933 56.9785L182.121 56.9028L185.318 40.7902H132.147ZM128.668 57.4035C128.603 57.4035 128.54 57.375 128.499 57.3268C128.457 57.2776 128.44 57.2127 128.452 57.1507L131.749 40.5383C131.769 40.438 131.86 40.3652 131.965 40.3652H185.585C185.651 40.3652 185.712 40.3927 185.754 40.4429C185.795 40.4921 185.813 40.555 185.8 40.618L182.519 57.1556C182.498 57.256 182.408 57.3278 182.303 57.3278L128.669 57.4035H128.668Z" fill="#353131"/>
<path d="M99.9062 94.8104L108.498 51.5096H174.755L166.76 91.801L102.327 91.985L99.9062 94.8104Z" fill="#FFF9F2"/>
<path d="M108.68 51.7221L100.284 94.0372L102.158 91.8492C102.2 91.801 102.261 91.7725 102.326 91.7725L166.579 91.5895L174.49 51.7221H108.68ZM99.9065 95.0229C99.8739 95.0229 99.8424 95.016 99.8129 95.0023C99.7223 94.9609 99.6725 94.8655 99.6908 94.7701L108.283 51.4703C108.303 51.3699 108.393 51.2971 108.499 51.2971H174.756C174.821 51.2971 174.883 51.3256 174.925 51.3748C174.966 51.423 174.984 51.488 174.971 51.5499L166.976 91.8413C166.956 91.9407 166.866 92.0125 166.762 92.0125L102.43 92.1975L100.075 94.9452C100.033 94.9954 99.9706 95.0229 99.9065 95.0229Z" fill="#353131"/>
<path d="M129.655 28.6491L123.139 36.8442H126.086L124.612 44.2817H128.501L129.975 36.8442H132.922L129.655 28.6491Z" fill="#353131"/>
<path d="M142.975 32.0039L139.708 23.8089L133.192 32.0039H136.139L134.918 38.1634H138.808L140.029 32.0039H142.975Z" fill="#353131"/>
<path d="M112.675 55.5806H137.572L132.869 79.2773L107.951 79.3855L112.675 55.5806Z" fill="white"/>
<mask id="path-14-inside-1_523_1793" fill="white">
<path d="M112.857 55.7931L108.217 79.172L132.688 79.0657L137.305 55.7931H112.857ZM107.951 79.599C107.885 79.599 107.823 79.5694 107.781 79.5212C107.739 79.472 107.722 79.4091 107.734 79.3461L112.459 55.5392C112.479 55.4399 112.57 55.3681 112.675 55.3681H137.572C137.637 55.3681 137.699 55.3956 137.742 55.4448C137.784 55.493 137.8 55.5579 137.787 55.6199L133.085 79.3176C133.065 79.417 132.975 79.4898 132.87 79.4898L107.951 79.599Z"/>
</mask>
<path d="M112.857 55.7931L108.217 79.172L132.688 79.0657L137.305 55.7931H112.857ZM107.951 79.599C107.885 79.599 107.823 79.5694 107.781 79.5212C107.739 79.472 107.722 79.4091 107.734 79.3461L112.459 55.5392C112.479 55.4399 112.57 55.3681 112.675 55.3681H137.572C137.637 55.3681 137.699 55.3956 137.742 55.4448C137.784 55.493 137.8 55.5579 137.787 55.6199L133.085 79.3176C133.065 79.417 132.975 79.4898 132.87 79.4898L107.951 79.599Z" fill="#353131"/>
<path d="M112.857 55.7931V55.2931H112.446L112.366 55.6957L112.857 55.7931ZM108.217 79.172L107.726 79.0747L107.607 79.6746L108.219 79.672L108.217 79.172ZM132.688 79.0657L132.69 79.5657L133.099 79.564L133.178 79.1631L132.688 79.0657ZM137.305 55.7931L137.796 55.8904L137.914 55.2931H137.305V55.7931ZM107.951 79.599V80.099L107.953 80.099L107.951 79.599ZM107.781 79.5212L107.4 79.8447L107.403 79.8484L107.781 79.5212ZM107.734 79.3461L107.244 79.2488L107.243 79.2509L107.734 79.3461ZM112.459 55.5392L111.969 55.4389L111.968 55.4419L112.459 55.5392ZM137.742 55.4448L138.12 55.1176L138.119 55.1169L137.742 55.4448ZM137.787 55.6199L137.298 55.5155L137.296 55.5226L137.787 55.6199ZM133.085 79.3176L132.594 79.2203L132.594 79.2221L133.085 79.3176ZM132.87 79.4898V78.9898L132.868 78.9898L132.87 79.4898ZM112.366 55.6957L107.726 79.0747L108.707 79.2693L113.347 55.8904L112.366 55.6957ZM108.219 79.672L132.69 79.5657L132.686 78.5657L108.214 78.672L108.219 79.672ZM133.178 79.1631L137.796 55.8904L136.815 55.6957L132.197 78.9684L133.178 79.1631ZM137.305 55.2931H112.857V56.2931H137.305V55.2931ZM107.951 79.099C108.033 79.099 108.108 79.1349 108.159 79.194L107.403 79.8484C107.538 80.004 107.737 80.099 107.951 80.099V79.099ZM108.162 79.1978C108.215 79.2603 108.243 79.3502 108.225 79.4413L107.243 79.2509C107.201 79.4679 107.263 79.6838 107.4 79.8446L108.162 79.1978ZM108.225 79.4434L112.949 55.6366L111.968 55.4419L107.244 79.2488L108.225 79.4434ZM112.949 55.6396C112.919 55.7843 112.795 55.8681 112.675 55.8681V54.8681C112.344 54.8681 112.039 55.0955 111.969 55.4389L112.949 55.6396ZM112.675 55.8681H137.572V54.8681H112.675V55.8681ZM137.572 55.8681C137.496 55.8681 137.419 55.8358 137.365 55.7727L138.119 55.1169C137.979 54.9555 137.778 54.8681 137.572 54.8681V55.8681ZM137.364 55.772C137.302 55.7003 137.279 55.605 137.298 55.5155L138.276 55.7243C138.321 55.5108 138.266 55.2857 138.12 55.1176L137.364 55.772ZM137.296 55.5226L132.594 79.2203L133.575 79.4149L138.277 55.7172L137.296 55.5226ZM132.594 79.2221C132.622 79.0755 132.747 78.9898 132.87 78.9898V79.9898C133.203 79.9898 133.508 79.7584 133.575 79.4131L132.594 79.2221ZM132.868 78.9898L107.949 79.099L107.953 80.099L132.872 79.9898L132.868 78.9898Z" fill="black" mask="url(#path-14-inside-1_523_1793)"/>
<path d="M129.142 74.9535L131.228 64.3708H127.58L125.477 74.9535H129.142Z" fill="#353131"/>
<path d="M117.959 74.9535L120.545 61.8395H116.897L114.294 74.9535H117.959Z" fill="#F9A94B"/>
<path d="M123.55 74.9535L126.496 60.0126H122.848L119.885 74.9535H123.55Z" fill="#FF5A23"/>
<path d="M140.27 55.5806H158.927L157.733 61.5984L139.069 61.626L140.27 55.5806Z" fill="#FF7823"/>
<path d="M137.039 71.8525H160.161L158.966 77.8704L135.84 77.898L137.039 71.8525Z" fill="#FF7823"/>
<path d="M138.655 63.7156H164.996L163.803 69.7344L137.455 69.761L138.655 63.7156Z" fill="#FF7823"/>
<path d="M134.659 168.081C129.7 170.067 124.016 167.788 121.964 162.992C119.91 158.196 122.265 152.699 127.223 150.713C132.181 148.727 137.865 151.004 139.919 155.801C141.971 160.597 139.617 166.094 134.659 168.081ZM136.497 180.778L142.64 178.316L142.027 174.697C143.897 173.431 145.486 171.876 146.755 170.122L150.498 170.715L153.043 164.773L149.963 162.631C150.349 160.523 150.362 158.337 149.965 156.163L153.044 154.023L150.5 148.081L146.758 148.673C145.45 146.863 143.842 145.327 142.029 144.101L142.642 140.478L136.5 138.017L134.284 140.997C132.106 140.624 129.846 140.611 127.598 140.995L125.386 138.017L119.243 140.477L119.854 144.096C117.984 145.362 116.396 146.917 115.128 148.671L111.383 148.078L108.837 154.02L111.92 156.163C111.533 158.27 111.52 160.455 111.917 162.629L108.837 164.77L111.381 170.712L115.124 170.12C116.431 171.929 118.04 173.466 119.852 174.693L119.24 178.314L125.382 180.777L127.597 177.797C129.776 178.168 132.037 178.183 134.284 177.798L136.497 180.778Z" fill="#FF7823"/>
<path d="M130.941 150.206C129.71 150.206 128.479 150.44 127.308 150.909C124.964 151.848 123.138 153.614 122.168 155.881C121.197 158.147 121.197 160.645 122.168 162.912C123.138 165.178 124.963 166.944 127.306 167.883C129.65 168.823 132.231 168.823 134.575 167.884C136.919 166.945 138.745 165.18 139.715 162.913C140.686 160.645 140.686 158.148 139.715 155.882C138.746 153.615 136.92 151.849 134.577 150.91C133.405 150.44 132.173 150.206 130.941 150.206ZM130.941 169.013C129.653 169.013 128.365 168.768 127.138 168.275C124.686 167.294 122.776 165.446 121.761 163.074C120.745 160.701 120.745 158.089 121.761 155.718C122.778 153.346 124.687 151.499 127.139 150.517C129.592 149.535 132.291 149.535 134.744 150.517C137.196 151.5 139.106 153.347 140.121 155.719C141.137 158.091 141.137 160.703 140.121 163.075C139.105 165.447 137.195 167.295 134.743 168.276C133.517 168.768 132.229 169.013 130.941 169.013ZM134.285 177.586C134.354 177.586 134.421 177.618 134.463 177.674L136.574 180.516L142.395 178.184L141.81 174.73C141.797 174.65 141.832 174.57 141.901 174.522C143.724 173.29 145.296 171.768 146.575 170C146.624 169.933 146.705 169.899 146.79 169.912L150.362 170.478L152.774 164.847L149.835 162.805C149.766 162.756 149.732 162.675 149.746 162.595C150.135 160.47 150.136 158.319 149.749 156.199C149.734 156.12 149.769 156.039 149.837 155.991L152.775 153.948L150.364 148.318L146.795 148.883C146.71 148.896 146.627 148.861 146.579 148.794C145.304 147.031 143.731 145.51 141.903 144.275C141.834 144.228 141.799 144.146 141.813 144.066L142.398 140.611L136.577 138.278L134.464 141.122C134.415 141.187 134.333 141.221 134.247 141.206C132.05 140.83 129.827 140.829 127.637 141.204C127.554 141.218 127.469 141.185 127.419 141.118L125.31 138.278L119.487 140.61L120.073 144.062C120.085 144.142 120.05 144.224 119.981 144.271C118.159 145.503 116.585 147.026 115.307 148.792C115.259 148.86 115.176 148.895 115.092 148.882L111.52 148.315L109.108 153.945L112.047 155.99C112.116 156.037 112.15 156.119 112.136 156.199C111.747 158.322 111.746 160.474 112.134 162.593C112.148 162.673 112.113 162.755 112.045 162.803L109.107 164.844L111.519 170.476L115.089 169.91C115.172 169.897 115.255 169.931 115.303 169.998C116.578 171.761 118.151 173.282 119.98 174.519C120.048 174.566 120.083 174.646 120.07 174.727L119.484 178.183L125.306 180.516L127.418 177.673C127.468 177.606 127.553 177.572 127.635 177.587C129.833 177.963 132.056 177.963 134.245 177.589C134.258 177.587 134.271 177.586 134.285 177.586ZM136.497 180.989C136.428 180.989 136.361 180.958 136.319 180.9L134.186 178.03C132.036 178.383 129.854 178.383 127.695 178.029L125.561 180.9C125.502 180.98 125.393 181.011 125.299 180.972L119.156 178.511C119.062 178.472 119.007 178.377 119.022 178.28L119.615 174.789C117.831 173.565 116.287 172.073 115.023 170.351L111.418 170.923C111.317 170.938 111.219 170.885 111.179 170.794L108.635 164.851C108.596 164.76 108.627 164.655 108.709 164.597L111.678 162.535C111.313 160.453 111.313 158.343 111.68 156.256L108.711 154.193C108.628 154.135 108.597 154.03 108.635 153.939L111.18 147.996C111.22 147.906 111.32 147.853 111.419 147.869L115.027 148.44C116.294 146.716 117.837 145.221 119.617 143.999L119.025 140.512C119.01 140.414 119.064 140.32 119.159 140.281L125.302 137.82C125.396 137.782 125.505 137.812 125.564 137.892L127.697 140.763C129.847 140.409 132.031 140.411 134.187 140.765L136.321 137.894C136.38 137.813 136.489 137.784 136.583 137.821L142.725 140.282C142.821 140.32 142.876 140.416 142.86 140.513L142.267 144.003C144.052 145.228 145.595 146.72 146.86 148.441L150.464 147.871C150.566 147.856 150.664 147.908 150.703 147.999L153.248 153.942C153.287 154.033 153.256 154.138 153.173 154.195L150.205 156.257C150.571 158.339 150.569 160.45 150.203 162.537L153.172 164.601C153.255 164.658 153.285 164.763 153.247 164.855L150.702 170.796C150.662 170.887 150.564 170.942 150.464 170.925L146.855 170.353C145.588 172.08 144.045 173.572 142.266 174.793L142.857 178.282C142.874 178.379 142.818 178.474 142.724 178.513L136.58 180.973C136.554 180.984 136.525 180.989 136.497 180.989Z" fill="#353131"/>
<path d="M130.941 172.48C123.483 172.48 117.415 166.611 117.415 159.397C117.415 152.181 123.483 146.313 130.941 146.313C131.063 146.313 131.161 146.409 131.161 146.525C131.161 146.643 131.063 146.737 130.941 146.737C123.725 146.737 117.854 152.417 117.854 159.397C117.854 166.377 123.725 172.056 130.941 172.056C138.157 172.056 144.028 166.377 144.028 159.397C144.028 159.279 144.126 159.184 144.248 159.184C144.369 159.184 144.467 159.279 144.467 159.397C144.467 166.611 138.4 172.48 130.941 172.48Z" fill="#353131"/>
<path d="M162.053 119.904C167.419 119.904 171.769 124.112 171.769 129.303C171.769 134.494 167.419 138.701 162.053 138.701C156.686 138.701 152.336 134.494 152.336 129.303C152.336 124.112 156.686 119.904 162.053 119.904ZM165.378 107.493H158.727L157.862 111.064C155.634 111.542 153.551 112.391 151.685 113.541L148.46 111.607L143.759 116.155L145.758 119.273C144.567 121.08 143.691 123.094 143.197 125.249L139.506 126.086V132.519L143.197 133.357C143.691 135.512 144.567 137.527 145.758 139.331L143.759 142.451L148.46 146.999L151.685 145.065C153.551 146.217 155.634 147.065 157.862 147.542L158.727 151.112H165.378L166.242 147.542C168.473 147.065 170.554 146.217 172.421 145.065L175.645 146.999L180.347 142.451L178.348 139.331C179.537 137.527 180.415 135.512 180.909 133.357L184.6 132.519V126.086L180.909 125.249C180.415 123.094 179.537 121.08 178.348 119.273L180.347 116.155L175.645 111.607L172.421 113.541C170.554 112.391 168.473 111.542 166.242 111.064L165.378 107.493Z" fill="#FF7823"/>
<path d="M162.052 120.117C156.816 120.117 152.555 124.238 152.555 129.303C152.555 134.368 156.816 138.49 162.052 138.49C167.289 138.49 171.55 134.368 171.55 129.303C171.55 124.238 167.289 120.117 162.052 120.117ZM162.052 138.914C156.574 138.914 152.116 134.603 152.116 129.303C152.116 124.004 156.574 119.692 162.052 119.692C167.531 119.692 171.989 124.004 171.989 129.303C171.989 134.603 167.531 138.914 162.052 138.914ZM158.902 150.9H165.203L166.029 147.493C166.049 147.414 166.112 147.352 166.196 147.334C168.367 146.87 170.423 146.046 172.302 144.886C172.373 144.842 172.464 144.841 172.536 144.885L175.612 146.728L180.068 142.419L178.161 139.444C178.116 139.374 178.117 139.286 178.161 139.217C179.361 137.399 180.213 135.411 180.694 133.31C180.712 133.232 180.775 133.169 180.857 133.15L184.38 132.35V126.256L180.857 125.457C180.775 125.437 180.712 125.375 180.694 125.295C180.213 123.195 179.361 121.207 178.161 119.389C178.117 119.32 178.116 119.231 178.161 119.162L180.068 116.185L175.612 111.877L172.536 113.721C172.464 113.764 172.373 113.764 172.302 113.719C170.421 112.559 168.366 111.737 166.196 111.271C166.112 111.254 166.049 111.192 166.029 111.113L165.203 107.706H158.902L158.076 111.113C158.057 111.192 157.992 111.254 157.909 111.271C155.738 111.737 153.684 112.559 151.803 113.719C151.731 113.764 151.641 113.764 151.569 113.721L148.492 111.877L144.038 116.185L145.944 119.162C145.988 119.231 145.988 119.32 145.942 119.389C144.744 121.207 143.892 123.195 143.411 125.295C143.392 125.375 143.329 125.437 143.247 125.457L139.725 126.256V132.35L143.247 133.15C143.329 133.169 143.392 133.232 143.411 133.31C143.892 135.411 144.744 137.399 145.942 139.217C145.988 139.286 145.988 139.374 145.944 139.444L144.038 142.419L148.492 146.728L151.569 144.885C151.641 144.841 151.732 144.842 151.803 144.886C153.682 146.046 155.737 146.87 157.909 147.334C157.992 147.352 158.057 147.414 158.076 147.493L158.902 150.9ZM165.378 151.325H158.727C158.625 151.325 158.537 151.257 158.513 151.16L157.68 147.72C155.551 147.249 153.535 146.441 151.684 145.316L148.577 147.18C148.489 147.231 148.377 147.219 148.305 147.148L143.603 142.6C143.531 142.531 143.518 142.423 143.572 142.339L145.498 139.333C144.335 137.541 143.499 135.591 143.013 133.534L139.456 132.726C139.356 132.703 139.286 132.618 139.286 132.519V126.086C139.286 125.988 139.356 125.902 139.456 125.88L143.013 125.073C143.498 123.015 144.335 121.065 145.498 119.273L143.572 116.267C143.518 116.183 143.531 116.075 143.603 116.004L148.305 111.457C148.377 111.387 148.489 111.375 148.577 111.427L151.684 113.29C153.536 112.165 155.553 111.356 157.68 110.887L158.513 107.445C158.537 107.349 158.625 107.281 158.727 107.281H165.378C165.48 107.281 165.568 107.349 165.591 107.445L166.426 110.887C168.552 111.356 170.567 112.165 172.421 113.29L175.529 111.427C175.615 111.375 175.727 111.387 175.8 111.457L180.502 116.004C180.574 116.075 180.587 116.183 180.533 116.267L178.607 119.273C179.77 121.065 180.605 123.015 181.092 125.073L184.649 125.88C184.748 125.902 184.819 125.988 184.819 126.086V132.519C184.819 132.618 184.749 132.703 184.649 132.726L181.092 133.534C180.605 135.591 179.77 137.541 178.607 139.333L180.533 142.339C180.587 142.422 180.574 142.531 180.502 142.6L175.8 147.148C175.727 147.219 175.615 147.231 175.529 147.18L172.421 145.316C170.569 146.441 168.553 147.249 166.426 147.72L165.591 151.16C165.568 151.257 165.48 151.325 165.378 151.325Z" fill="#353131"/>
<path d="M162.053 142.388C154.595 142.388 148.526 136.517 148.526 129.303C148.526 122.089 154.595 116.219 162.053 116.219C162.175 116.219 162.273 116.314 162.273 116.432C162.273 116.548 162.175 116.644 162.053 116.644C154.837 116.644 148.966 122.322 148.966 129.303C148.966 136.282 154.837 141.962 162.053 141.962C169.269 141.962 175.139 136.282 175.139 129.303C175.139 129.185 175.238 129.091 175.359 129.091C175.48 129.091 175.579 129.185 175.579 129.303C175.579 136.517 169.51 142.388 162.053 142.388Z" fill="#353131"/>
<path d="M129.545 108.298C125.317 106.622 123.294 101.948 125.028 97.8582C126.761 93.7686 131.593 91.8128 135.821 93.4892C140.049 95.1656 142.071 99.8406 140.338 103.93C138.605 108.019 133.772 109.976 129.545 108.298ZM122.781 117.037L128.021 119.115L129.895 116.572C131.809 116.892 133.733 116.874 135.588 116.55L137.483 119.081L142.705 116.967L142.173 113.885C143.711 112.836 145.077 111.522 146.185 109.979L149.372 110.471L151.52 105.404L148.891 103.591C149.222 101.739 149.204 99.878 148.869 98.0835L151.487 96.2517L149.301 91.1999L146.114 91.7144C145.028 90.2259 143.671 88.9057 142.075 87.8333L142.584 84.7511L137.346 82.6733L135.472 85.2145C133.557 84.8947 131.632 84.9124 129.778 85.2371L127.883 82.7058L122.661 84.82L123.193 87.9022C121.655 88.9519 120.289 90.2643 119.181 91.8089L115.994 91.316L113.846 96.3825L116.476 98.1957C116.144 100.049 116.162 101.91 116.497 103.704L113.88 105.537L116.065 110.589L119.252 110.073C120.337 111.562 121.695 112.881 123.291 113.953L122.781 117.037Z" fill="#FF7823"/>
<path d="M129.628 108.102C133.737 109.732 138.45 107.824 140.134 103.849C140.95 101.923 140.943 99.8061 140.112 97.8858C139.282 95.9664 137.729 94.4749 135.738 93.6859C133.747 92.8959 131.558 92.9038 129.574 93.7076C127.589 94.5103 126.046 96.0136 125.23 97.9379C123.546 101.913 125.519 106.472 129.628 108.102ZM132.683 109.114C131.592 109.114 130.501 108.908 129.46 108.495C125.128 106.776 123.048 101.969 124.824 97.7766C125.685 95.747 127.311 94.1621 129.403 93.315C131.496 92.469 133.805 92.4601 135.904 93.2924C138.003 94.1247 139.642 95.6988 140.517 97.7234C141.394 99.7461 141.402 101.979 140.541 104.01C139.681 106.04 138.053 107.624 135.96 108.472C134.905 108.899 133.794 109.114 132.683 109.114ZM123.026 116.904L127.942 118.854L129.715 116.448C129.765 116.382 129.849 116.349 129.931 116.362C131.792 116.674 133.683 116.667 135.549 116.342C135.633 116.327 135.715 116.359 135.765 116.426L137.558 118.82L142.46 116.837L141.955 113.921C141.941 113.84 141.976 113.759 142.045 113.712C143.594 112.656 144.925 111.359 146.004 109.857C146.051 109.79 146.136 109.755 146.219 109.769L149.235 110.235L151.25 105.48L148.764 103.764C148.696 103.717 148.66 103.635 148.675 103.555C148.997 101.753 148.99 99.9252 148.652 98.1209C148.637 98.0412 148.672 97.9595 148.741 97.9123L151.216 96.1779L149.164 91.436L146.15 91.9259C146.067 91.9367 145.983 91.9043 145.933 91.8374C144.843 90.34 143.501 89.0513 141.95 88.0084C141.88 87.9622 141.844 87.8815 141.858 87.7999L142.339 84.8829L137.424 82.933L135.651 85.3394C135.602 85.4053 135.517 85.4388 135.434 85.425C133.572 85.1131 131.682 85.12 129.816 85.4466C129.733 85.4604 129.65 85.427 129.601 85.361L127.808 82.9675L122.906 84.9508L123.411 87.8668C123.425 87.9474 123.39 88.0291 123.32 88.0753C121.772 89.1319 120.441 90.4286 119.362 91.9299C119.313 91.9967 119.23 92.0322 119.146 92.0194L116.13 91.5521L114.116 96.3068L116.601 98.0225C116.67 98.0707 116.705 98.1514 116.691 98.233C116.368 100.034 116.376 101.862 116.712 103.666C116.728 103.746 116.694 103.828 116.625 103.876L114.15 105.61L116.202 110.35L119.216 109.862C119.299 109.849 119.382 109.883 119.431 109.95C120.524 111.448 121.864 112.737 123.417 113.778C123.486 113.825 123.522 113.907 123.508 113.987L123.026 116.904ZM128.02 119.327C127.991 119.327 127.963 119.322 127.936 119.311L122.698 117.234C122.603 117.197 122.548 117.1 122.564 117.003L123.053 114.051C121.545 113.019 120.232 111.76 119.152 110.303L116.102 110.797C116.002 110.814 115.902 110.761 115.863 110.67L113.677 105.618C113.637 105.528 113.668 105.422 113.751 105.364L116.256 103.609C115.942 101.844 115.935 100.056 116.235 98.2921L113.718 96.5566C113.635 96.4996 113.604 96.3943 113.642 96.3028L115.79 91.2353C115.829 91.1438 115.928 91.0887 116.029 91.1064L119.08 91.5777C120.147 90.1177 121.449 88.8496 122.954 87.8058L122.443 84.8544C122.427 84.758 122.481 84.6616 122.575 84.6242L127.799 82.51C127.893 82.4726 128.001 82.5011 128.061 82.5818L129.875 85.0039C131.701 84.7009 133.55 84.694 135.372 84.9842L137.167 82.5494C137.226 82.4697 137.334 82.4382 137.43 82.4766L142.668 84.5543C142.763 84.5917 142.818 84.6862 142.801 84.7845L142.313 87.7369C143.823 88.7679 145.134 90.0282 146.213 91.4832L149.263 90.9893C149.364 90.9736 149.462 91.0257 149.503 91.1172L151.689 96.169C151.727 96.2595 151.696 96.3648 151.614 96.4228L149.109 98.1779C149.424 99.9439 149.431 101.731 149.132 103.495L151.648 105.232C151.73 105.288 151.762 105.393 151.723 105.486L149.575 110.552C149.537 110.644 149.438 110.697 149.337 110.682L146.286 110.209C145.219 111.669 143.916 112.937 142.411 113.982L142.921 116.932C142.939 117.029 142.884 117.125 142.789 117.163L137.567 119.277C137.473 119.316 137.365 119.285 137.304 119.207L135.49 116.783C133.665 117.087 131.816 117.093 129.993 116.803L128.198 119.238C128.157 119.295 128.089 119.327 128.02 119.327Z" fill="#353131"/>
<path d="M132.683 112.065C126.314 112.065 121.133 107.055 121.133 100.894C121.133 94.7337 126.314 89.7212 132.683 89.7212C132.804 89.7212 132.903 89.8167 132.903 89.9347C132.903 90.0518 132.804 90.1462 132.683 90.1462C126.556 90.1462 121.572 94.9678 121.572 100.894C121.572 106.82 126.556 111.641 132.683 111.641C138.81 111.641 143.794 106.82 143.794 100.894C143.794 100.776 143.892 100.682 144.013 100.682C144.135 100.682 144.233 100.776 144.233 100.894C144.233 107.055 139.052 112.065 132.683 112.065Z" fill="#353131"/>
<path d="M35.8334 129.268H33.4126V39.9264H35.8334V129.268Z" fill="white"/>
<path d="M33.632 129.055H35.6131V40.1389H33.632V129.055ZM35.8329 129.48H33.4122C33.2911 129.48 33.1924 129.385 33.1924 129.268V39.9264C33.1924 39.8083 33.2911 39.7139 33.4122 39.7139H35.8329C35.955 39.7139 36.0527 39.8083 36.0527 39.9264V129.268C36.0527 129.385 35.955 129.48 35.8329 129.48Z" fill="#353131"/>
<path d="M42.4799 129.268H40.0571V39.9264H42.4799V129.268Z" fill="white"/>
<path d="M40.278 129.055H42.2602V40.1389H40.278V129.055ZM42.4789 129.48H40.0582C39.9361 129.48 39.8384 129.385 39.8384 129.268V39.9264C39.8384 39.8083 39.9361 39.7139 40.0582 39.7139H42.4789C42.601 39.7139 42.6987 39.8083 42.6987 39.9264V129.268C42.6987 129.385 42.601 129.48 42.4789 129.48Z" fill="#353131"/>
<path d="M49.1244 129.268H46.7036V71.038H49.1244V129.268Z" fill="white"/>
<path d="M46.9235 129.055H48.9046V71.2515H46.9235V129.055ZM49.1244 129.48H46.7037C46.5816 129.48 46.4839 129.385 46.4839 129.268V71.038C46.4839 70.9219 46.5816 70.8255 46.7037 70.8255H49.1244C49.2455 70.8255 49.3442 70.9219 49.3442 71.038V129.268C49.3442 129.385 49.2455 129.48 49.1244 129.48Z" fill="#353131"/>
<path d="M55.7699 127.645H53.3481V69.4157H55.7699V127.645Z" fill="white"/>
<path d="M53.568 127.433H55.5502V69.6282H53.568V127.433ZM55.7699 127.857H53.3492C53.2271 127.857 53.1294 127.763 53.1294 127.645V69.4157C53.1294 69.2986 53.2271 69.2042 53.3492 69.2042H55.7699C55.891 69.2042 55.9897 69.2986 55.9897 69.4157V127.645C55.9897 127.763 55.891 127.857 55.7699 127.857Z" fill="#353131"/>
<path d="M62.4159 121.224H59.9941V62.9944H62.4159V121.224Z" fill="white"/>
<path d="M60.214 121.011H62.1962V63.2079H60.214V121.011ZM62.416 121.436H59.9942C59.8731 121.436 59.7744 121.34 59.7744 121.224V62.9944C59.7744 62.8774 59.8731 62.7819 59.9942 62.7819H62.416C62.5371 62.7819 62.6358 62.8774 62.6358 62.9944V121.224C62.6358 121.34 62.5371 121.436 62.416 121.436Z" fill="#353131"/>
<path d="M69.0614 114.802H66.6396V56.5732H69.0614V114.802Z" fill="white"/>
<path d="M66.8595 114.59H68.8417V56.7857H66.8595V114.59ZM69.0615 115.015H66.6397C66.5186 115.015 66.4199 114.92 66.4199 114.802V56.5732C66.4199 56.4552 66.5186 56.3607 66.6397 56.3607H69.0615C69.1826 56.3607 69.2813 56.4552 69.2813 56.5732V114.802C69.2813 114.92 69.1826 115.015 69.0615 115.015Z" fill="#353131"/>
<path d="M75.7069 109.746H73.2852V51.5175H75.7069V109.746Z" fill="white"/>
<path d="M73.505 109.534H75.4872V51.73H73.505V109.534ZM75.707 109.959H73.2852C73.1641 109.959 73.0654 109.864 73.0654 109.746V51.5175C73.0654 51.4004 73.1641 51.305 73.2852 51.305H75.707C75.8281 51.305 75.9268 51.4004 75.9268 51.5175V109.746C75.9268 109.864 75.8281 109.959 75.707 109.959Z" fill="#353131"/>
<path d="M82.3524 109.746H79.9307V51.5175H82.3524V109.746Z" fill="white"/>
<path d="M80.1505 109.534H82.1327V51.73H80.1505V109.534ZM82.3525 109.959H79.9307C79.8096 109.959 79.7119 109.864 79.7119 109.746V51.5175C79.7119 51.4004 79.8096 51.305 79.9307 51.305H82.3525C82.4736 51.305 82.5723 51.4004 82.5723 51.5175V109.746C82.5723 109.864 82.4736 109.959 82.3525 109.959Z" fill="#353131"/>
<path d="M88.9984 110.361H86.5767V52.1324H88.9984V110.361Z" fill="white"/>
<path d="M86.7965 110.149H88.7777V52.3448H86.7965V110.149ZM88.9985 110.575H86.5767C86.4556 110.575 86.3569 110.479 86.3569 110.361V52.1323C86.3569 52.0143 86.4556 51.9198 86.5767 51.9198H88.9985C89.1196 51.9198 89.2183 52.0143 89.2183 52.1323V110.361C89.2183 110.479 89.1196 110.575 88.9985 110.575Z" fill="#353131"/>
<path d="M95.6439 116.647H93.2222V58.4168H95.6439V116.647Z" fill="white"/>
<path d="M93.442 116.434H95.4242V58.6293H93.442V116.434ZM95.644 116.859H93.2222C93.1011 116.859 93.0034 116.764 93.0034 116.647V58.4168C93.0034 58.2998 93.1011 58.2053 93.2222 58.2053H95.644C95.7651 58.2053 95.8627 58.2998 95.8627 58.4168V116.647C95.8627 116.764 95.7651 116.859 95.644 116.859Z" fill="#353131"/>
<path d="M35.8334 129.268H33.4126V105.046H35.8334V129.268Z" fill="#FF7823"/>
<path d="M33.632 129.055H35.6131V105.258H33.632V129.055ZM35.8329 129.48H33.4122C33.2911 129.48 33.1924 129.385 33.1924 129.268V105.046C33.1924 104.929 33.2911 104.834 33.4122 104.834H35.8329C35.955 104.834 36.0527 104.929 36.0527 105.046V129.268C36.0527 129.385 35.955 129.48 35.8329 129.48Z" fill="#353131"/>
<path d="M42.4799 129.268H40.0571V108.893H42.4799V129.268Z" fill="#FF7823"/>
<path d="M40.278 129.055H42.2602V109.106H40.278V129.055ZM42.4789 129.48H40.0582C39.9361 129.48 39.8384 129.385 39.8384 129.268V108.893C39.8384 108.775 39.9361 108.681 40.0582 108.681H42.4789C42.601 108.681 42.6987 108.775 42.6987 108.893V129.268C42.6987 129.385 42.601 129.48 42.4789 129.48Z" fill="#353131"/>
<path d="M49.1244 129.268H46.7036V111.595H49.1244V129.268Z" fill="#FF7823"/>
<path d="M46.9235 129.055H48.9046V111.806H46.9235V129.055ZM49.1244 129.48H46.7037C46.5816 129.48 46.4839 129.385 46.4839 129.268V111.595C46.4839 111.477 46.5816 111.382 46.7037 111.382H49.1244C49.2455 111.382 49.3442 111.477 49.3442 111.595V129.268C49.3442 129.385 49.2455 129.48 49.1244 129.48Z" fill="#353131"/>
<path d="M55.7699 127.645H53.3481V103.424H55.7699V127.645Z" fill="#A3B4FF"/>
<path d="M53.568 127.433H55.5502V103.636H53.568V127.433ZM55.7699 127.857H53.3492C53.2271 127.857 53.1294 127.763 53.1294 127.645V103.424C53.1294 103.306 53.2271 103.212 53.3492 103.212H55.7699C55.891 103.212 55.9897 103.306 55.9897 103.424V127.645C55.9897 127.763 55.891 127.857 55.7699 127.857Z" fill="#728BE8"/>
<path d="M62.4159 121.224H59.9941V97.0023H62.4159V121.224Z" fill="#A3B4FF"/>
<path d="M60.214 121.011H62.1962V97.2148H60.214V121.011ZM62.416 121.436H59.9942C59.8731 121.436 59.7744 121.34 59.7744 121.224V97.0023C59.7744 96.8843 59.8731 96.7898 59.9942 96.7898H62.416C62.5371 96.7898 62.6358 96.8843 62.6358 97.0023V121.224C62.6358 121.34 62.5371 121.436 62.416 121.436Z" fill="#728BE8"/>
<path d="M69.0614 114.802H66.6396V90.5801H69.0614V114.802Z" fill="#A3B4FF"/>
<path d="M66.8595 114.59H68.8417V90.7936H66.8595V114.59ZM69.0615 115.015H66.6397C66.5186 115.015 66.4199 114.92 66.4199 114.802V90.5801C66.4199 90.463 66.5186 90.3676 66.6397 90.3676H69.0615C69.1826 90.3676 69.2813 90.463 69.2813 90.5801V114.802C69.2813 114.92 69.1826 115.015 69.0615 115.015Z" fill="#728BE8"/>
<path d="M75.7069 109.746H73.2852V75.4916H75.7069V109.746Z" fill="#FF7823"/>
<path d="M73.505 109.534H75.4872V75.7041H73.505V109.534ZM75.707 109.959H73.2852C73.1641 109.959 73.0654 109.864 73.0654 109.746V75.4916C73.0654 75.3736 73.1641 75.2791 73.2852 75.2791H75.707C75.8281 75.2791 75.9268 75.3736 75.9268 75.4916V109.746C75.9268 109.864 75.8281 109.959 75.707 109.959Z" fill="#353131"/>
<path d="M82.3524 109.746H79.9307V64.6541H82.3524V109.746Z" fill="#FF7823"/>
<path d="M80.1505 109.534H82.1327V64.8666H80.1505V109.534ZM82.3525 109.959H79.9307C79.8096 109.959 79.7119 109.864 79.7119 109.746V64.6541C79.7119 64.5361 79.8096 64.4416 79.9307 64.4416H82.3525C82.4736 64.4416 82.5723 64.5361 82.5723 64.6541V109.746C82.5723 109.864 82.4736 109.959 82.3525 109.959Z" fill="#353131"/>
<path d="M88.9984 110.361H86.5767V83.9532H88.9984V110.361Z" fill="#FF7823"/>
<path d="M86.7965 110.149H88.7777V84.1667H86.7965V110.149ZM88.9985 110.575H86.5767C86.4556 110.575 86.3569 110.479 86.3569 110.361V83.9532C86.3569 83.8372 86.4556 83.7417 86.5767 83.7417H88.9985C89.1196 83.7417 89.2183 83.8372 89.2183 83.9532V110.361C89.2183 110.479 89.1196 110.575 88.9985 110.575Z" fill="#353131"/>
<path d="M95.6439 118.181H93.2222V92.4257H95.6439V118.181Z" fill="#FF7823"/>
<path d="M93.442 117.969H95.4242V92.6372H93.442V117.969ZM95.644 118.394H93.2222C93.1011 118.394 93.0034 118.3 93.0034 118.181V92.4257C93.0034 92.3076 93.1011 92.2132 93.2222 92.2132H95.644C95.7651 92.2132 95.8627 92.3076 95.8627 92.4257V118.181C95.8627 118.3 95.7651 118.394 95.644 118.394Z" fill="#353131"/>
<path d="M82.3525 38.3661C82.3525 40.7508 80.353 42.6859 77.8865 42.6859C75.4199 42.6859 73.4204 40.7508 73.4204 38.3661C73.4204 35.9794 75.4199 34.0462 77.8865 34.0462C80.353 34.0462 82.3525 35.9794 82.3525 38.3661Z" fill="#FFF9F2"/>
<path d="M77.8865 34.2577C75.5441 34.2577 73.6403 36.1014 73.6403 38.3661C73.6403 40.6308 75.5441 42.4734 77.8865 42.4734C80.2279 42.4734 82.1328 40.6308 82.1328 38.3661C82.1328 36.1014 80.2279 34.2577 77.8865 34.2577ZM77.8865 42.8984C75.3019 42.8984 73.2007 40.8649 73.2007 38.3661C73.2007 35.8663 75.3019 33.8337 77.8865 33.8337C80.4701 33.8337 82.5724 35.8663 82.5724 38.3661C82.5724 40.8649 80.4701 42.8984 77.8865 42.8984Z" fill="#353131"/>
<path d="M77.8867 37.1472L76.6758 39.1758H79.0976L77.8867 37.1472Z" fill="#353131"/>
<path d="M33.4126 29.1489C33.4126 26.7622 35.4121 24.8281 37.8786 24.8281C40.3452 24.8281 42.3447 26.7622 42.3447 29.1489C42.3447 31.5336 40.3452 33.4678 37.8786 33.4678C35.4121 33.4678 33.4126 31.5336 33.4126 29.1489Z" fill="#FFF9F2"/>
<path d="M37.8782 25.0406C35.5368 25.0406 33.632 26.8832 33.632 29.1489C33.632 31.4136 35.5368 33.2553 37.8782 33.2553C40.2196 33.2553 42.1245 31.4136 42.1245 29.1489C42.1245 26.8832 40.2196 25.0406 37.8782 25.0406ZM37.8782 33.6813C35.2936 33.6813 33.1924 31.6477 33.1924 29.1489C33.1924 26.6491 35.2936 24.6146 37.8782 24.6146C40.4618 24.6146 42.5641 26.6491 42.5641 29.1489C42.5641 31.6477 40.4618 33.6813 37.8782 33.6813Z" fill="#353131"/>
<path d="M37.8784 27.929L36.6675 29.9586H39.0893L37.8784 27.929Z" fill="#353131"/>
<path d="M163.927 127.471H52.7349V132.457H163.927V127.471Z" fill="#FEFEFE"/>
<path d="M52.9547 132.245H163.707V127.685H52.9547V132.245ZM163.927 132.67H52.7349C52.6138 132.67 52.5151 132.575 52.5151 132.457V127.471C52.5151 127.354 52.6138 127.259 52.7349 127.259H163.927C164.048 127.259 164.147 127.354 164.147 127.471V132.457C164.147 132.575 164.048 132.67 163.927 132.67Z" fill="#353131"/>
<path d="M158.705 188.025L152.505 132.457H155.507L160.404 188.025H158.705Z" fill="#FEFEFE"/>
<path d="M158.705 188.238C158.594 188.238 158.498 188.157 158.486 188.049L152.286 132.481C152.28 132.42 152.3 132.36 152.342 132.316C152.383 132.27 152.443 132.245 152.505 132.245H155.507C155.62 132.245 155.715 132.329 155.725 132.44L160.623 188.006C160.633 188.124 160.545 188.227 160.423 188.238C160.3 188.248 160.196 188.16 160.185 188.044L155.304 132.67H152.75L158.924 188.002C158.936 188.119 158.848 188.224 158.728 188.237L158.705 188.238Z" fill="#353131"/>
<path d="M88.3127 188.025L90.5828 155.081H84.4907L86.7609 188.025H88.3127Z" fill="#A3B4FF"/>
<path d="M88.3127 188.238H88.2985C88.1774 188.23 88.0858 188.128 88.0939 188.011L90.3488 155.294H84.7248L86.9807 188.011C86.9889 188.128 86.8963 188.23 86.7752 188.238C86.6541 188.242 86.5493 188.156 86.5412 188.04L84.271 155.095C84.2669 155.036 84.2883 154.978 84.33 154.936C84.3717 154.893 84.4297 154.868 84.4908 154.868H90.5829C90.6439 154.868 90.703 154.893 90.7437 154.936C90.7854 154.978 90.8067 155.036 90.8027 155.095L88.5315 188.04C88.5244 188.152 88.4277 188.238 88.3127 188.238Z" fill="#728BE8"/>
<path d="M69.2752 188.025L76.2129 156.708C83.7621 158.749 91.3114 158.749 98.8606 156.708L105.798 188.025L106.531 186.4L107.351 188.025L104.337 154.866C106.407 154.035 108.476 153.058 110.545 151.921H64.5283C66.598 153.058 68.6667 154.035 70.7364 154.866L67.7234 188.025H69.2752Z" fill="#FEFEFE"/>
<path d="M69.275 188.238C69.2597 188.238 69.2444 188.237 69.2292 188.233C69.1101 188.208 69.0348 188.096 69.0602 187.981L75.9979 156.663C76.0112 156.606 76.0468 156.556 76.0987 156.526C76.1506 156.495 76.2137 156.487 76.2717 156.503C83.7466 158.524 91.3264 158.524 98.8013 156.503C98.8583 156.487 98.9214 156.495 98.9733 156.526C99.0252 156.556 99.0618 156.606 99.075 156.663L105.87 187.335L106.329 186.315C106.364 186.24 106.44 186.189 106.527 186.187C106.619 186.187 106.691 186.233 106.728 186.307L107.027 186.901L104.118 154.885C104.109 154.792 104.164 154.705 104.252 154.67C106.078 153.939 107.907 153.086 109.7 152.132H65.3716C67.1645 153.086 68.9941 153.937 70.8206 154.67C70.9091 154.705 70.9631 154.793 70.9549 154.885L67.942 188.044C67.9308 188.161 67.8249 188.25 67.7038 188.238C67.5828 188.227 67.4932 188.124 67.5044 188.006L70.5031 155.002C68.4599 154.176 66.4136 153.201 64.4192 152.106C64.3327 152.058 64.29 151.96 64.3154 151.866C64.3408 151.772 64.4283 151.708 64.5281 151.708H110.545C110.645 151.708 110.732 151.772 110.758 151.866C110.783 151.96 110.74 152.058 110.654 152.106C108.658 153.202 106.612 154.176 104.57 155.002L107.57 188.006C107.578 188.109 107.511 188.202 107.409 188.23C107.306 188.257 107.199 188.21 107.152 188.119L106.542 186.907L105.999 188.11C105.962 188.195 105.871 188.245 105.776 188.237C105.681 188.228 105.604 188.16 105.583 188.069L98.6945 156.973C91.2887 158.934 83.7843 158.934 76.3785 156.973L69.4897 188.069C69.4673 188.17 69.3767 188.238 69.275 188.238Z" fill="#353131"/>
<path d="M97.1807 169.205L94.4048 175.081L98.1189 177.185L101.527 172.024L97.1807 169.205Z" fill="#A3B4FF"/>
<path d="M107.719 173.971L110.682 181.27L105.477 182.655L102.38 175.751L107.719 173.971Z" fill="#A3B4FF"/>
<path d="M104.022 179.777C104.022 179.777 103.052 180.487 102.953 180.701C102.854 180.916 102.829 185.885 102.829 185.885C102.829 185.885 102.434 186.196 102.385 186.315C102.335 186.434 102.681 188.025 102.681 188.025H125.429C125.429 188.025 125.651 186.912 125.182 186.793C125.182 186.793 124.565 185.431 124.415 185.193C124.268 184.954 119.426 184.045 118.562 183.71C117.697 183.377 111.968 178.983 111.276 178.778C110.585 178.575 105.793 181.275 105.793 181.275L104.022 179.777Z" fill="#465EBD"/>
<path d="M102.829 185.885C102.829 185.885 102.434 186.196 102.384 186.315C102.335 186.434 102.681 188.025 102.681 188.025H112.412L102.953 180.701C102.854 180.916 102.829 185.885 102.829 185.885Z" fill="#0E2E7D"/>
<path d="M107.953 186.793C107.953 186.793 107.335 185.431 107.186 185.193C107.099 185.052 105.603 184.472 104.214 183.953C103.658 182.408 102.335 176.497 101.967 175.96C101.568 175.376 96.097 174.508 96.097 174.508L95.7164 172.261C95.7164 172.261 94.5015 172.211 94.2837 172.316C94.067 172.421 90.7762 176.238 90.7762 176.238C90.7762 176.238 90.2664 176.234 90.1494 176.295C90.0334 176.356 89.2529 177.797 89.2529 177.797L102.06 188.025H108.199C108.199 188.025 108.422 186.912 107.953 186.793Z" fill="#465EBD"/>
<path d="M90.7762 176.238C90.7762 176.238 90.2664 176.234 90.1494 176.294C90.0334 176.357 89.2529 177.797 89.2529 177.797L96.7574 183.79L94.2837 172.316C94.067 172.421 90.7762 176.238 90.7762 176.238Z" fill="#0E2E7D"/>
<path d="M116.043 142.807L104.117 176.442L95.0059 172.962C95.0059 172.962 99.305 158.719 99.7416 156.142C100.177 153.566 102.545 147.612 102.545 147.612L116.043 142.807Z" fill="#0E2E7D"/>
<path d="M59.5532 132.457C59.5532 132.457 91.6723 132.717 110.459 135.437C114.114 135.966 116.625 139.276 116.043 142.807L112.811 151.921L85.3472 151.869C78.7229 152.479 72.931 147.578 72.6746 141.146L59.5532 132.457Z" fill="#0E2E7D"/>
<path d="M102.719 151.921L109.69 176.325L101.671 178.242L89.1114 151.921C88.3105 149.407 88.4296 146.111 88.4296 146.111L102.719 151.921Z" fill="#465EBD"/>
<path d="M101.056 145.435C100.028 141.426 97.2231 138.013 93.3299 136.316C92.3215 135.876 91.2917 135.569 90.2976 135.437L77.0073 134.149L59.193 132.74C59.193 132.74 51.5329 151.921 66.031 151.921H102.719L101.056 145.435Z" fill="#465EBD"/>
<path d="M99.2216 169.418C99.2023 169.418 99.1809 169.416 99.1616 169.41C99.0445 169.376 98.9774 169.259 99.0099 169.146L105.309 148.023C105.396 147.727 105.335 147.416 105.143 147.17C104.951 146.923 104.657 146.781 104.339 146.781H98.7515C98.6304 146.781 98.5327 146.687 98.5327 146.57C98.5327 146.452 98.6304 146.357 98.7515 146.357H104.339C104.797 146.357 105.218 146.56 105.494 146.913C105.771 147.266 105.856 147.714 105.731 148.139L99.4333 169.264C99.4058 169.357 99.3183 169.418 99.2216 169.418Z" fill="#353131"/>
<path d="M103.837 173.861C103.753 173.861 103.672 173.815 103.637 173.735L91.8016 148.277C91.7976 148.268 91.7945 148.259 91.7915 148.25C91.5981 147.629 91.0171 147.212 90.3455 147.212H69.4144C68.5648 147.212 67.8189 146.687 67.5574 145.905L67.2755 145.059C67.2379 144.947 67.301 144.827 67.417 144.791C67.533 144.754 67.6561 144.816 67.6927 144.927L67.9756 145.774C68.1781 146.38 68.7561 146.786 69.4144 146.786H90.3455C91.2064 146.786 91.9533 147.32 92.2087 148.113L104.037 173.562C104.087 173.669 104.038 173.795 103.927 173.843C103.898 173.856 103.867 173.861 103.837 173.861Z" fill="#353131"/>
<path d="M92.3919 126.381L122.358 126.98L122.395 121.004L92.4417 116.628L91.9248 121.502L92.3919 126.381Z" fill="white"/>
<path d="M75.0782 99.3782C76.3675 102.392 79.937 103.823 83.0518 102.577C86.1675 101.331 87.6481 97.8779 86.3598 94.8645C85.0706 91.8521 81.502 90.4188 78.3863 91.6662C75.2705 92.9117 73.79 96.3648 75.0782 99.3782Z" fill="white"/>
<path d="M75.0791 99.3762L87.1198 122.956L91.9247 121.502L96.3673 119.147L86.3587 94.8636C85.0714 91.8541 81.5019 90.4217 78.3851 91.6692C75.2734 92.9137 73.7929 96.3668 75.0791 99.3762Z" fill="white"/>
<path d="M88.0776 124.69C89.898 126.746 93.0972 126.984 95.2208 125.223C97.3455 123.462 97.5938 120.369 95.7724 118.313C93.9519 116.258 90.7538 116.02 88.6281 117.781C86.5035 119.541 86.2572 122.635 88.0776 124.69Z" fill="white"/>
<path d="M55.6284 92.8163L65.925 89.9318C68.2308 89.9485 70.8653 90.0665 73.9444 90.3509C73.9444 90.3509 78.7991 92.2614 81.5994 92.6726C81.5994 92.6726 85.7256 98.5813 84.1484 112.2C83.5135 117.692 82.154 133.106 82.154 133.106C82.154 133.106 85.1477 136.22 59.1929 132.74C61.052 120.869 56.7803 109.431 55.6284 92.8163Z" fill="#FF5A23"/>
<path d="M76.0825 62.0293C76.9586 61.9074 77.7961 62.2271 78.0403 63.7156C77.5193 62.9305 76.8406 62.3884 76.0825 62.0293ZM75.7294 61.8778C72.9505 60.7917 69.3209 61.9044 68.3969 62.4691C68.0072 62.7062 67.3305 63.1007 66.5399 63.5926C66.3048 62.1995 65.7889 59.8876 64.9026 59.3672C63.6154 58.6097 61.3422 60.2457 61.0899 61.626C60.8375 63.0063 61.7462 63.0545 61.7462 63.0545C61.7462 63.0545 61.1112 64.6177 63.4516 65.7028C62.0993 66.7525 60.9932 67.8642 60.8965 68.7713C60.7775 69.8791 61.2364 72.2835 61.7024 74.3307C60.4366 72.494 59.8424 69.946 61.0451 67.3054C61.0451 67.3054 58.8167 70.9278 60.7683 74.5885L60.7714 74.5934C60.9098 74.8521 61.0705 75.1129 61.2537 75.3716C65.4124 82.3349 60.228 81.4269 60.228 81.4269C62.4147 81.8263 63.7203 81.662 64.4376 81.173C64.5394 82.5139 64.5709 85.0167 63.5646 86.2858C63.5646 86.2858 65.6353 84.6242 65.56 81.0333C65.5315 79.7003 65.3565 79.2536 65.1479 79.2182C65.1031 78.8847 65.0115 78.5355 64.8894 78.1833L66.2 78.4076L78.7434 73.9736C78.7434 73.9736 78.8492 72.5717 78.9459 71.0193C78.9459 71.0193 80.4041 60.2044 75.7294 61.8778Z" fill="#353131"/>
<path d="M67.5017 79.2645L64.3442 79.7633L64.5477 81.1622L65.7332 89.8855C66.5574 92.3962 74.709 92.6293 73.9296 90.7523L73.9388 89.738C73.9245 88.7729 74.36 87.8058 75.0835 87.1958L67.5017 79.2645Z" fill="#F8A6B3"/>
<path d="M78.6162 72.4478L78.4157 71.2898C78.0403 68.6828 67.185 71.1167 67.185 71.1167L66.7678 73.2781L66.143 73.828L66.2 78.4076L64.6899 77.838L64.8741 78.1508C64.8741 78.1508 65.5935 82.6222 65.7451 84.0388C65.8968 85.4555 71.2501 87.5067 72.1089 87.6051C72.9677 87.7025 75.418 87.7222 76.1242 87.3611C77.5447 86.6341 76.8813 85.4604 77.1092 84.5268C77.2862 83.8008 78.3842 79.8734 78.4351 79.1405C78.4859 78.4076 77.8673 76.1527 77.8673 76.1527C77.8673 76.1527 78.6467 74.9023 78.7434 73.9736C78.7759 73.6627 78.7129 73.0823 78.6162 72.4478Z" fill="#FFC9D2"/>
<path d="M64.8031 77.4257C64.8031 77.4257 63.7184 75.531 62.0537 76.1547C61.3617 76.4134 61.1613 78.0042 62.2602 79.654C63.3592 81.3029 64.6016 82.2247 65.3434 81.1593C65.3434 81.1593 65.0727 78.1793 64.8031 77.4257Z" fill="#FFC9D2"/>
<path d="M77.4512 83.2331C77.4512 83.2331 77.8745 81.8882 77.3494 81.7909C76.8233 81.6935 73.8765 81.7181 73.2202 81.8646C72.8834 81.9394 72.5598 82.2975 72.3247 82.6281C72.0571 83.0049 71.6186 83.2331 71.1464 83.2331C70.7312 83.2331 70.3375 83.057 70.0668 82.753L66.2001 78.4076C66.2001 78.4076 64.457 76.5394 64.804 77.4258C65.15 78.3112 65.3474 84.3438 65.8022 84.8573C66.256 85.3699 68.7379 87.3306 71.8058 87.9524C74.8737 88.5761 77.0523 87.6415 77.3555 87.0915C77.6588 86.5426 77.2792 84.7285 77.2792 84.4353C77.2792 84.1421 77.4512 83.2331 77.4512 83.2331Z" fill="#353131"/>
<path d="M73.1204 74.5432H73.1224H73.1204ZM73.1224 74.7547L71.4811 74.7665C70.7902 74.7705 70.2224 75.3244 70.2132 76.0012C70.2112 76.1389 70.2224 76.2796 70.2468 76.4183C70.3933 77.2752 71.0537 77.9609 71.8891 78.1252C72.5037 78.2462 73.1092 78.1026 73.5935 77.7189C74.1105 77.3106 74.4066 76.6948 74.4066 76.0297L74.4055 75.9953C74.3954 75.3096 73.8245 74.7547 73.1306 74.7547H73.1224ZM72.3145 78.5925C72.1456 78.5925 71.9736 78.5758 71.8016 78.5414C70.7892 78.3426 69.9904 77.5172 69.8133 76.4882C69.7848 76.3249 69.7716 76.1596 69.7736 75.9953C69.7859 75.0892 70.55 74.3475 71.477 74.3406L73.1194 74.3297H73.1306C74.0626 74.3297 74.8309 75.0715 74.8451 75.9884L74.8461 76.0297C74.8461 76.8237 74.491 77.5586 73.8713 78.0475C73.4195 78.4056 72.8792 78.5925 72.3145 78.5925Z" fill="#353131"/>
<path d="M78.541 74.5432H78.543H78.541ZM78.543 74.7547L77.2294 74.7665C76.7023 74.7695 76.2667 75.3234 76.2596 76.0002C76.2586 76.1399 76.2678 76.2836 76.2871 76.4262C76.4031 77.2693 76.9332 77.9688 77.5753 78.1272C78.0749 78.2492 78.4636 78.0633 78.7018 77.8842C79.2095 77.5015 79.525 76.7912 79.525 76.0297V75.9933C79.5158 75.3096 79.0793 74.7547 78.5481 74.7547H78.543ZM77.8908 78.5906C77.7503 78.5906 77.6079 78.5738 77.4675 78.5394C76.6422 78.3367 75.993 77.5094 75.8516 76.4813C75.8292 76.32 75.819 76.1567 75.8211 75.9963C75.8302 75.0902 76.4601 74.3475 77.2263 74.3406L78.5389 74.3297C79.3194 74.3209 79.9533 75.0686 79.9645 75.9894V76.0297C79.9645 76.9329 79.5931 77.7514 78.9704 78.2197C78.6448 78.4646 78.2723 78.5906 77.8908 78.5906Z" fill="#353131"/>
<path d="M76.0409 76.3377C75.9565 76.3377 75.8761 76.2904 75.8394 76.2117C75.6034 75.6972 75.4253 75.651 75.3754 75.649C75.3215 75.652 75.1271 75.6825 74.8188 76.2275C74.7608 76.3298 74.6275 76.3692 74.5207 76.3121C74.4138 76.255 74.3752 76.1262 74.4332 76.0229C74.7456 75.4729 75.0549 75.2161 75.3937 75.225C75.7183 75.2368 75.9951 75.5034 76.2414 76.0386C76.2902 76.1468 76.2404 76.2727 76.1294 76.32C76.1009 76.3318 76.0704 76.3377 76.0409 76.3377Z" fill="#353131"/>
<path d="M78.3119 74.7665L70.9265 74.7547H64.6085C64.4874 74.7547 64.3887 74.6603 64.3887 74.5432C64.3887 74.4252 64.4874 74.3297 64.6085 74.3297H70.9265L78.3129 74.3415C78.434 74.3415 78.5327 74.437 78.5317 74.554C78.5317 74.6711 78.434 74.7665 78.3119 74.7665Z" fill="#353131"/>
<path d="M64.8872 90.0636C71.0474 105.31 73.4631 117.653 74.1367 126.98L74.15 143.566C63.3211 145.52 54.9182 145.679 57.1711 137.969C57.1711 137.969 60.1952 126.072 57.1711 114.317C54.1469 102.564 55.0423 91.3258 55.0423 91.3258L64.8872 90.0636Z" fill="white"/>
<path d="M65.2058 86.0045L62.1582 98.3826L66.3353 99.7678H64.2462C64.2462 99.7678 73.3248 120.939 74.1369 126.98C74.1369 126.98 74.5561 111.781 70.67 102.348C66.7433 92.8163 65.2058 86.0045 65.2058 86.0045Z" fill="#F2F3FF"/>
<path d="M82.154 133.106L86.4206 133.316C83.3334 133.165 83.4107 127.856 83.6051 126.98C86.9162 112.092 88.0314 98.8381 81.5232 91.2678L75.0698 90.4591C75.0698 90.4591 84.3947 107.464 82.6811 127.231L82.154 133.106Z" fill="white"/>
<path d="M82.1554 99.266L80.6626 99.3378L82.6744 98.1199L74.2114 88.3852C74.0099 88.822 73.9254 89.2766 73.9325 89.7586V90.3853C76.5029 94.6205 82.6174 106.439 82.8718 123.847C82.8718 123.847 84.2302 109.157 82.1554 99.266Z" fill="#F2F3FF"/>
<path d="M59.2389 135.744C59.2206 135.744 59.2023 135.742 59.185 135.738C59.0669 135.71 58.9957 135.594 59.0252 135.481C62.2122 123.207 59.0568 110.723 59.0252 110.598C58.9957 110.485 59.0669 110.369 59.185 110.342C59.303 110.313 59.4221 110.382 59.4516 110.495C59.4841 110.621 62.666 123.204 59.4516 135.584C59.4261 135.68 59.3366 135.744 59.2389 135.744Z" fill="#F2F3FF"/>
<path d="M85.4298 117.542C85.4125 117.542 85.3952 117.54 85.3779 117.536C85.2609 117.509 85.1876 117.394 85.2161 117.28C87.123 109.532 85.6628 101.737 85.6486 101.659C85.6262 101.544 85.7045 101.433 85.8236 101.411C85.9437 101.391 86.0576 101.466 86.08 101.582C86.0953 101.661 87.5718 109.543 85.6425 117.379C85.6191 117.476 85.5285 117.542 85.4298 117.542Z" fill="#F2F3FF"/>
<path d="M119.204 125.352H119.192L91.7398 124.102C91.0855 124.071 90.5106 123.696 90.2399 123.119L85.8868 113.895C85.836 113.788 85.8848 113.663 85.9957 113.614C86.1056 113.566 86.2359 113.611 86.2867 113.719L90.6388 122.943C90.8423 123.374 91.2717 123.655 91.7602 123.677L119.214 124.928C119.334 124.932 119.427 125.032 119.422 125.15C119.417 125.264 119.319 125.352 119.204 125.352Z" fill="#F2F3FF"/>
<path d="M81.4521 122.199C81.4521 122.199 87.4903 122.434 88.9719 122.344C88.9719 122.344 90.9968 123.847 95.6318 124.71C97.1052 124.983 95.3021 125.641 94.2082 125.641C93.1133 125.641 87.1942 125.641 87.1942 125.641L86.4209 127.472H81.6638C81.6638 127.472 80.2779 125.635 81.4521 122.199Z" fill="#F8A6B3"/>
<path d="M51.7008 128.183L81.6637 127.471L81.4236 121.5L51.2968 118.435L51.0068 123.328L51.7008 128.183Z" fill="white"/>
<path d="M50.2316 95.8601C49.5112 99.0457 51.5972 102.194 54.89 102.89C58.1838 103.587 61.4369 101.569 62.1574 98.3846C62.8778 95.199 60.7918 92.0519 57.499 91.3553C54.2062 90.6578 50.9521 92.6756 50.2316 95.8601Z" fill="white"/>
<path d="M50.2336 95.8601L46.2051 121.868L51.0069 123.328L56.0458 123.847L62.1583 98.3826C62.8777 95.202 60.7917 92.0538 57.4959 91.3573C54.2071 90.6598 50.953 92.6775 50.2336 95.8601Z" fill="white"/>
<path d="M45.9671 123.822C46.2489 126.514 48.7338 128.476 51.5178 128.204C54.3008 127.932 56.3298 125.528 56.048 122.835C55.7661 120.142 53.2813 118.181 50.4972 118.453C47.7132 118.725 45.6852 121.129 45.9671 123.822Z" fill="white"/>
<path d="M58.091 115.537C58.0748 115.537 58.0585 115.535 58.0412 115.532C57.9231 115.505 57.8499 115.39 57.8774 115.275L60.6766 103.612C60.7041 103.497 60.8232 103.425 60.9412 103.453C61.0592 103.48 61.1325 103.594 61.105 103.709L58.3057 115.373C58.2813 115.471 58.1918 115.537 58.091 115.537Z" fill="#F2F3FF"/>
<path d="M96.1057 188.025L89.9058 132.457H92.9096L97.8081 188.025H96.1057Z" fill="white"/>
<path d="M96.1062 188.238C95.9953 188.238 95.9006 188.157 95.8874 188.049L89.6885 132.481C89.6813 132.42 89.7007 132.36 89.7434 132.316C89.7851 132.27 89.8431 132.245 89.9062 132.245H92.91C93.024 132.245 93.1186 132.329 93.1288 132.44L98.0273 188.006C98.0375 188.124 97.9479 188.227 97.8279 188.238C97.7058 188.248 97.5999 188.16 97.5887 188.044L92.7075 132.67H90.1514L96.3239 188.002C96.3372 188.119 96.2507 188.224 96.1296 188.237L96.1062 188.238Z" fill="#728BE8"/>
<path d="M56.2554 188.025L61.1559 132.457H64.1567L57.9567 188.025H56.2554Z" fill="white"/>
<path d="M57.9576 188.238L57.9332 188.237C57.8131 188.224 57.7256 188.119 57.7388 188.002L63.9123 132.67H61.3573L56.473 188.044C56.4628 188.16 56.357 188.248 56.2359 188.238C56.1148 188.227 56.0253 188.124 56.0355 188.006L60.937 132.44C60.9462 132.329 61.0418 132.245 61.1558 132.245H64.1566C64.2196 132.245 64.2787 132.27 64.3204 132.316C64.3621 132.36 64.3825 132.42 64.3753 132.481L58.1754 188.049C58.1632 188.157 58.0685 188.238 57.9576 188.238Z" fill="#353131"/>
<path d="M100.806 127.471H52.7349V132.457H100.806V127.471Z" fill="white"/>
<path d="M52.9547 132.245H100.586V127.685H52.9547V132.245ZM100.806 132.67H52.7349C52.6138 132.67 52.5151 132.575 52.5151 132.457V127.471C52.5151 127.354 52.6138 127.259 52.7349 127.259H100.806C100.927 127.259 101.026 127.354 101.026 127.471V132.457C101.026 132.575 100.927 132.67 100.806 132.67Z" fill="#353131"/>
<path d="M141.574 97.4303H104.348C103.417 97.4303 102.571 98.116 102.393 99.0112L97.2455 124.953C97.1987 125.193 97.2048 125.425 97.2536 125.641H83.3335C84.3144 126.8 85.7807 127.472 87.3294 127.472H134.71C135.201 127.472 135.682 127.368 136.121 127.175C136.418 127.043 137.433 126.356 137.615 126.141C137.822 125.896 137.971 125.604 138.034 125.284L143.183 99.3428C143.385 98.3177 142.639 97.4303 141.574 97.4303Z" fill="white"/>
<path d="M83.8282 125.853C84.7521 126.751 86.0027 127.259 87.3296 127.259H134.71C135.168 127.259 135.612 127.166 136.029 126.982C136.319 126.854 137.298 126.18 137.445 126.007C137.635 125.783 137.765 125.52 137.819 125.244L142.966 99.3024C143.052 98.8725 142.945 98.4436 142.675 98.1278C142.409 97.8159 142.018 97.6428 141.574 97.6428H104.348C103.529 97.6428 102.766 98.2616 102.61 99.0516L97.4624 124.992C97.4217 125.196 97.4248 125.399 97.4685 125.594C97.4817 125.658 97.4665 125.724 97.4248 125.774C97.383 125.825 97.321 125.853 97.2538 125.853H83.8282ZM134.71 127.685H87.3296C85.7086 127.685 84.1905 126.987 83.1648 125.775C83.1108 125.711 83.0986 125.623 83.1353 125.549C83.1719 125.475 83.2492 125.428 83.3337 125.428H96.9994C96.9862 125.258 96.9964 125.085 97.03 124.913L102.178 98.9719C102.375 97.9714 103.308 97.2178 104.348 97.2178H141.574C142.142 97.2178 142.667 97.4509 143.014 97.8572C143.368 98.2714 143.508 98.8273 143.398 99.3831L138.25 125.323C138.183 125.668 138.021 125.998 137.785 126.276C137.569 126.53 136.511 127.236 136.212 127.368C135.737 127.578 135.231 127.685 134.71 127.685Z" fill="#353131"/>
<path d="M19.5443 165.075C19.4629 165.889 20.0816 166.613 20.9241 166.691L73.9366 171.566C74.1157 171.582 74.2918 171.591 74.4709 171.591C74.6123 171.591 74.7548 171.583 74.8952 171.574L93.4737 171.591C93.4869 171.591 93.4991 171.591 93.5123 171.589H93.5154L93.8003 171.58C96.6607 171.418 98.939 169.113 98.939 166.304V156.947C98.939 154.138 96.6607 151.833 93.8003 151.672C93.726 151.667 93.6507 151.662 93.5744 151.662C93.5642 151.662 93.5561 151.662 93.5439 151.662H93.4716L74.8952 151.678C74.8535 151.676 74.8117 151.672 74.77 151.67C74.7222 151.669 74.6774 151.667 74.6296 151.664C74.5828 151.662 74.537 151.662 74.4892 151.662C74.4383 151.662 74.3874 151.662 74.3355 151.664C74.2958 151.664 74.2541 151.664 74.2144 151.667C74.1218 151.672 74.0303 151.678 73.9366 151.685L20.9241 156.561C20.0816 156.639 19.4629 157.362 19.5443 158.178C19.6247 158.992 20.3716 159.59 21.2141 159.512H40.2994L42.5298 157.551L74.1554 154.643L74.7568 154.642C74.8158 154.65 74.8748 154.657 74.9318 154.666C74.941 154.668 74.9522 154.67 74.9623 154.671C75.0376 154.686 75.1119 154.702 75.1831 154.723L75.1933 154.725C75.9392 154.938 76.5456 155.469 76.8499 156.151L93.2407 154.643L93.842 154.642C93.9011 154.65 93.958 154.657 94.0171 154.666C94.0272 154.668 94.0374 154.67 94.0476 154.671C94.1239 154.686 94.1972 154.702 94.2694 154.723L94.2786 154.725C95.2005 154.987 95.9097 155.74 96.0969 156.654L96.099 156.672C96.1112 156.741 96.1224 156.811 96.1305 156.881C96.1386 156.963 96.1417 157.042 96.1417 157.125V166.127C96.1417 166.206 96.1386 166.29 96.1305 166.371C96.1224 166.441 96.1112 166.51 96.099 166.579L96.0969 166.597C95.9097 167.51 95.2025 168.264 94.2796 168.525L94.2633 168.53C94.1931 168.549 94.1239 168.565 94.0486 168.58C94.0374 168.582 94.0242 168.584 94.0109 168.585C93.956 168.595 93.899 168.603 93.842 168.61L93.2407 168.608L76.8499 167.102C76.5456 167.78 75.9412 168.313 75.1974 168.525L75.1781 168.53C75.1078 168.549 75.0376 168.565 74.9654 168.58L74.9257 168.585C74.8708 168.595 74.8138 168.603 74.7568 168.61L74.1554 168.608L41.9529 165.647L40.2994 163.74H21.2141C20.3706 163.661 19.6247 164.26 19.5443 165.075Z" fill="white"/>
<path d="M19.5444 165.075H19.5474H19.5444ZM74.881 171.362L93.4737 171.378C93.488 171.376 93.5022 171.376 93.5155 171.376L93.7933 171.367C96.5529 171.211 98.7192 168.987 98.7192 166.304V156.947C98.7192 154.264 96.5529 152.041 93.7871 151.884C93.7088 151.878 93.6335 151.877 93.5592 151.876H93.544L93.4656 151.874L74.8952 151.89L74.6205 151.877C74.5757 151.876 74.533 151.874 74.4892 151.876C74.4363 151.874 74.3895 151.876 74.3437 151.877C74.3 151.877 74.2613 151.877 74.2247 151.878C74.126 151.884 74.0415 151.89 73.955 151.897L20.9455 156.773C20.5955 156.805 20.2801 156.968 20.0572 157.228C19.8334 157.49 19.7296 157.82 19.7642 158.157C19.7967 158.495 19.9636 158.8 20.2343 159.017C20.5049 159.232 20.8458 159.332 21.1938 159.3L40.215 159.298L42.3813 157.394C42.4169 157.363 42.4617 157.344 42.5085 157.34L74.1351 154.432L74.7558 154.429C74.7741 154.424 74.7752 154.43 74.7843 154.431C74.8464 154.438 74.9074 154.446 74.9675 154.456L74.9624 154.671L75.0041 154.463C75.0835 154.479 75.1608 154.495 75.2361 154.516L75.2555 154.521C75.9983 154.733 76.6342 155.253 76.9833 155.925L93.2194 154.432L93.8411 154.429C93.8584 154.424 93.8614 154.43 93.8706 154.431C93.9306 154.438 93.9896 154.446 94.0517 154.456L94.0476 154.671L94.0894 154.463C94.1687 154.479 94.2461 154.495 94.3214 154.516L94.3407 154.521C95.3369 154.804 96.1102 155.626 96.3117 156.613C96.3148 156.621 96.3148 156.631 96.3168 156.641C96.329 156.713 96.3412 156.786 96.3493 156.859C96.3575 156.949 96.3616 157.037 96.3616 157.125V166.127C96.3616 166.213 96.3575 166.302 96.3493 166.39C96.3412 166.465 96.329 166.539 96.3148 166.612C96.3148 166.622 96.3148 166.631 96.3117 166.639C96.1102 167.626 95.3369 168.446 94.3427 168.729L94.3204 168.736C94.2461 168.756 94.1718 168.773 94.0934 168.788L94.0537 168.795C93.9907 168.805 93.9306 168.813 93.8706 168.819C93.8614 168.821 93.8543 168.826 93.8411 168.821L93.2397 168.819L76.9833 167.327C76.6332 167.999 75.9993 168.516 75.2595 168.729L75.2351 168.736C75.1608 168.756 75.0876 168.773 75.0112 168.788L74.9563 168.796C74.9054 168.805 74.8454 168.813 74.7853 168.819C74.7762 168.821 74.7731 168.826 74.7558 168.821L74.1545 168.819L41.9316 165.858C41.8746 165.853 41.8217 165.827 41.784 165.784L40.1977 163.953H21.2142C20.8458 163.919 20.5039 164.02 20.2343 164.236C19.9636 164.45 19.7967 164.756 19.7642 165.096C19.7296 165.432 19.8334 165.762 20.0572 166.023C20.2801 166.284 20.5955 166.447 20.9455 166.478L73.9581 171.355C74.3051 171.384 74.589 171.381 74.881 171.362ZM93.4737 171.802L74.8952 171.787C74.7803 171.794 74.6266 171.802 74.4709 171.802C74.3 171.802 74.1188 171.795 73.9184 171.779L20.9038 166.902C20.4368 166.859 20.0155 166.643 19.7174 166.292C19.4202 165.944 19.2808 165.504 19.3266 165.054C19.3704 164.603 19.5942 164.196 19.9544 163.907C20.3147 163.619 20.7705 163.484 21.2355 163.53L40.3004 163.528C40.3656 163.528 40.4266 163.556 40.4683 163.604L42.0628 165.444L74.1768 168.396L74.7426 168.397C74.7914 168.391 74.8413 168.385 74.8891 168.377L74.9349 168.37C74.9889 168.359 75.055 168.343 75.1211 168.326L75.1435 168.319C75.8029 168.13 76.3687 167.643 76.6485 167.016C76.6861 166.932 76.7767 166.88 76.8703 166.89L93.2611 168.396L93.8279 168.397C93.8777 168.391 93.9255 168.385 93.9734 168.377L94.0487 168.58L94.0049 168.372C94.0741 168.359 94.1402 168.343 94.2064 168.326C95.055 168.084 95.7052 167.396 95.8792 166.567L95.8823 166.542V166.541C95.8945 166.477 95.9047 166.412 95.9118 166.347C95.9189 166.277 95.922 166.201 95.922 166.127V157.125C95.922 157.049 95.9189 156.975 95.9118 156.901C95.9047 156.839 95.8945 156.775 95.8823 156.711H95.8833L95.8792 156.685C95.7073 155.859 95.0591 155.172 94.2267 154.931H94.2237L94.2084 154.927C94.1423 154.909 94.0741 154.893 94.0049 154.88L94.0171 154.666L93.9815 154.876C93.9296 154.867 93.8797 154.86 93.8279 154.854L93.2417 154.856L76.8703 156.363C76.7767 156.373 76.6861 156.319 76.6485 156.235C76.3697 155.611 75.8059 155.124 75.1405 154.931L75.1232 154.927C75.057 154.909 74.9889 154.893 74.9186 154.88L74.9319 154.666L74.8952 154.875C74.8454 154.867 74.7945 154.86 74.7436 154.854L74.1565 154.856L42.6225 157.757L40.448 159.669C40.4073 159.704 40.3544 159.724 40.3004 159.724H21.2142C20.7705 159.767 20.3157 159.632 19.9544 159.344C19.5932 159.055 19.3704 158.648 19.3256 158.197C19.2808 157.747 19.4202 157.307 19.7184 156.959C20.0165 156.61 20.4368 156.393 20.9038 156.351L73.9164 151.473C74.0089 151.465 74.0965 151.46 74.186 151.455C74.2471 151.452 74.2928 151.452 74.3356 151.452C74.3834 151.451 74.4414 151.449 74.4964 151.451C74.5401 151.45 74.5879 151.451 74.6388 151.452L74.9054 151.465L93.4717 151.449L93.5317 151.451C93.5521 151.449 93.5694 151.449 93.5887 151.451C93.6661 151.452 93.7424 151.455 93.8177 151.46C96.8103 151.63 99.1588 154.04 99.1588 156.947V166.304C99.1588 169.212 96.8103 171.622 93.8136 171.792L93.545 171.8C93.5338 171.802 93.5226 171.802 93.5114 171.802H93.5063C93.4961 171.802 93.4849 171.802 93.4737 171.802Z" fill="#353131"/>
<path d="M90.6069 161.626C90.6069 160.042 91.3406 158.759 92.2462 158.759C93.1508 158.759 93.8855 160.042 93.8855 161.626C93.8855 163.21 93.1508 164.493 92.2462 164.493C91.3406 164.493 90.6069 163.21 90.6069 161.626ZM77.0114 166.597C76.9748 166.772 76.9198 166.941 76.8496 167.102L93.2404 168.608L93.8417 168.61C93.8987 168.603 93.9557 168.595 94.0107 168.585C94.0239 168.584 94.0371 168.582 94.0483 168.58C94.1236 168.565 94.1928 168.549 94.263 168.53L94.2793 168.525C95.2022 168.264 95.9094 167.51 96.0966 166.597L96.0987 166.579C96.1109 166.51 96.1221 166.441 96.1302 166.371C96.1384 166.29 96.1414 166.206 96.1414 166.127V157.125C96.1414 157.042 96.1384 156.963 96.1302 156.881C96.1221 156.811 96.1109 156.741 96.0987 156.672L96.0966 156.654C95.9094 155.74 95.2002 154.987 94.2783 154.725L94.2691 154.723C94.1969 154.702 94.1236 154.686 94.0473 154.671C94.0371 154.67 94.0269 154.668 94.0168 154.666C93.9577 154.657 93.9008 154.65 93.8417 154.642L93.2404 154.643L76.8496 156.151C76.9219 156.31 76.9748 156.479 77.0114 156.654L77.0134 156.672C77.0267 156.741 77.0379 156.811 77.045 156.881C77.0531 156.963 77.0582 157.042 77.0582 157.125V166.127C77.0582 166.206 77.0531 166.29 77.045 166.371C77.0379 166.441 77.0267 166.51 77.0134 166.579L77.0114 166.597Z" fill="#FF7823"/>
<path d="M92.2465 158.972C91.4762 158.972 90.826 160.187 90.826 161.626C90.826 163.064 91.4762 164.281 92.2465 164.281C93.0158 164.281 93.666 163.064 93.666 161.626C93.666 160.187 93.0158 158.972 92.2465 158.972ZM92.2465 164.705C91.2046 164.705 90.3875 163.352 90.3875 161.626C90.3875 159.898 91.2046 158.546 92.2465 158.546C93.2885 158.546 94.1056 159.898 94.1056 161.626C94.1056 163.352 93.2885 164.705 92.2465 164.705ZM77.0117 166.599H77.0137H77.0117ZM93.9733 168.377L94.0486 168.58L94.0049 168.372C94.0741 168.359 94.1402 168.343 94.2063 168.326C95.055 168.084 95.7052 167.396 95.8792 166.567L95.8822 166.542V166.541C95.8945 166.477 95.9046 166.412 95.9118 166.347C95.9189 166.277 95.9219 166.201 95.9219 166.127V157.125C95.9219 157.049 95.9189 156.975 95.9118 156.901C95.9046 156.839 95.8945 156.775 95.8822 156.711H95.8833L95.8792 156.685C95.7072 155.859 95.059 155.172 94.2267 154.931H94.2236L94.2084 154.927C94.1422 154.909 94.0741 154.893 94.0049 154.88L94.0171 154.666L93.9815 154.876C93.9296 154.867 93.8797 154.86 93.8278 154.854L93.2417 154.856L77.1552 156.336C77.1827 156.426 77.2071 156.517 77.2264 156.613C77.2284 156.621 77.2295 156.63 77.2305 156.64V156.641C77.2447 156.714 77.2559 156.787 77.2641 156.859C77.2722 156.949 77.2783 157.037 77.2783 157.125V166.127C77.2783 166.213 77.2722 166.302 77.2641 166.39C77.2559 166.464 77.2447 166.537 77.2305 166.609L77.2295 166.619C77.2295 166.632 77.2295 166.627 77.2264 166.64C77.2071 166.733 77.1827 166.824 77.1542 166.915L93.261 168.396L93.8278 168.397C93.8777 168.391 93.9255 168.385 93.9733 168.377ZM93.8421 168.821H93.841L93.2397 168.819L76.8285 167.312C76.7594 167.305 76.6973 167.268 76.6607 167.209C76.625 167.152 76.62 167.08 76.6474 167.018C76.7115 166.871 76.7614 166.719 76.794 166.567V166.563L76.797 166.541C76.8092 166.477 76.8204 166.412 76.8265 166.349C76.8336 166.277 76.8387 166.201 76.8387 166.127V157.125C76.8387 157.049 76.8336 156.975 76.8265 156.901C76.8204 156.839 76.8092 156.775 76.797 156.711L76.794 156.687V156.685C76.7604 156.525 76.7115 156.373 76.6484 156.236C76.62 156.173 76.625 156.101 76.6607 156.043C76.6963 155.984 76.7594 155.945 76.8285 155.94L93.2193 154.432L93.841 154.429C93.8543 154.433 93.8604 154.43 93.8705 154.431C93.9306 154.438 93.9896 154.446 94.0517 154.456L94.0476 154.671L94.0893 154.463C94.1687 154.479 94.246 154.495 94.3213 154.516L94.3407 154.521C95.3368 154.804 96.1102 155.626 96.3117 156.613C96.3147 156.621 96.3147 156.631 96.3167 156.641C96.329 156.713 96.3412 156.786 96.3493 156.859C96.3574 156.949 96.3615 157.037 96.3615 157.125V166.127C96.3615 166.213 96.3574 166.302 96.3493 166.39C96.3412 166.465 96.329 166.539 96.3147 166.612C96.3147 166.622 96.3147 166.631 96.3117 166.639C96.1102 167.626 95.3368 168.446 94.3427 168.729L94.3203 168.736C94.246 168.755 94.1717 168.773 94.0934 168.788L94.0537 168.795C93.9906 168.805 93.9306 168.813 93.8705 168.819C93.8614 168.821 93.8522 168.821 93.8421 168.821Z" fill="#353131"/>
<path d="M38.6304 165.075C38.548 165.889 39.1667 166.613 40.0092 166.691L93.0217 171.566C93.1856 171.58 93.3494 171.589 93.5122 171.589H93.5152C93.5285 171.591 93.5427 171.591 93.5559 171.591C93.6984 171.591 93.8398 171.583 93.9803 171.574L93.8002 171.58C96.6605 171.418 98.9388 169.113 98.9388 166.304V156.947C98.9388 154.138 96.6605 151.833 93.8002 151.672L93.9803 151.678C93.9385 151.676 93.8968 151.672 93.8531 151.67C93.8083 151.669 93.7625 151.667 93.7157 151.664C93.6669 151.662 93.619 151.662 93.5743 151.662C93.5641 151.662 93.5559 151.662 93.5437 151.662H93.5285C93.4929 151.662 93.4572 151.662 93.4206 151.664C93.3789 151.664 93.3392 151.664 93.2995 151.667C93.2059 151.672 93.1133 151.678 93.0217 151.685L40.0092 156.559C39.1667 156.639 38.548 157.362 38.6304 158.178C38.7016 158.896 39.2878 159.445 40.0051 159.512C40.1018 159.521 40.1995 159.521 40.2992 159.512L76.8497 156.151L93.2405 154.643L93.8419 154.642C93.9009 154.65 93.9579 154.657 94.0169 154.666C94.0271 154.668 94.0373 154.67 94.0474 154.671C94.1237 154.686 94.197 154.702 94.2693 154.723L94.2784 154.725C95.2003 154.987 95.9095 155.74 96.0968 156.654L96.0988 156.672C96.111 156.741 96.1222 156.811 96.1304 156.881C96.1385 156.963 96.1416 157.042 96.1416 157.125V166.127C96.1416 166.206 96.1385 166.29 96.1304 166.371C96.1222 166.441 96.111 166.51 96.0988 166.579L96.0968 166.597C95.9095 167.51 95.2024 168.264 94.2794 168.525L94.2631 168.53C94.1929 168.549 94.1237 168.565 94.0484 168.58C94.0373 168.582 94.024 168.584 94.0108 168.585C93.9558 168.595 93.8989 168.603 93.8419 168.61L93.2405 168.608L76.8497 167.102L40.2992 163.74C40.1995 163.731 40.1008 163.731 40.0051 163.74C39.2878 163.806 38.7016 164.355 38.6304 165.075Z" fill="#FFF9F2"/>
<path d="M93.5358 151.872H93.5368H93.5358ZM38.6306 165.075H38.6327H38.6306ZM93.5155 171.376C93.5256 171.376 93.5368 171.377 93.548 171.378C93.6142 171.378 93.6803 171.376 93.7444 171.374C93.7587 171.37 93.7729 171.368 93.7872 171.367C96.5529 171.211 98.7192 168.987 98.7192 166.304V156.947C98.7192 154.264 96.5529 152.041 93.7872 151.884C93.7739 151.883 93.7617 151.881 93.7495 151.878L93.7068 151.877C93.662 151.876 93.6182 151.877 93.5745 151.876C93.5643 151.876 93.5552 151.876 93.544 151.876C93.4972 151.876 93.4646 151.876 93.4331 151.877C93.3832 151.877 93.3466 151.877 93.3099 151.878L93.2886 151.88C93.2051 151.885 93.1217 151.89 93.0403 151.897L40.0308 156.771C39.6808 156.804 39.3663 156.966 39.1425 157.227C38.9196 157.489 38.8148 157.82 38.8484 158.157C38.9094 158.762 39.405 159.242 40.0267 159.3C40.1102 159.308 40.1926 159.308 40.2791 159.299L93.2194 154.432L93.8411 154.429C93.8543 154.433 93.8614 154.43 93.8706 154.431C93.9306 154.438 93.9897 154.446 94.0517 154.456L94.0477 154.671L94.0894 154.463C94.1687 154.479 94.2461 154.495 94.3214 154.516L94.3407 154.521C95.3369 154.804 96.1102 155.626 96.3117 156.612C96.3148 156.621 96.3148 156.631 96.3168 156.641C96.329 156.713 96.3412 156.786 96.3494 156.859C96.3575 156.949 96.3616 157.037 96.3616 157.125V166.127C96.3616 166.213 96.3575 166.302 96.3494 166.39C96.3412 166.465 96.329 166.539 96.3148 166.612C96.3148 166.622 96.3148 166.631 96.3117 166.639C96.1102 167.626 95.3369 168.446 94.3427 168.729L94.3204 168.736C94.2461 168.755 94.1718 168.773 94.0934 168.788L94.0538 168.795C93.9907 168.805 93.9306 168.813 93.8706 168.819C93.8614 168.821 93.8564 168.818 93.8411 168.821L93.2397 168.819L40.2791 163.952C40.1926 163.944 40.1081 163.944 40.0277 163.952C39.405 164.01 38.9094 164.49 38.8484 165.096C38.8148 165.432 38.9186 165.762 39.1415 166.023C39.3653 166.285 39.6808 166.447 40.0308 166.478L93.0433 171.355C93.2255 171.369 93.374 171.37 93.5145 171.376H93.5155ZM93.5562 171.802C93.545 171.802 93.5338 171.802 93.5226 171.802H93.5114L93.489 171.8C93.3455 171.8 93.1909 171.792 93.0047 171.779L39.9891 166.902C39.522 166.859 39.1018 166.643 38.8026 166.294C38.5055 165.944 38.3661 165.504 38.4119 165.054C38.4923 164.247 39.1547 163.605 39.985 163.53C40.0929 163.518 40.2058 163.518 40.3208 163.53L93.2611 168.396L93.8279 168.397C93.8777 168.391 93.9255 168.385 93.9734 168.377L94.0487 168.58L94.0049 168.372C94.0741 168.359 94.1403 168.343 94.2064 168.326C95.055 168.084 95.7052 167.396 95.8792 166.567L95.8823 166.542V166.541C95.8945 166.477 95.9047 166.412 95.9118 166.347C95.9189 166.277 95.922 166.201 95.922 166.127V157.125C95.922 157.049 95.9189 156.975 95.9118 156.901C95.9047 156.839 95.8945 156.775 95.8823 156.711H95.8833L95.8792 156.685C95.7073 155.859 95.0591 155.172 94.2267 154.931H94.2237L94.2084 154.927C94.1423 154.909 94.0741 154.893 94.0049 154.88L94.0171 154.666L93.9815 154.876C93.9296 154.867 93.8798 154.86 93.8279 154.854L93.2417 154.856L40.3208 159.723C40.2058 159.734 40.0959 159.734 39.984 159.723C39.1537 159.646 38.4923 159.005 38.4119 158.197C38.3661 157.747 38.5055 157.307 38.8036 156.958C39.1018 156.608 39.523 156.392 39.9881 156.349L93.0016 151.473C93.0891 151.467 93.1746 151.46 93.2601 151.455L93.2865 151.454C93.3323 151.452 93.375 151.452 93.4208 151.452C93.4493 151.451 93.489 151.451 93.5287 151.451C93.5419 151.449 93.5643 151.448 93.5887 151.451C93.6325 151.451 93.6783 151.451 93.7231 151.452L93.9907 151.465C94.0151 151.467 94.0375 151.471 94.0599 151.479C96.9375 151.762 99.1588 154.12 99.1588 156.947V166.304C99.1588 169.133 96.9375 171.49 94.0588 171.773C94.0385 171.78 94.0171 171.785 93.9958 171.787C93.8655 171.794 93.7119 171.802 93.5562 171.802Z" fill="#353131"/>
<path d="M26.2673 162.126L25.3647 161.709L88.4745 160.457V168.17L40.2994 163.739H25.3647V163.229L25.9966 163.078L25.3647 162.814L28.335 162.65L25.3647 162.263L26.2673 162.126Z" fill="#FFF9F2"/>
<path d="M25.5843 163.528H40.2991L88.2544 167.936V160.675L26.2925 161.901L26.3627 161.934C26.4492 161.974 26.498 162.065 26.4848 162.156C26.4828 162.169 26.4797 162.182 26.4756 162.194L28.3632 162.44C28.4762 162.454 28.5586 162.549 28.5545 162.658C28.5494 162.768 28.4599 162.856 28.3469 162.863L26.1928 162.982C26.2111 163.016 26.2192 163.054 26.2152 163.095C26.208 163.185 26.1409 163.262 26.0493 163.284L25.5843 163.395V163.528ZM88.4742 168.383L88.4539 168.382L40.2788 163.952L25.3645 163.953C25.2434 163.953 25.1447 163.857 25.1447 163.739V163.229C25.1447 163.132 25.2129 163.048 25.3095 163.023L25.278 163.011C25.1844 162.973 25.1304 162.876 25.1477 162.778C25.1661 162.682 25.2505 162.608 25.3523 162.604L26.034 162.564L25.335 162.474C25.2271 162.46 25.1457 162.372 25.1447 162.266C25.1437 162.161 25.223 162.07 25.3309 162.053L25.5354 162.022L25.2698 161.899C25.1783 161.856 25.1284 161.76 25.1498 161.663C25.1711 161.566 25.2587 161.498 25.3604 161.495L88.4691 160.245C88.5271 160.244 88.5851 160.265 88.6279 160.306C88.6706 160.345 88.694 160.4 88.694 160.457V168.17C88.694 168.229 88.6686 168.286 88.6228 168.327C88.5811 168.363 88.5281 168.383 88.4742 168.383Z" fill="#353131"/>
<path d="M93.1113 185.746L45.8276 185.642H20.4468V176.892L93.1113 178.427L92.2088 179.619L93.1113 180.932L90.1421 181.319L93.1113 182.711L92.4794 182.972L93.1113 183.124V185.746Z" fill="#FFF9F2"/>
<path d="M20.6656 185.43H45.8277L92.8926 185.532V183.291L92.4266 183.179C92.335 183.156 92.2689 183.081 92.2607 182.99C92.2526 182.9 92.3065 182.813 92.394 182.778L92.5823 182.7L90.0465 181.509C89.959 181.469 89.9092 181.378 89.9254 181.285C89.9407 181.192 90.017 181.121 90.1127 181.108L92.7349 180.768L92.0267 179.735C91.9748 179.662 91.9778 179.564 92.0318 179.492L92.685 178.631L20.6656 177.109V185.43ZM93.1114 185.958H93.1104L45.8277 185.855H20.4458C20.3247 185.855 20.2271 185.759 20.2271 185.642V176.892C20.2271 176.835 20.2505 176.78 20.2932 176.741C20.3349 176.7 20.3899 176.679 20.4509 176.68L93.1165 178.215C93.1989 178.217 93.2722 178.263 93.3078 178.334C93.3454 178.405 93.3373 178.489 93.2885 178.553L92.4764 179.624L93.2946 180.816C93.3363 180.877 93.3434 180.954 93.3108 181.021C93.2803 181.087 93.2152 181.134 93.1409 181.143L90.8952 181.436L93.2081 182.52C93.2854 182.555 93.3332 182.633 93.3312 182.716C93.3292 182.798 93.2773 182.873 93.1989 182.905L93.1674 182.919C93.263 182.944 93.3312 183.027 93.3312 183.124V185.746C93.3312 185.802 93.3078 185.856 93.2661 185.896C93.2254 185.936 93.1694 185.958 93.1114 185.958Z" fill="#353131"/>
<path d="M21.3117 178.059C21.3117 176.476 22.0464 175.192 22.952 175.192C23.8566 175.192 24.5903 176.476 24.5903 178.059C24.5903 179.644 23.8566 180.927 22.952 180.927C22.0464 180.927 21.3117 179.644 21.3117 178.059ZM19.5371 173.382V182.738C19.5371 185.653 21.9894 188.025 25.0034 188.025L97.552 188.007C98.3945 187.931 99.0121 187.207 98.9328 186.392C98.8514 185.577 98.1065 184.979 97.2619 185.057L44.3207 185.042L43.7203 185.043C43.6633 185.037 43.6063 185.029 43.5504 185.02C43.5371 185.018 43.5249 185.017 43.5117 185.015C43.4395 185.001 43.3682 184.984 43.298 184.965L43.2807 184.961C42.3598 184.698 41.6506 183.945 41.4654 183.032L41.4634 183.013C41.4501 182.945 41.4389 182.875 41.4318 182.805C41.4237 182.723 41.4186 182.643 41.4186 182.56V173.56C41.4186 173.478 41.4237 173.397 41.4318 173.315C41.4389 173.246 41.4501 173.176 41.4634 173.107L41.4654 173.088C41.6506 172.174 42.3608 171.421 43.2827 171.159L43.2929 171.157C43.3652 171.137 43.4384 171.12 43.5137 171.106C43.5239 171.104 43.5351 171.103 43.5453 171.1C43.6033 171.091 43.6613 171.083 43.7203 171.077L44.3207 171.078L97.2619 175.946C98.1045 176.024 98.8514 175.427 98.9328 174.611C99.0121 173.796 98.3945 173.072 97.552 172.996L44.5384 168.12C44.4468 168.112 44.3553 168.106 44.2627 168.102C44.222 168.1 44.1812 168.1 44.1405 168.099C44.0897 168.098 44.0388 168.096 43.9879 168.096C43.9401 168.096 43.8933 168.098 43.8465 168.099C43.7997 168.101 43.7539 168.102 43.7071 168.104C43.6653 168.107 43.6226 168.11 43.5799 168.113L25.0044 168.095H25.0034C21.9894 168.095 19.5371 170.467 19.5371 173.382Z" fill="white"/>
<path d="M22.9521 175.405C22.1828 175.405 21.5316 176.621 21.5316 178.059C21.5316 179.5 22.1828 180.716 22.9521 180.716C23.7214 180.716 24.3706 179.5 24.3706 178.059C24.3706 176.621 23.7214 175.405 22.9521 175.405ZM22.9521 181.141C21.9091 181.141 21.093 179.787 21.093 178.059C21.093 176.334 21.9091 174.98 22.9521 174.98C23.9941 174.98 24.8101 176.334 24.8101 178.059C24.8101 179.787 23.9941 181.141 22.9521 181.141ZM25.0045 168.308C22.1106 168.308 19.757 170.584 19.757 173.382V182.738C19.757 185.536 22.1106 187.813 25.0035 187.813L97.552 187.796C98.2511 187.73 98.7822 187.109 98.7131 186.413C98.6459 185.715 98.0038 185.204 97.2824 185.268L44.3207 185.256H43.7204L43.6959 185.255C43.6339 185.248 43.5728 185.24 43.5118 185.229L43.4721 185.222C43.3917 185.209 43.3144 185.19 43.238 185.169C42.2225 184.88 41.4502 184.059 41.2508 183.073L41.2467 183.052C41.2324 182.978 41.2212 182.902 41.2131 182.826C41.204 182.737 41.1989 182.649 41.1989 182.559V173.56C41.1989 173.471 41.204 173.383 41.2131 173.296C41.2212 173.219 41.2324 173.142 41.2477 173.067C41.4502 172.059 42.2235 171.238 43.2218 170.955C43.3113 170.931 43.3907 170.912 43.4721 170.896L43.5006 170.892C43.5687 170.881 43.6318 170.873 43.6959 170.866L43.7204 170.865H44.3207L97.2824 175.735C97.6314 175.765 97.9733 175.666 98.244 175.449C98.5136 175.233 98.6805 174.929 98.7131 174.59C98.7822 173.894 98.2511 173.273 97.5317 173.207L44.5181 168.331C44.4306 168.324 44.3421 168.319 44.2525 168.315L44.106 168.31C44.0663 168.31 44.0277 168.31 43.989 168.31C43.9503 168.31 43.9117 168.31 43.873 168.312C43.8079 168.314 43.7631 168.315 43.7183 168.317C43.6786 168.319 43.6379 168.322 43.5972 168.324L25.0045 168.308ZM25.0035 188.238C21.8684 188.238 19.3174 185.771 19.3174 182.738V173.382C19.3174 170.349 21.8684 167.883 25.0035 167.883L43.581 167.901C43.6074 167.898 43.6512 167.895 43.6949 167.893C43.7438 167.89 43.7916 167.889 43.8404 167.887C43.9076 167.885 43.9503 167.885 43.9982 167.884C44.0368 167.884 44.0765 167.885 44.1152 167.886L44.1884 167.887C44.2159 167.888 44.2444 167.888 44.2729 167.89C44.3685 167.894 44.4642 167.9 44.5588 167.908L97.5734 172.784C98.535 172.872 99.2422 173.701 99.1516 174.631C99.1068 175.081 98.884 175.489 98.5228 175.778C98.1626 176.066 97.7077 176.202 97.2406 176.158L44.2994 171.29H43.7316C43.6827 171.296 43.6339 171.301 43.585 171.309L43.5138 171.106L43.5555 171.314C43.4873 171.327 43.4202 171.343 43.354 171.361C42.5034 171.603 41.8501 172.295 41.6822 173.129C41.6669 173.209 41.6568 173.272 41.6507 173.337C41.6425 173.411 41.6384 173.485 41.6384 173.56V182.559C41.6384 182.636 41.6425 182.71 41.6507 182.784C41.6568 182.848 41.6669 182.911 41.6791 182.974C41.8501 183.824 42.5023 184.518 43.3418 184.756C43.4222 184.778 43.4873 184.793 43.5535 184.806L43.5901 184.811C43.6359 184.82 43.6837 184.825 43.7316 184.831L44.3207 184.83L97.262 184.845C98.2022 184.759 99.06 185.442 99.1516 186.372C99.2422 187.302 98.535 188.13 97.5734 188.219L25.0035 188.238Z" fill="#353131"/>
<defs>
<linearGradient id="paint0_linear_523_1793" x1="103.337" y1="11.6465" x2="103.337" y2="147.13" gradientUnits="userSpaceOnUse">
<stop stop-color="#FFE9D5"/>
<stop offset="0.015625" stop-color="#D5DDFF"/>
<stop offset="0.03125" stop-color="#D6DDFF"/>
<stop offset="0.0625" stop-color="#D6DEFF"/>
<stop offset="0.078125" stop-color="#D7DEFF"/>
<stop offset="0.09375" stop-color="#D8DFFF"/>
<stop offset="0.109375" stop-color="#D8DFFF"/>
<stop offset="0.125" stop-color="#D9E0FF"/>
<stop offset="0.140625" stop-color="#D9E0FF"/>
<stop offset="0.15625" stop-color="#DAE0FF"/>
<stop offset="0.1875" stop-color="#DAE0FF"/>
<stop offset="0.203125" stop-color="#DBE1FF"/>
<stop offset="0.21875" stop-color="#DCE2FF"/>
<stop offset="0.234375" stop-color="#DCE2FF"/>
<stop offset="0.25" stop-color="#DDE3FF"/>
<stop offset="0.265625" stop-color="#DDE3FF"/>
<stop offset="0.28125" stop-color="#DEE3FF"/>
<stop offset="0.3125" stop-color="#DEE3FF"/>
<stop offset="0.328125" stop-color="#DEE4FF"/>
<stop offset="0.34375" stop-color="#DFE5FF"/>
<stop offset="0.359375" stop-color="#DFE5FF"/>
<stop offset="0.375" stop-color="#E0E6FF"/>
<stop offset="0.390625" stop-color="#E0E6FF"/>
<stop offset="0.40625" stop-color="#E1E7FF"/>
<stop offset="0.4375" stop-color="#E1E7FF"/>
<stop offset="0.453125" stop-color="#E2E7FF"/>
<stop offset="0.46875" stop-color="#E3E8FF"/>
<stop offset="0.484375" stop-color="#E3E8FF"/>
<stop offset="0.5" stop-color="#E4E9FF"/>
<stop offset="0.515625" stop-color="#E4E9FF"/>
<stop offset="0.53125" stop-color="#FFEEE5"/>
<stop offset="0.5625" stop-color="#E5EAFF"/>
<stop offset="0.578125" stop-color="#E6EAFF"/>
<stop offset="0.59375" stop-color="#E7EBFF"/>
<stop offset="0.609375" stop-color="#E7EBFF"/>
<stop offset="0.625" stop-color="#E8ECFF"/>
<stop offset="0.640625" stop-color="#E8ECFF"/>
<stop offset="0.65625" stop-color="#E9EDFF"/>
<stop offset="0.6875" stop-color="#E9EDFF"/>
<stop offset="0.703125" stop-color="#EAEDFF"/>
<stop offset="0.71875" stop-color="#EBEEFF"/>
<stop offset="0.734375" stop-color="#EBEEFF"/>
<stop offset="0.75" stop-color="#ECEFFF"/>
<stop offset="0.765625" stop-color="#ECEFFF"/>
<stop offset="0.78125" stop-color="#EDF0FF"/>
<stop offset="0.8125" stop-color="#EDF0FF"/>
<stop offset="0.828125" stop-color="#EEF1FF"/>
<stop offset="0.84375" stop-color="#EFF1FF"/>
<stop offset="0.859375" stop-color="#EFF1FF"/>
<stop offset="0.875" stop-color="#F0F2FF"/>
<stop offset="0.890625" stop-color="#F0F2FF"/>
<stop offset="0.90625" stop-color="#F1F3FF"/>
<stop offset="0.9375" stop-color="#F1F3FF"/>
<stop offset="0.953125" stop-color="#F2F4FF"/>
<stop offset="0.96875" stop-color="#F3F4FF"/>
<stop offset="0.984375" stop-color="#F3F4FF"/>
<stop offset="1" stop-color="#F4F5FF"/>
</linearGradient>
</defs>
</svg>
