<svg width="230" height="34" viewBox="0 0 230 34" fill="none" xmlns="http://www.w3.org/2000/svg">
<path d="M6.87556 7.97367C1.90527 27.0282 1.90527 27.2432 1.90527 27.4045C1.90527 28.6698 3.25473 28.6966 3.78191 28.6966H11.3193C11.9121 28.6966 13.5907 28.6698 14.0844 26.8127C19.0219 7.73135 19.0547 7.54316 19.0547 7.35445C19.0547 6.11653 17.7053 6.08972 17.1787 6.08972H9.6079C8.98236 6.08972 7.36931 6.14334 6.87556 7.97367ZM9.21252 25.2246H7.6329L11.7147 9.56168H13.2943L9.21252 25.2246Z" fill="#353131"/>
<path d="M32.7152 15.5363C34.7557 7.73135 34.7885 7.54316 34.7885 7.35445C34.7885 6.11653 33.4391 6.08972 32.9125 6.08972H23.7287C23.3667 6.08972 23.0047 6.33205 22.9392 6.62799C17.3433 28.212 17.3105 28.2661 17.3105 28.2929C17.3105 28.5352 17.5735 28.6966 17.8699 28.6966H21.7871C22.149 28.6966 22.4782 28.4543 22.5766 28.1583L24.9135 19.1155H26.4938C24.1568 28.212 24.124 28.2661 24.124 28.2929C24.124 28.5352 24.387 28.6966 24.6834 28.6966H28.6006C28.9625 28.6966 29.2917 28.4543 29.3901 28.1583C31.7277 19.1964 31.7604 19.0077 31.7604 18.8195C31.7604 17.5548 30.411 17.5548 29.8838 17.5548L29.95 17.4202C30.5421 17.4202 32.2542 17.4202 32.7152 15.5363ZM27.4157 9.56168H28.9953L27.3823 15.6709H25.8027L27.4157 9.56168Z" fill="#353131"/>
<path d="M41.0756 6.08972C40.4828 6.08972 38.8042 6.11653 38.3105 7.97367C33.0772 28.212 33.0444 28.2661 33.0444 28.2929C33.0444 28.5352 33.3074 28.6966 33.6038 28.6966H37.521C37.8829 28.6966 38.2121 28.4543 38.3105 28.1583L40.2199 20.7303H41.7995C39.8907 28.212 39.8579 28.2661 39.8579 28.2929C39.8579 28.5352 40.1209 28.6966 40.4173 28.6966H44.3345C44.6964 28.6966 45.0256 28.4543 45.124 28.1583C50.4896 7.73135 50.5224 7.54316 50.5224 7.35445C50.5224 6.11653 49.173 6.08972 48.6464 6.08972H41.0756ZM43.1496 9.56168H44.7292L42.7214 17.2857H41.1412L43.1496 9.56168Z" fill="#353131"/>
<path d="M55.1964 6.08972C54.8345 6.08972 54.4725 6.33205 54.4069 6.62799C48.8111 28.212 48.7783 28.2661 48.7783 28.2929C48.7783 28.5352 49.0413 28.6966 49.3376 28.6966H52.8267C53.1886 28.6966 53.5178 28.4543 53.6168 28.1583L56.2829 17.9317C57.7314 28.212 57.698 28.2661 57.698 28.2929C57.698 28.5352 57.9616 28.6966 58.2579 28.6966H61.6808C62.0434 28.6966 62.3725 28.4543 62.4709 28.1583L68.0667 6.52023C68.0667 6.27791 67.8693 6.08972 67.5402 6.08972H64.1167C63.7548 6.08972 63.3928 6.33205 63.3266 6.62799L60.4631 17.6626L59.2126 6.52023C59.2126 6.27791 59.0146 6.08972 58.6855 6.08972H55.1964Z" fill="#353131"/>
<path d="M75.7358 28.6966C76.3286 28.6966 78.04 28.6966 78.5009 26.8127L80.9697 17.1243C80.9697 16.882 80.7717 16.6933 80.4425 16.6933H76.5259C76.164 16.6933 75.8014 16.9356 75.7358 17.2315L73.6618 25.2246H72.0822L76.164 9.56168H82.3847C82.7467 9.56168 83.1086 9.31935 83.1749 9.02341L83.8004 6.52023C83.8004 6.27791 83.6024 6.08972 83.2732 6.08972H74.1228C73.5307 6.08972 71.8186 6.08972 71.3249 7.97367C66.3546 27.055 66.3218 27.2432 66.3218 27.4319C66.3218 28.6966 67.7375 28.6966 68.264 28.6966H75.7358Z" fill="#353131"/>
<path d="M87.4216 6.62799C81.8258 28.212 81.793 28.2661 81.793 28.2929C81.793 28.5352 82.0559 28.6966 82.3523 28.6966H91.9637C92.3257 28.6966 92.6548 28.4543 92.7538 28.1583L93.3459 25.7629V25.6557C93.3459 25.4134 93.1486 25.2246 92.8194 25.2246H87.8163L89.4622 18.8463H92.8522C93.2148 18.8463 93.5767 18.604 93.6751 18.3081C94.3334 15.6167 94.3662 15.5899 94.3662 15.5363C94.3662 15.294 94.1361 15.1326 93.8397 15.1326H90.4497L91.8981 9.56168H96.9012C97.2632 9.56168 97.6251 9.31935 97.6913 9.02341L98.3497 6.52023C98.3497 6.27791 98.1517 6.08972 97.8225 6.08972H88.2111C87.8491 6.08972 87.4872 6.33205 87.4216 6.62799Z" fill="#353131"/>
<path d="M111.845 6.62799C106.249 28.212 106.216 28.2661 106.216 28.2929C106.216 28.5352 106.479 28.6966 106.776 28.6966H116.387C116.749 28.6966 117.078 28.4543 117.177 28.1583L117.769 25.7629V25.6557C117.769 25.4134 117.572 25.2246 117.243 25.2246H112.24L113.886 18.8463H117.276C117.638 18.8463 118 18.604 118.098 18.3081C118.757 15.6167 118.79 15.5899 118.79 15.5363C118.79 15.294 118.559 15.1326 118.263 15.1326H114.873L116.321 9.56168H121.325C121.686 9.56168 122.048 9.31935 122.115 9.02341L122.773 6.52023C122.773 6.27791 122.575 6.08972 122.246 6.08972H112.634C112.272 6.08972 111.911 6.33205 111.845 6.62799Z" fill="#353131"/>
<path d="M126.525 6.08972C126.163 6.08972 125.801 6.33205 125.736 6.62799L123.036 28.212C123.036 28.5352 123.267 28.6966 123.596 28.6966H129.455C129.817 28.6966 130.113 28.5084 130.212 28.212C138.737 6.62799 138.77 6.57438 138.77 6.52023C138.77 6.2511 138.54 6.08972 138.243 6.08972H134.326C133.964 6.08972 133.668 6.27791 133.537 6.57438L128.27 22.3987H128.006L130.969 6.46662C130.969 6.22429 130.772 6.08972 130.442 6.08972H126.525Z" fill="#353131"/>
<path d="M141.37 7.97367C136.4 27.0282 136.4 27.2432 136.4 27.4045C136.4 28.6698 137.749 28.6966 138.277 28.6966H145.814C146.407 28.6966 148.085 28.6698 148.579 26.8127C153.517 7.73135 153.549 7.54316 153.549 7.35445C153.549 6.11653 152.2 6.08972 151.673 6.08972H144.103C143.477 6.08972 141.864 6.14334 141.37 7.97367ZM143.707 25.2246H142.128L146.209 9.56168H147.789L143.707 25.2246Z" fill="#353131"/>
<path d="M162.667 6.52023C162.667 6.27791 162.469 6.08972 162.14 6.08972H158.223C157.861 6.08972 157.499 6.33205 157.433 6.62799L150.586 33.1105C150.586 33.3523 150.751 33.5411 151.08 33.5411H162.469C162.831 33.5411 163.193 33.2987 163.259 33.0028L163.983 30.3382V30.2305C163.983 29.9887 163.786 29.8 163.457 29.8H156.643L162.667 6.52023Z" fill="#353131"/>
<path d="M166.288 6.62799C160.955 27.0282 160.955 27.2432 160.955 27.4045C160.955 28.6966 162.338 28.6966 162.865 28.6966H171.982C172.344 28.6966 172.673 28.4543 172.772 28.1583C178.302 6.62799 178.335 6.60118 178.335 6.54704C178.335 6.30524 178.105 6.14334 177.808 6.14334H173.891C173.529 6.14334 173.167 6.38567 173.068 6.68161L168.262 25.2246H166.683L171.521 6.52023C171.521 6.27791 171.324 6.08972 170.995 6.08972H167.077C166.715 6.08972 166.354 6.33205 166.288 6.62799Z" fill="#353131"/>
<path d="M176.689 1.78355C176.327 1.78355 175.965 2.02588 175.899 2.32183L175.273 4.71724C175.273 5.03999 175.471 5.25551 175.8 5.25551H182.351C176.393 28.212 176.36 28.2661 176.36 28.2929C176.36 28.5352 176.623 28.6966 176.919 28.6966H180.803C181.166 28.6966 181.495 28.4543 181.593 28.1583L187.551 5.25551H194.102C194.463 5.25551 194.825 5.01318 194.891 4.71724L195.517 2.21407C195.517 1.97226 195.319 1.78355 194.99 1.78355H176.689Z" fill="#353131"/>
<path d="M191.632 6.08972C191.271 6.08972 190.909 6.33205 190.843 6.62799C185.247 28.212 185.214 28.2661 185.214 28.2929C185.214 28.5352 185.477 28.6966 185.774 28.6966H189.691C190.053 28.6966 190.382 28.4543 190.48 28.1583L196.076 6.52023C196.076 6.27791 195.879 6.08972 195.55 6.08972H191.632Z" fill="#353131"/>
<path d="M199.335 7.97367C194.365 27.0282 194.365 27.2432 194.365 27.4045C194.365 28.6698 195.714 28.6966 196.241 28.6966H203.779C204.372 28.6966 206.05 28.6698 206.544 26.8127C211.481 7.73135 211.514 7.54316 211.514 7.35445C211.514 6.11653 210.165 6.08972 209.638 6.08972H202.067C201.442 6.08972 199.829 6.14334 199.335 7.97367ZM201.672 25.2246H200.092L204.174 9.56168H205.754L201.672 25.2246Z" fill="#353131"/>
<path d="M216.188 6.08972C215.826 6.08972 215.464 6.33205 215.399 6.62799C209.803 28.212 209.77 28.2661 209.77 28.2929C209.77 28.5352 210.033 28.6966 210.329 28.6966H213.818C214.18 28.6966 214.51 28.4543 214.609 28.1583L217.275 17.9317C218.723 28.212 218.69 28.2661 218.69 28.2929C218.69 28.5352 218.953 28.6966 219.25 28.6966H222.672C223.035 28.6966 223.364 28.4543 223.463 28.1583L229.058 6.52023C229.058 6.27791 228.861 6.08972 228.532 6.08972H225.108C224.746 6.08972 224.385 6.33205 224.318 6.62799L221.455 17.6626L220.204 6.52023C220.204 6.27791 220.006 6.08972 219.677 6.08972H216.188Z" fill="#353131"/>
<path d="M5.86135 7.14079C0.887207 26.1953 0.887207 26.4119 0.887207 26.5696C0.887207 27.838 2.2373 27.8642 2.7677 27.8642H10.2974C10.8921 27.8642 12.572 27.838 13.0696 25.9782C18.0039 6.89741 18.036 6.71343 18.036 6.52314C18.036 5.28101 16.6859 5.25473 16.1639 5.25473H8.58598C7.96686 5.25473 6.35189 5.31413 5.86135 7.14079ZM8.19188 24.3949H6.61676L10.6992 8.73037H12.2743L8.19188 24.3949ZM31.6958 14.7034C33.737 6.89741 33.7692 6.71343 33.7692 6.52314C33.7692 5.28101 32.4191 5.25473 31.897 5.25473H22.7119C22.3499 5.25473 21.9886 5.49811 21.9243 5.79353C16.3227 27.378 16.2905 27.4306 16.2905 27.4632C16.2905 27.6997 16.5561 27.8642 16.8531 27.8642H20.7671C21.1284 27.8642 21.4582 27.6209 21.5623 27.3254L23.8929 18.2842H25.4757C23.1375 27.378 23.1053 27.4306 23.1053 27.4632C23.1053 27.6997 23.3708 27.8642 23.6679 27.8642H27.5812C27.9432 27.8642 28.2723 27.6209 28.3688 27.3254C30.7076 18.363 30.7398 18.1727 30.7398 17.9887C30.7398 16.7203 29.3897 16.7203 28.867 16.7203L28.9313 16.5889C29.526 16.5889 31.238 16.5889 31.6958 14.7034ZM26.4002 8.73037H27.9753L26.368 14.8411H24.7846L26.4002 8.73037ZM40.0606 5.25473C39.4659 5.25473 37.7867 5.28102 37.2961 7.14079C32.0565 27.378 32.0243 27.4306 32.0243 27.4632C32.0243 27.6997 32.2898 27.8642 32.5869 27.8642H36.5009C36.8622 27.8642 37.192 27.6209 37.2961 27.3254L39.201 19.9006H40.7839C38.8712 27.378 38.8391 27.4306 38.8391 27.4632C38.8391 27.6997 39.1046 27.8642 39.4016 27.8642H43.315C43.6769 27.8642 44.0061 27.6209 44.1025 27.3254C49.4708 6.89741 49.5029 6.71343 49.5029 6.52314C49.5029 5.28101 48.1528 5.25473 47.6308 5.25473H40.0606ZM42.134 8.73037H43.7091L41.7 16.4512H40.1249L42.134 8.73037ZM54.1794 5.25473C53.8175 5.25473 53.4562 5.49811 53.3919 5.79353C47.7902 27.378 47.7581 27.4306 47.7581 27.4632C47.7581 27.6997 48.0236 27.8642 48.3206 27.8642H51.8084C52.1703 27.8642 52.4995 27.6209 52.5959 27.3254L55.264 17.1014C56.7105 27.378 56.6784 27.4306 56.6784 27.4632C56.6784 27.6997 56.9433 27.8642 57.2409 27.8642H60.6644C61.0257 27.8642 61.3555 27.6209 61.4519 27.3254L67.0452 5.6884C67.0452 5.44555 66.8523 5.25473 66.5225 5.25473H63.0991C62.7378 5.25473 62.3758 5.49811 62.3115 5.79353L59.4429 16.8323L58.1969 5.6884C58.1969 5.44555 57.9963 5.25473 57.6665 5.25473H54.1794ZM74.7144 27.8642C75.3091 27.8642 77.0211 27.8642 77.4789 25.9782L79.9541 16.2935C79.9541 16.0501 79.7535 15.8598 79.4237 15.8598H75.5103C75.1484 15.8598 74.7871 16.1027 74.7144 16.3986L72.641 24.3949H71.0659L75.1484 8.73037H81.3685C81.7304 8.73037 82.0917 8.48752 82.156 8.1921L82.7828 5.6884C82.7828 5.44555 82.5823 5.25473 82.2524 5.25473H73.1072C72.5125 5.25473 70.8011 5.25473 70.3105 7.14079C65.3364 26.2216 65.3042 26.4119 65.3042 26.5958C65.3042 27.8642 66.7186 27.8642 67.249 27.8642H74.7144ZM86.4062 5.79353C80.8053 27.378 80.7731 27.4306 80.7731 27.4632C80.7731 27.6997 81.038 27.8642 81.3357 27.8642H90.9464C91.3084 27.8642 91.6376 27.6209 91.734 27.3254L92.3287 24.9337V24.8218C92.3287 24.5789 92.1281 24.3949 91.7983 24.3949H86.7997L88.4475 18.015H91.8304C92.1924 18.015 92.5621 17.7717 92.6585 17.4762C93.3175 14.7822 93.3496 14.756 93.3496 14.7034C93.3496 14.46 93.1162 14.3023 92.8192 14.3023H89.4279L90.8821 8.73037H95.8807C96.2427 8.73037 96.604 8.48752 96.6766 8.1921L97.3273 5.6884C97.3273 5.44555 97.1344 5.25473 96.8052 5.25473H87.1938C86.8319 5.25473 86.4705 5.49811 86.4062 5.79353ZM110.83 5.79353C105.229 27.378 105.196 27.4306 105.196 27.4632C105.196 27.6997 105.462 27.8642 105.759 27.8642H115.37C115.732 27.8642 116.061 27.6209 116.158 27.3254L116.753 24.9337V24.8218C116.753 24.5789 116.551 24.3949 116.222 24.3949H111.224L112.871 18.015H116.254C116.616 18.015 116.985 17.7717 117.082 17.4762C117.741 14.7822 117.773 14.756 117.773 14.7034C117.773 14.46 117.54 14.3023 117.242 14.3023H113.851L115.306 8.73037H120.305C120.666 8.73037 121.028 8.48752 121.1 8.1921L121.751 5.6884C121.751 5.44555 121.558 5.25473 121.228 5.25473H111.617C111.256 5.25473 110.894 5.49811 110.83 5.79353ZM125.507 5.25473C125.146 5.25473 124.784 5.49811 124.719 5.79353L122.02 27.378C122.02 27.6997 122.244 27.8642 122.574 27.8642H128.441C128.802 27.8642 129.091 27.6734 129.196 27.378C137.722 5.79353 137.754 5.74096 137.754 5.6884C137.754 5.41926 137.521 5.25473 137.224 5.25473H133.311C132.949 5.25473 132.652 5.44555 132.515 5.74096L127.251 21.5695H126.986L129.951 5.63583C129.951 5.39298 129.75 5.25473 129.421 5.25473H125.507ZM140.356 7.14079C135.381 26.1953 135.381 26.4119 135.381 26.5696C135.381 27.838 136.731 27.8642 137.262 27.8642H144.792C145.386 27.8642 147.066 27.838 147.564 25.9782C152.499 6.89741 152.531 6.71343 152.531 6.52314C152.531 5.28101 151.181 5.25473 150.658 5.25473H143.08C142.461 5.25473 140.846 5.31413 140.356 7.14079ZM142.686 24.3949H141.111L145.193 8.73037H146.768L142.686 24.3949ZM161.65 5.6884C161.65 5.44555 161.449 5.25473 161.119 5.25473H157.206C156.844 5.25473 156.483 5.49811 156.418 5.79353L149.572 32.2792C149.572 32.5226 149.732 32.7066 150.062 32.7066H161.449C161.81 32.7066 162.172 32.4632 162.244 32.1678L162.968 29.5069V29.395C162.968 29.1584 162.767 28.9681 162.437 28.9681H155.623L161.65 5.6884ZM165.273 5.79353C159.937 26.1953 159.937 26.4119 159.937 26.5696C159.937 27.8642 161.319 27.8642 161.849 27.8642H170.962C171.324 27.8642 171.653 27.6209 171.75 27.3254C177.286 5.79353 177.319 5.76725 177.319 5.71468C177.319 5.47183 177.086 5.31413 176.788 5.31413H172.875C172.514 5.31413 172.152 5.55068 172.047 5.8461L167.242 24.3949H165.667L170.504 5.6884C170.504 5.44555 170.303 5.25473 169.974 5.25473H166.06C165.699 5.25473 165.337 5.49811 165.273 5.79353ZM175.67 0.951187C175.308 0.951187 174.946 1.19404 174.882 1.48998L174.255 3.88172C174.255 4.21025 174.456 4.42052 174.786 4.42052H181.335C175.373 27.378 175.34 27.4306 175.34 27.4632C175.34 27.6997 175.605 27.8642 175.903 27.8642H179.784C180.146 27.8642 180.475 27.6209 180.572 27.3254L186.535 4.42052H193.084C193.446 4.42052 193.807 4.18397 193.871 3.88172L194.498 1.38485C194.498 1.14147 194.298 0.951187 193.968 0.951187H175.67ZM190.616 5.25473C190.254 5.25473 189.893 5.49811 189.828 5.79353C184.227 27.378 184.194 27.4306 184.194 27.4632C184.194 27.6997 184.46 27.8642 184.757 27.8642H188.671C189.032 27.8642 189.362 27.6209 189.466 27.3254L195.06 5.6884C195.06 5.44555 194.858 5.25473 194.529 5.25473H190.616ZM198.321 7.14079C193.346 26.1953 193.346 26.4119 193.346 26.5696C193.346 27.838 194.696 27.8642 195.227 27.8642H202.757C203.351 27.8642 205.031 27.838 205.529 25.9782C210.464 6.89741 210.496 6.71343 210.496 6.52314C210.496 5.28101 209.146 5.25473 208.623 5.25473H201.045C200.427 5.25473 198.811 5.31413 198.321 7.14079ZM200.652 24.3949H199.076L203.159 8.73037H204.733L200.652 24.3949ZM215.171 5.25473C214.809 5.25473 214.448 5.49811 214.383 5.79353C208.782 27.378 208.75 27.4306 208.75 27.4632C208.75 27.6997 209.015 27.8642 209.313 27.8642H212.8C213.162 27.8642 213.492 27.6209 213.588 27.3254L216.255 17.1014C217.702 27.378 217.67 27.4306 217.67 27.4632C217.67 27.6997 217.935 27.8642 218.232 27.8642H221.656C222.018 27.8642 222.347 27.6209 222.443 27.3254L228.037 5.6884C228.037 5.44555 227.844 5.25473 227.514 5.25473H224.091C223.729 5.25473 223.368 5.49811 223.304 5.79353L220.434 16.8323L219.189 5.6884C219.189 5.44555 218.988 5.25473 218.659 5.25473H215.171Z" stroke="#353131"/>
</svg>
