<svg width="77" height="77" viewBox="0 0 77 77" fill="none" xmlns="http://www.w3.org/2000/svg">
<path d="M38.4838 1.29343C18.0937 1.29343 1.50544 17.8712 1.50544 38.2475C1.50544 58.6242 18.0937 75.2016 38.4838 75.2016C58.8735 75.2016 75.4622 58.6242 75.4622 38.2475C75.4622 17.8712 58.8735 1.29343 38.4838 1.29343ZM38.4838 76.4674C33.3209 76.4674 28.3124 75.4567 23.5968 73.4638C19.0427 71.5387 14.9525 68.783 11.4403 65.2732C7.92776 61.7634 5.17069 57.6759 3.24431 53.1247C1.25009 48.4123 0.23877 43.4071 0.23877 38.2475C0.23877 33.0884 1.25009 28.0827 3.24431 23.3703C5.17069 18.8191 7.92776 14.7316 11.4403 11.2222C14.9525 7.71198 19.0427 4.95672 23.5968 3.03161C28.3124 1.03825 33.3209 0.0275879 38.4838 0.0275879C43.6463 0.0275879 48.6553 1.03825 53.3708 3.03161C57.925 4.95672 62.0147 7.71198 65.5268 11.2222C69.0394 14.7316 71.7965 18.8191 73.7229 23.3703C75.7176 28.0827 76.7289 33.0884 76.7289 38.2475C76.7289 43.4071 75.7176 48.4123 73.7229 53.1247C71.7965 57.6759 69.0394 61.7634 65.5268 65.2732C62.0147 68.783 57.925 71.5387 53.3708 73.4638C48.6553 75.4567 43.6463 76.4674 38.4838 76.4674Z" fill="#353131"/>
<path d="M4.01172 38.2475C4.01172 19.2219 19.4452 3.79858 38.4838 3.79858C57.522 3.79858 72.9554 19.2219 72.9554 38.2475C72.9554 57.2737 57.522 72.697 38.4838 72.697C19.4452 72.697 4.01172 57.2737 4.01172 38.2475Z" fill="#FF822C"/>
<path d="M56.1358 17.9587H20.8321C18.0067 17.9587 15.6948 20.2687 15.6948 23.0922V43.7369C15.6948 46.5604 18.0067 48.8704 20.8321 48.8704H31.5262C31.8627 48.8704 32.1804 49.0271 32.3849 49.2942L36.4558 54.6091C30.1023 54.7625 25.2533 55.5776 25.2533 56.5594C25.2533 57.6511 31.2447 58.5362 38.6357 58.5362C46.0267 58.5362 52.0185 57.6511 52.0185 56.5594C52.0185 55.562 47.0165 54.7373 40.5167 54.6022L39.3422 56.1356C39.3385 56.1406 39.3339 56.1447 39.3303 56.1493C39.3339 56.1447 39.3385 56.1406 39.3422 56.1356L44.5831 49.2942C44.7871 49.0271 45.1048 48.8704 45.4413 48.8704H56.1358C58.9612 48.8704 61.2727 46.5604 61.2727 43.7369V23.0922C61.2727 20.2687 58.9612 17.9587 56.1358 17.9587Z" fill="#FEF7D8"/>
<path d="M20.8319 18.592C18.3481 18.592 16.3277 20.611 16.3277 23.0923V43.7371C16.3277 46.2183 18.3481 48.2374 20.8319 48.2374H31.526C32.0564 48.2374 32.5653 48.4889 32.8871 48.909L38.1285 55.7513C38.2137 55.8627 38.343 55.9268 38.4837 55.9268C38.624 55.9268 38.7533 55.8627 38.8386 55.7513L44.0799 48.909C44.4018 48.4889 44.9106 48.2374 45.4411 48.2374H56.1356C58.619 48.2374 60.6393 46.2183 60.6393 43.7371V23.0923C60.6393 20.611 58.619 18.592 56.1356 18.592H20.8319ZM38.4837 57.1926C37.9455 57.1926 37.4495 56.9475 37.1226 56.521L31.8813 49.6787C31.7974 49.5692 31.6649 49.5032 31.526 49.5032H20.8319C17.6499 49.5032 15.061 46.9165 15.061 43.7371V23.0923C15.061 19.9128 17.6499 17.3262 20.8319 17.3262H56.1356C59.3172 17.3262 61.906 19.9128 61.906 23.0923V43.7371C61.906 46.9165 59.3172 49.5032 56.1356 49.5032H45.4411C45.3026 49.5032 45.1697 49.5692 45.0858 49.6787L39.8449 56.521C39.5175 56.9475 39.0215 57.1926 38.4837 57.1926Z" fill="#353131"/>
<path d="M26.0935 56.5577C26.4947 56.7547 27.4863 57.102 29.8229 57.4089C32.2476 57.7283 35.377 57.9037 38.6356 57.9037C41.8942 57.9037 45.024 57.7283 47.4487 57.4089C49.7853 57.102 50.7765 56.7547 51.1776 56.5577C50.8182 56.3804 49.9783 56.0845 48.0795 55.799C46.1283 55.5063 43.5624 55.3097 40.8237 55.2424L39.8449 56.5211C39.5176 56.9476 39.0216 57.1927 38.4838 57.1927C37.9456 57.1927 37.4496 56.9476 37.1227 56.5211L36.1494 55.2506C33.4781 55.3253 30.9833 55.5241 29.0926 55.8142C27.2635 56.0945 26.447 56.3832 26.0935 56.5577ZM38.6356 59.1696C35.0308 59.1696 31.6375 58.9616 29.0798 58.5836C27.8118 58.3962 26.8078 58.1749 26.0958 57.9266C25.6919 57.7855 24.6196 57.4112 24.6196 56.5595C24.6196 55.6611 25.7048 55.1082 28.3642 54.65C30.4469 54.2913 33.3149 54.0521 36.4406 53.9761C36.6432 53.9715 36.8357 54.0636 36.9591 54.2244L38.1285 55.7514C38.2138 55.8627 38.3431 55.9269 38.4838 55.9269C38.6241 55.9269 38.7534 55.8627 38.8387 55.7514L40.0136 54.218C40.1365 54.0576 40.3281 53.9646 40.5294 53.9697C43.7234 54.0361 46.6638 54.2716 48.8098 54.6335C51.5389 55.0935 52.6515 55.6515 52.6515 56.5595C52.6515 57.4112 51.5792 57.7855 51.1753 57.9266C50.4638 58.1749 49.4598 58.3962 48.1909 58.5836C45.6337 58.9616 42.2403 59.1696 38.6356 59.1696Z" fill="#353131"/>
<path d="M27.499 25.2974C27.3147 25.2974 27.1272 25.335 26.9475 25.4138C26.6124 25.5618 26.3543 25.8311 26.2214 26.1729C26.0889 26.5142 26.0971 26.8872 26.2452 27.2225C26.3928 27.5579 26.6624 27.8158 27.0044 27.9482C27.3464 28.0806 27.7191 28.0724 28.0547 27.9248C28.3903 27.7773 28.6484 27.5075 28.7813 27.1662C28.9138 26.8244 28.9055 26.4515 28.7575 26.1161C28.5315 25.6034 28.0272 25.2974 27.499 25.2974ZM27.5023 29.3084C27.1791 29.3084 26.8558 29.2484 26.5459 29.1284C25.8885 28.8732 25.37 28.3779 25.0858 27.7333C24.8016 27.0878 24.7855 26.3713 25.0409 25.7143C25.2958 25.0578 25.7918 24.5396 26.4368 24.2556C27.7691 23.6692 29.3301 24.2748 29.9169 25.6057C30.2006 26.2503 30.2171 26.9673 29.9618 27.6243C29.7069 28.2808 29.2109 28.7994 28.5658 29.0835C28.2248 29.2333 27.864 29.3084 27.5023 29.3084Z" fill="#353131"/>
<path d="M28.2165 29.208L35.1789 44.9978L35.8555 44.7L28.8936 28.9098C28.7887 28.9753 28.6791 29.033 28.5659 29.0834C28.4522 29.1333 28.3353 29.1746 28.2165 29.208ZM34.8548 46.4657C34.6113 46.4657 34.3794 46.3246 34.2748 46.0878L26.7037 28.9162C26.6124 28.7087 26.6386 28.4686 26.7724 28.2867C26.9068 28.1039 27.1273 28.0063 27.3528 28.0315C27.593 28.0581 27.836 28.021 28.0547 27.9248C28.2738 27.8281 28.465 27.6742 28.6076 27.479C28.741 27.2962 28.9624 27.1986 29.187 27.2229C29.4121 27.2472 29.6074 27.3901 29.6987 27.5967L37.2698 44.7688C37.3377 44.9227 37.3414 45.0968 37.2804 45.253C37.2199 45.4097 37.0993 45.5357 36.9457 45.6035L35.1097 46.4117C35.0267 46.4483 34.94 46.4657 34.8548 46.4657Z" fill="#353131"/>
<path d="M30.7162 29.9038L33.9556 37.252C34.3375 36.392 34.9256 35.276 35.7614 34.2168C37.7437 31.7048 40.2642 30.5915 43.1074 30.9521L39.7627 23.3662C37.0372 22.739 34.7015 23.6218 32.8177 25.9941C31.5776 27.5559 30.9179 29.3078 30.7162 29.9038ZM33.9987 39.5518C33.7493 39.5518 33.521 39.4057 33.4192 39.1748L29.4601 30.1943C29.4 30.0587 29.3899 29.9066 29.4312 29.7637C29.4592 29.6656 30.1427 27.3396 31.8023 25.2368C34.0661 22.3674 37.0326 21.3229 40.3806 22.2158C40.5658 22.2653 40.7194 22.3963 40.7964 22.5722L44.756 31.5522C44.8546 31.7749 44.8161 32.0342 44.6574 32.2193C44.4988 32.4039 44.2485 32.4813 44.0133 32.4186C41.1623 31.659 38.7279 32.518 36.7773 34.9741C35.2621 36.8818 34.6139 39.0735 34.607 39.0955C34.5332 39.3512 34.3067 39.5335 34.0408 39.5509C34.0266 39.5514 34.0129 39.5518 33.9987 39.5518Z" fill="#353131"/>
<path d="M41.1413 36.7165C43.8677 37.3437 46.2025 36.4604 48.0867 34.0882C49.2158 32.6666 49.8636 31.086 50.1231 30.3653L47.5338 28.3261C47.4082 28.2267 47.3243 28.0833 47.3 27.9248L46.6252 23.518C45.9329 24.8956 44.8015 26.6315 43.1112 27.8226L44.7557 31.5524C44.8542 31.775 44.8157 32.0343 44.6571 32.2194C44.4985 32.4041 44.2482 32.4815 44.013 32.4187C42.3328 31.9707 40.7842 32.0893 39.4015 32.7706L41.1413 36.7165ZM42.7885 38.1771C42.0564 38.1771 41.3004 38.0745 40.5238 37.8669C40.3381 37.8174 40.185 37.6864 40.1075 37.5105L38.0088 32.7504C37.8809 32.4595 37.9881 32.1191 38.2595 31.9542C39.7288 31.0631 41.3549 30.7277 43.1066 30.9513L41.7359 27.8428C41.6075 27.5519 41.7148 27.211 41.9867 27.0466C45.0445 25.192 46.285 21.0289 46.2969 20.9872C46.3799 20.7018 46.6495 20.513 46.9466 20.5318C47.2432 20.551 47.4866 20.7737 47.5315 21.0674L48.514 27.4864L51.2568 29.646C51.459 29.8055 51.5447 30.0712 51.4732 30.3191C51.4448 30.4166 50.7613 32.7431 49.1022 34.8455C47.3633 37.0491 45.21 38.1766 42.7885 38.1771Z" fill="#353131"/>
<path d="M39.4015 32.7704L40.7906 35.9197L43.1493 32.2367C41.7996 32.0287 40.5444 32.2078 39.4015 32.7704ZM40.6875 37.8883C40.6709 37.8883 40.6544 37.8879 40.6384 37.8865C40.4055 37.8686 40.2015 37.7238 40.1075 37.5104L38.0088 32.7503C37.8809 32.4594 37.9881 32.119 38.2595 31.954C40.0681 30.8572 42.1137 30.6021 44.3394 31.1958C44.5347 31.248 44.6933 31.3901 44.7667 31.5783C44.8396 31.7666 44.8185 31.9783 44.7098 32.1487L41.2206 37.5965C41.1037 37.7788 40.902 37.8883 40.6875 37.8883Z" fill="#353131"/>
</svg>
